<?xml version="1.0" encoding="utf-8"?>
<!-- Generator: Adobe Illustrator 26.3.1, SVG Export Plug-In . SVG Version: 6.00 Build 0)  -->
<svg version="1.1" id="Layer_1" xmlns="http://www.w3.org/2000/svg" xmlns:xlink="http://www.w3.org/1999/xlink" x="0px" y="0px"
	 width="300px" height="300px" viewBox="0 0 300 300" style="enable-background:new 0 0 300 300;" xml:space="preserve">
<style type="text/css">
	.st0{fill:#DB8674;}
	.st1{fill:#7B8FB9;}
	.st2{fill:#DFA5C3;}
	.st3{fill:#ECBB87;}
	.st4{fill:#95A7C8;}
</style>
<g>
	<g>
		<path class="st0" d="M171.2,109.3c-0.5-2.3-1.7-4.3-3.4-5.9c-3.3-2.9-7.1-3-11-4.2c3-4.3,5.9-9.3,5.2-14.5
			c-0.5-3.6-2.9-6.9-6.2-8.6c-2.3-1.2-9.4-1.9-14.2,3c0.6-0.6-1.3-3.9-1.6-4.4c-0.8-1.6-2-2.8-3.4-3.9c-4.3-3.4-10.8-5.4-16.1-3.3
			c-5,2-7.6,7.1-6.9,12.3c-12.5-4.1-19.2,2.6-21.2,5.7c-4.9,7.6-5.4,19,0.4,26.3c0.1,0.1,0.1,0.1,0.2,0.2c2.6,3.6,7,6.3,11.6,5.9
			c-1.9,4.9-4.5,10.4,0.5,16c0.3,0.3,0.6,0.6,0.9,0.8c0.2,0.2,0.4,0.3,0.6,0.4c5.8,4.2,15.1,1.3,20.4-2.7c0.5-0.5,0.7-0.1,0.7,0.4
			c0.9,4.1,3.6,8.3,7.8,9.3c6.6,1.6,15.2-2.2,17-9.2c0.7-2.6,0.6-5.1,0.5-8.5C164.1,127.5,171.9,118.6,171.2,109.3z"/>
		<path class="st1" d="M119.1,96c5.2-3.4,12.4-3.9,17.5,0c2.6,2,3.8,4.9,4,8.2c0.3,3.5-1.4,6-4.1,8c-3.2,2.3-6.7,3.2-10.6,2.7
			c-3.3-0.4-5.6-2.4-7.8-4.6c-0.8-0.8-1.4-1.8-2.1-2.8C113.9,104.2,115.2,97.7,119.1,96z"/>
	</g>
	<g>
		<path class="st2" d="M136.3,175c-1.2-2-6.1-2.9-4.8-4.2c4.3-5.8,1.8-15.2-5.5-17.1c-3.8-1-7.6,0-11.1,1.3c-0.7,0-0.7-0.8-1.1-1.2
			c-0.2-0.2-0.4-0.4-0.6-0.7c-9.7-11.3-31.4-0.3-30,14.1c0,1.5,0.5,3,1.2,4.3c1.6,2.4-7,1.3-9.1,9.7c-2,6.8,4.4,13,10.5,14.9
			c1.1,0.3,1.1,0.4,0.8,1.5c-3.6,11.2,12.4,15.1,20,10.3c0.9-0.5,1.6-0.8,2.6,0.1c7.4,7.5,21.2-0.8,17.3-10.9c-1.1-2,4.4-1.4,7.5-5
			C138.3,187.9,140.9,180.1,136.3,175z"/>
		<path class="st1" d="M101.9,171.4c3.7-2.4,8.7-2.8,12.3,0c1.8,1.4,2.6,3.5,2.8,5.8c0.2,2.5-1,4.2-2.9,5.6
			c-2.2,1.6-4.7,2.3-7.5,1.9c-2.3-0.3-4-1.7-5.5-3.3c-0.6-0.6-1-1.3-1.5-2C98.2,177.2,99.1,172.7,101.9,171.4z"/>
	</g>
	<g>
		<path class="st3" d="M41.6,55.2c-0.6-1.5-0.8-3.2-0.5-5c0.6-3.5,3.2-6.2,6.4-7.5c1.6-0.7,3.4-1,5.2-0.9c0.9,0,3.4,0,4.8,0.6
			c1.6-3.8,5.3-7.1,9.5-7.5c1.9-0.2,3.9,0.4,5.4,1.7c0.9,0.7,3.3,3,3.4,6.2c7.8-3.9,15.7,2.6,18.8,8.8c1.4,3,1.9,6.3,0.9,9.5
			c-1,3.4-4.8,8.7-8.2,9.6c-0.2,0.1,3.3,4,1.1,8.3c-1,2-3.4,3.6-5.5,4.2c-3.2,0.9-5.5-0.6-8.4-1.2c-1.9-0.4-1.6-0.4-2.6,1
			c-1.3,1.9-1.3,3.9-3.6,5.1c-2.9,1.6-7,0.4-9.6-1.3c-3.1-2-5.2-6.2-5.1-9.5c-0.4,0-0.8,0-1.1,0.4c-0.4,0.7-3.3,0.6-4,0.6
			c-1.2-0.1-2.4-0.4-3.3-1c-2-1.3-3.7-3.5-4.5-5.8c-0.6-1.7-0.7-3.7-0.2-5.5c0.6-2.3,2.1-2.8,3.6-4.4c1.3-1.4,1-1.1-0.4-2.8
			C42.8,57.7,42.1,56.5,41.6,55.2z"/>
		<path class="st1" d="M60.8,63.9c0-4.5,2.6-8.9,7-10.4c2.2-0.8,4.4-0.3,6.5,0.9c2.2,1.2,3,3.2,3.1,5.6c0.1,2.8-0.8,5.3-2.7,7.4
			c-1.6,1.8-3.7,2.4-5.9,2.8c-0.8,0.1-1.7,0.1-2.5,0.1C63.6,70.3,60.2,67,60.8,63.9z"/>
	</g>
	<g>
		<path class="st4" d="M75.7,153.7c0,0.3,0,0.6,0,0.9c0,0.1,0,0.1,0,0.2c-0.8,4.3-2.8,8-5.7,11.2c-2.2,2.5-4.9,4.2-7.9,5.4
			c-2.5,1-5.1,1.7-7.8,2.1c-3.9,0.5-7.4-0.4-10.3-3.2c-1.1-1-2.2-2-3.3-3.1c-0.5-0.5-1-0.5-1.5-0.2c-1.6,0.7-3.4,1-5.1,1.3
			c-2.9,0.5-5.5-0.2-7.9-1.7c-3.1-1.9-5.1-4.7-6.2-8.2c-0.4-1.4-0.9-2.8-0.9-4.3c0-1.8,0.5-3.5,1-5.2c0.2-0.5,0.4-1,0.6-1.6
			c0.3-0.7,0-1.1-0.7-1.3c-1.5-0.4-3.1-0.8-4.5-1.6c-0.6-0.3-1-0.8-1.5-1.1c-0.1-0.1-0.1-0.1-0.2-0.2c0,0,0,0,0,0
			c-0.1-0.1-0.1-0.1-0.2-0.2c0,0,0,0,0,0c-0.1-0.1-0.1-0.1-0.2-0.2c0,0,0,0,0,0c-0.1-0.1-0.1-0.1-0.2-0.2c-1.9-1.8-2.8-4.1-3.2-6.6
			c-0.5-3.6-0.3-7.1,2-10c1.9-2.4,4.6-3.9,7.7-4.7c1.3-0.3,2.6-0.6,3.9-0.8c0.8-0.1,0.9-0.4,0.4-1c-1.3-1.7-2-3.7-2.6-5.7
			c-0.7-2.4-1.2-4.8-0.4-7.3c0.4-1.3,1.2-2.4,2.1-3.4c2.5-2.7,5.6-4,9.1-4.5c0.2,0,0.4,0,0.6,0c2.9,0,5.7,0.5,8.3,1.9
			c1.8,1,3.4,2.2,5.1,3.4c0.7,0.5,1,0.4,1.5-0.2c1.3-1.5,2.8-2.8,4.7-3.5c0.1-0.1,0.1-0.1,0.2-0.2c2.1-1.1,4.3-1.6,6.6-1.7
			c3.9-0.1,7.2,1.4,10.2,4c3.7,3.2,5,7.3,4.7,12c-0.1,2-0.5,4-1.8,5.7c-0.4,0.6-0.2,0.8,0.4,1c3.3,1.4,6.5,2.9,9,5.4
			c3.1,3,3,5.3,1.7,8.6c-0.4,1.1-1.3,2.1-2.1,3.1c-1.9,2.2-4.3,3.6-6.7,4.9c-1.4,0.8-1.6,1.1-0.8,2.5c1,2,1.8,4.1,1.9,6.4
			C75.7,152.8,75.7,153.2,75.7,153.7z"/>
		<path class="st0" d="M38.1,137.7c-0.3-2.3,0.7-4.1,2.2-5.7c1-1,2.2-1.5,3.5-1.9c2.2-0.8,4.5-0.6,6.7-0.3c2.1,0.3,4.1,1.3,5.6,3.1
			c0.9,1.1,1.7,2.3,2.1,3.6c0.8,2.2,0.8,4.5-0.7,6.6c-1.1,1.6-2.4,2.9-4.2,3.6c-1.4,0.5-2.8,1.1-4.4,0.4c-0.3-0.2-0.8-0.1-1.2-0.1
			c-2.1,0-4-0.9-5.8-2c-2-1.2-2.9-3.1-3.6-5.1C38,139.2,38.1,138.4,38.1,137.7z"/>
	</g>
	<g>
		<path class="st0" d="M167.5,203.8c1.1-0.5,2.1-1.3,2.8-2.3c1.2-2,1-4,1.3-6.2c2.5,1.2,5.4,2.3,8.1,1.5c1.9-0.6,3.4-2.1,4-4
			c0.4-1.3,0.2-5.2-2.8-7.3c0.4,0.3,2-1,2.2-1.2c0.8-0.6,1.3-1.3,1.8-2.1c1.4-2.6,2-6.2,0.4-8.8c-1.5-2.5-4.4-3.4-7.1-2.6
			c1.1-7-3-9.9-4.8-10.7c-4.4-2-10.5-1.2-13.9,2.4c0,0-0.1,0.1-0.1,0.1c-1.7,1.7-2.8,4.2-2.1,6.6c-2.7-0.6-5.9-1.5-8.4,1.6
			c-0.1,0.2-0.3,0.3-0.4,0.5c-0.1,0.1-0.1,0.2-0.2,0.3c-1.7,3.4,0.6,8.1,3.2,10.6c0.3,0.3,0.1,0.4-0.1,0.4c-2.1,0.8-4.1,2.6-4.2,4.9
			c-0.3,3.6,2.5,7.9,6.3,8.2c1.4,0.1,2.7-0.1,4.5-0.4C157.3,201.6,162.7,205,167.5,203.8z"/>
		<path class="st1" d="M170.2,175.2c2.3,2.5,3.1,6.2,1.5,9.3c-0.8,1.6-2.3,2.4-4,2.8c-1.8,0.5-3.3-0.2-4.6-1.5
			c-1.5-1.5-2.3-3.3-2.3-5.4c0-1.8,0.8-3.2,1.8-4.5c0.4-0.5,0.8-0.9,1.3-1.4C165.4,173.1,168.9,173.2,170.2,175.2z"/>
	</g>
	<g>
		<path class="st2" d="M162.4,43.3c-0.7-1.1-3.3-1.6-2.6-2.3c2.4-3.1,1-8.3-3-9.3c-2.1-0.6-4.1,0-6.1,0.7c-0.4,0-0.4-0.4-0.6-0.6
			c-0.1-0.1-0.2-0.2-0.3-0.4c-5.3-6.2-17.2-0.1-16.4,7.7c0,0.8,0.3,1.6,0.7,2.3c0.9,1.3-3.8,0.7-5,5.3c-1.1,3.7,2.4,7.1,5.7,8.1
			c0.6,0.2,0.6,0.2,0.4,0.8c-2,6.1,6.7,8.3,10.9,5.6c0.5-0.3,0.9-0.5,1.4,0.1c4,4.1,11.6-0.4,9.4-5.9c-0.6-1.1,2.4-0.8,4.1-2.7
			C163.5,50.3,164.9,46.1,162.4,43.3z"/>
		<path class="st1" d="M143.6,41.3c2-1.3,4.8-1.5,6.7,0c1,0.8,1.4,1.9,1.5,3.2c0.1,1.4-0.5,2.3-1.6,3.1c-1.2,0.9-2.6,1.2-4.1,1
			c-1.3-0.2-2.2-0.9-3-1.8c-0.3-0.3-0.6-0.7-0.8-1.1C141.6,44.5,142.1,42,143.6,41.3z"/>
	</g>
	<g>
		<path class="st3" d="M35.3,202.6c-0.4-1-0.5-2-0.3-3.2c0.4-2.2,2-3.9,4.1-4.8c1-0.4,2.2-0.6,3.3-0.6c0.6,0,2.2,0,3.1,0.4
			c1-2.4,3.4-4.5,6.1-4.7c1.2-0.1,2.5,0.2,3.4,1.1c0.6,0.5,2.1,1.9,2.2,4c4.9-2.5,10,1.6,11.9,5.6c0.9,1.9,1.2,4,0.6,6
			c-0.6,2.2-3.1,5.5-5.2,6.1c-0.1,0,2.1,2.5,0.7,5.3c-0.6,1.3-2.1,2.3-3.5,2.6c-2.1,0.6-3.5-0.4-5.3-0.8c-1.2-0.2-1-0.3-1.7,0.7
			c-0.8,1.2-0.8,2.4-2.3,3.2c-1.9,1-4.4,0.3-6.1-0.8c-2-1.3-3.3-4-3.2-6c-0.3,0-0.5,0-0.7,0.3c-0.3,0.4-2.1,0.4-2.5,0.3
			c-0.8-0.1-1.5-0.2-2.1-0.6c-1.3-0.8-2.4-2.2-2.9-3.7c-0.4-1.1-0.4-2.3-0.1-3.5c0.4-1.5,1.3-1.7,2.3-2.8c0.8-0.9,0.6-0.7-0.2-1.8
			C36.2,204.2,35.7,203.5,35.3,202.6z"/>
		<path class="st1" d="M47.6,208.2c0-2.8,1.7-5.7,4.4-6.6c1.4-0.5,2.8-0.2,4.1,0.6c1.4,0.8,1.9,2,2,3.6c0.1,1.8-0.5,3.3-1.7,4.7
			c-1,1.1-2.3,1.5-3.7,1.8c-0.5,0.1-1.1,0.1-1.6,0.1C49.3,212.3,47.2,210.2,47.6,208.2z"/>
	</g>
	<g>
		<path class="st4" d="M183.8,256.5c0,0.2,0,0.4,0,0.6c0,0,0,0.1,0,0.1c-0.5,2.8-1.8,5.1-3.6,7.2c-1.4,1.6-3.1,2.7-5.1,3.5
			c-1.6,0.6-3.3,1.1-5,1.3c-2.5,0.3-4.7-0.3-6.6-2.1c-0.7-0.7-1.4-1.3-2.1-2c-0.3-0.3-0.6-0.3-1-0.1c-1,0.5-2.2,0.7-3.3,0.9
			c-1.8,0.3-3.5-0.2-5-1.1c-2-1.2-3.3-3-4-5.2c-0.3-0.9-0.6-1.8-0.6-2.7c0-1.1,0.3-2.2,0.7-3.3c0.1-0.3,0.2-0.7,0.4-1
			c0.2-0.5,0-0.7-0.5-0.8c-1-0.3-2-0.5-2.9-1c-0.4-0.2-0.6-0.5-0.9-0.7c0,0-0.1-0.1-0.1-0.1c0,0,0,0,0,0c0,0-0.1-0.1-0.1-0.1
			c0,0,0,0,0,0c0,0-0.1-0.1-0.1-0.1c0,0,0,0,0,0c0,0-0.1-0.1-0.1-0.1c-1.2-1.2-1.8-2.6-2-4.2c-0.3-2.3-0.2-4.5,1.3-6.4
			c1.2-1.6,3-2.5,4.9-3c0.8-0.2,1.7-0.4,2.5-0.5c0.5-0.1,0.6-0.3,0.3-0.6c-0.8-1.1-1.3-2.3-1.7-3.6c-0.4-1.5-0.8-3.1-0.3-4.7
			c0.3-0.8,0.8-1.5,1.4-2.2c1.6-1.7,3.6-2.5,5.8-2.9c0.1,0,0.3,0,0.4,0c1.9,0,3.6,0.3,5.3,1.2c1.1,0.6,2.2,1.4,3.3,2.2
			c0.4,0.3,0.6,0.3,1-0.1c0.8-1,1.8-1.8,3-2.2c0,0,0.1-0.1,0.1-0.1c1.3-0.7,2.8-1,4.3-1.1c2.5-0.1,4.6,0.9,6.5,2.5
			c2.4,2.1,3.2,4.7,3,7.7c-0.1,1.3-0.3,2.6-1.1,3.7c-0.3,0.4-0.1,0.5,0.2,0.6c2.1,0.9,4.1,1.9,5.8,3.5c2,1.9,1.9,3.4,1.1,5.5
			c-0.3,0.7-0.8,1.4-1.3,2c-1.2,1.4-2.7,2.3-4.3,3.2c-0.9,0.5-1,0.7-0.5,1.6c0.7,1.3,1.2,2.6,1.2,4.1
			C183.8,255.9,183.8,256.2,183.8,256.5z"/>
		<path class="st0" d="M159.7,246.2c-0.2-1.5,0.4-2.6,1.4-3.6c0.6-0.6,1.4-0.9,2.2-1.2c1.4-0.5,2.9-0.4,4.3-0.2
			c1.4,0.2,2.6,0.8,3.6,2c0.6,0.7,1.1,1.5,1.4,2.3c0.5,1.4,0.5,2.9-0.4,4.2c-0.7,1-1.5,1.9-2.7,2.3c-0.9,0.3-1.8,0.7-2.8,0.2
			c-0.2-0.1-0.5,0-0.8,0c-1.4,0-2.5-0.6-3.7-1.3c-1.3-0.8-1.9-2-2.3-3.3C159.7,247.2,159.8,246.7,159.7,246.2z"/>
	</g>
	<g>
		<path class="st3" d="M257.2,142c-0.5-2.3-1.7-4.3-3.4-5.9c-3.3-2.9-7.1-3-11-4.2c3-4.3,5.9-9.3,5.2-14.5c-0.5-3.6-2.9-6.9-6.2-8.6
			c-2.3-1.2-9.4-1.9-14.2,3c0.6-0.6-1.3-3.9-1.6-4.4c-0.8-1.6-2-2.8-3.4-3.9c-4.3-3.4-10.8-5.4-16.1-3.3c-5,2-7.6,7.1-6.9,12.3
			c-12.5-4.1-19.2,2.6-21.2,5.7c-4.9,7.6-5.4,19,0.4,26.3c0.1,0.1,0.1,0.1,0.2,0.2c2.6,3.6,7,6.3,11.6,5.9c-1.9,4.9-4.5,10.4,0.5,16
			c0.3,0.3,0.6,0.6,0.9,0.8c0.2,0.2,0.4,0.3,0.6,0.4c5.8,4.2,15.1,1.3,20.4-2.7c0.5-0.5,0.7-0.1,0.7,0.4c0.9,4.1,3.6,8.3,7.8,9.3
			c6.6,1.6,15.2-2.2,17-9.2c0.7-2.6,0.6-5.1,0.5-8.5C250.1,160.2,257.9,151.3,257.2,142z"/>
		<path class="st1" d="M205.1,128.7c5.2-3.4,12.4-3.9,17.5,0c2.6,2,3.8,4.9,4,8.2c0.3,3.5-1.4,6-4.1,8c-3.2,2.3-6.7,3.2-10.6,2.7
			c-3.3-0.4-5.6-2.4-7.8-4.6c-0.8-0.8-1.4-1.8-2.1-2.8C199.9,136.9,201.2,130.4,205.1,128.7z"/>
	</g>
	<g>
		<path class="st4" d="M230.5,53.2c-1.2-2-6.1-2.9-4.8-4.2c4.3-5.8,1.8-15.2-5.5-17.1c-3.8-1-7.6,0-11.1,1.3c-0.7,0-0.7-0.8-1.1-1.2
			c-0.2-0.2-0.4-0.4-0.6-0.7c-9.7-11.3-31.4-0.3-30,14.1c0,1.5,0.5,3,1.2,4.3c1.6,2.4-7,1.3-9.1,9.7c-2,6.8,4.4,13,10.5,14.9
			c1.1,0.3,1.1,0.4,0.8,1.5C177,87,193,90.9,200.7,86.1c0.9-0.5,1.6-0.8,2.6,0.1c7.4,7.5,21.2-0.8,17.3-10.9c-1.1-2,4.4-1.4,7.5-5
			C232.6,66.1,235.2,58.3,230.5,53.2z"/>
		<path class="st0" d="M196.2,49.7c3.7-2.4,8.7-2.8,12.3,0c1.8,1.4,2.6,3.5,2.8,5.8c0.2,2.5-1,4.2-2.9,5.6c-2.2,1.6-4.7,2.3-7.5,1.9
			c-2.3-0.3-4-1.7-5.5-3.3c-0.6-0.6-1-1.3-1.5-2C192.5,55.4,193.4,50.9,196.2,49.7z"/>
	</g>
	<g>
		<path class="st0" d="M73.8,237.8c-0.6-1.5-0.8-3.2-0.5-5c0.6-3.5,3.2-6.2,6.4-7.5c1.6-0.7,3.4-1,5.2-0.9c0.9,0,3.4,0,4.8,0.6
			c1.6-3.8,5.3-7.1,9.5-7.5c1.9-0.2,3.9,0.4,5.4,1.7c0.9,0.7,3.3,3,3.4,6.2c7.8-3.9,15.7,2.6,18.8,8.8c1.4,3,1.9,6.3,0.9,9.5
			c-1,3.4-4.8,8.7-8.2,9.6c-0.2,0.1,3.3,4,1.1,8.3c-1,2-3.4,3.6-5.5,4.2c-3.2,0.9-5.5-0.6-8.4-1.2c-1.9-0.4-1.6-0.4-2.6,1
			c-1.3,1.9-1.3,3.9-3.6,5.1c-2.9,1.6-7,0.4-9.6-1.3c-3.1-2-5.2-6.2-5.1-9.5c-0.4,0-0.8,0-1.1,0.4c-0.4,0.7-3.3,0.6-4,0.6
			c-1.2-0.1-2.4-0.4-3.3-1c-2-1.3-3.7-3.5-4.5-5.8c-0.6-1.7-0.7-3.7-0.2-5.5c0.6-2.3,2.1-2.8,3.6-4.4c1.3-1.4,1-1.1-0.4-2.8
			C75.1,240.3,74.3,239.1,73.8,237.8z"/>
		<path class="st1" d="M93,246.6c0-4.5,2.6-8.9,7-10.4c2.2-0.8,4.4-0.3,6.5,0.9c2.2,1.2,3,3.2,3.1,5.6c0.1,2.8-0.8,5.3-2.7,7.4
			c-1.6,1.8-3.7,2.4-5.9,2.8c-0.8,0.1-1.7,0.1-2.5,0.1C95.8,253,92.5,249.6,93,246.6z"/>
	</g>
	<g>
		<path class="st2" d="M254.8,236.8c0,0.3,0,0.6,0,0.9c0,0.1,0,0.1,0,0.2c-0.8,4.3-2.8,8-5.7,11.2c-2.2,2.5-4.9,4.2-7.9,5.4
			c-2.5,1-5.1,1.7-7.8,2.1c-3.9,0.5-7.4-0.4-10.3-3.2c-1.1-1-2.2-2-3.3-3.1c-0.5-0.5-1-0.5-1.5-0.2c-1.6,0.7-3.4,1-5.1,1.3
			c-2.9,0.5-5.5-0.2-7.9-1.7c-3.1-1.9-5.1-4.7-6.2-8.2c-0.4-1.4-0.9-2.8-0.9-4.3c0-1.8,0.5-3.5,1-5.2c0.2-0.5,0.4-1,0.6-1.6
			c0.3-0.7,0-1.1-0.7-1.3c-1.5-0.4-3.1-0.8-4.5-1.6c-0.6-0.3-1-0.8-1.5-1.1c-0.1-0.1-0.1-0.1-0.2-0.2c0,0,0,0,0,0
			c-0.1-0.1-0.1-0.1-0.2-0.2c0,0,0,0,0,0c-0.1-0.1-0.1-0.1-0.2-0.2c0,0,0,0,0,0c-0.1-0.1-0.1-0.1-0.2-0.2c-1.9-1.8-2.8-4.1-3.2-6.6
			c-0.5-3.6-0.3-7.1,2-10c1.9-2.4,4.6-3.9,7.7-4.7c1.3-0.3,2.6-0.6,3.9-0.8c0.8-0.1,0.9-0.4,0.4-1c-1.3-1.7-2-3.7-2.6-5.7
			c-0.7-2.4-1.2-4.8-0.4-7.3c0.4-1.3,1.2-2.4,2.1-3.4c2.5-2.7,5.6-4,9.1-4.5c0.2,0,0.4,0,0.6,0c2.9,0,5.7,0.5,8.3,1.9
			c1.8,1,3.4,2.2,5.1,3.4c0.7,0.5,1,0.4,1.5-0.2c1.3-1.5,2.8-2.8,4.7-3.5c0.1-0.1,0.1-0.1,0.2-0.2c2.1-1.1,4.3-1.6,6.6-1.7
			c3.9-0.1,7.2,1.4,10.2,4c3.7,3.2,5,7.3,4.7,12c-0.1,2-0.5,4-1.8,5.7c-0.4,0.6-0.2,0.8,0.4,1c3.3,1.4,6.5,2.9,9,5.4
			c3.1,3,3,5.3,1.7,8.6c-0.4,1.1-1.3,2.1-2.1,3.1c-1.9,2.2-4.3,3.6-6.7,4.9c-1.4,0.8-1.6,1.1-0.8,2.5c1,2,1.8,4.1,1.9,6.4
			C254.8,235.9,254.8,236.4,254.8,236.8z"/>
		<path class="st1" d="M217.2,220.8c-0.3-2.3,0.7-4.1,2.2-5.7c1-1,2.2-1.5,3.5-1.9c2.2-0.8,4.5-0.6,6.7-0.3c2.1,0.3,4.1,1.3,5.6,3.1
			c0.9,1.1,1.7,2.3,2.1,3.6c0.8,2.2,0.8,4.5-0.7,6.6c-1.1,1.6-2.4,2.9-4.2,3.6c-1.4,0.5-2.8,1.1-4.4,0.4c-0.3-0.2-0.8-0.1-1.2-0.1
			c-2.1,0-4-0.9-5.8-2c-2-1.2-2.9-3.1-3.6-5.1C217.1,222.4,217.2,221.6,217.2,220.8z"/>
	</g>
	<g>
		<path class="st0" d="M234.6,92.4c0.6,1,1.5,1.9,2.6,2.4c2.1,0.9,4,0.4,6.1,0.4c-0.9,2.6-1.5,5.5-0.4,8c0.8,1.7,2.5,3,4.4,3.3
			c1.3,0.2,5-0.5,6.6-3.6c-0.2,0.4,1.2,1.8,1.4,2c0.7,0.7,1.4,1.1,2.3,1.4c2.7,1.1,6.2,1.1,8.5-0.8c2.2-1.8,2.7-4.7,1.6-7.2
			c6.8,0.2,9.1-4.2,9.7-6.1c1.3-4.5-0.2-10.3-4.2-13c0,0-0.1-0.1-0.1-0.1c-1.8-1.4-4.4-2.1-6.7-1.2c0.2-2.7,0.6-5.9-2.7-7.9
			c-0.2-0.1-0.4-0.2-0.6-0.3c-0.1-0.1-0.2-0.1-0.4-0.1c-3.5-1.2-7.7,1.7-9.7,4.4c-0.2,0.3-0.3,0.2-0.4-0.1c-1.1-1.9-3-3.6-5.3-3.4
			c-3.5,0.2-7.2,3.4-7.1,7.1c0.1,1.4,0.5,2.6,1,4.3C235.4,82.2,232.8,87.8,234.6,92.4z"/>
		<path class="st1" d="M262.5,91.1c-2.1,2.5-5.6,3.8-8.7,2.6c-1.6-0.6-2.6-1.9-3.3-3.5c-0.7-1.7-0.2-3.2,0.8-4.6
			c1.2-1.6,2.8-2.6,4.9-2.9c1.7-0.3,3.2,0.3,4.6,1.1c0.5,0.3,1,0.7,1.5,1.1C263.9,86.2,264.2,89.7,262.5,91.1z"/>
	</g>
	<g>
		<path class="st4" d="M288.4,185.1c0,0.2,0,0.3,0,0.5c0,0,0,0.1,0,0.1c-0.4,2.4-1.6,4.4-3.1,6.2c-1.2,1.4-2.7,2.3-4.4,3
			c-1.4,0.6-2.8,1-4.3,1.1c-2.1,0.3-4.1-0.2-5.7-1.8c-0.6-0.6-1.2-1.1-1.8-1.7c-0.3-0.3-0.5-0.3-0.8-0.1c-0.9,0.4-1.9,0.6-2.8,0.7
			c-1.6,0.3-3-0.1-4.3-1c-1.7-1.1-2.8-2.6-3.4-4.5c-0.2-0.8-0.5-1.5-0.5-2.4c0-1,0.3-1.9,0.6-2.9c0.1-0.3,0.2-0.6,0.3-0.9
			c0.1-0.4,0-0.6-0.4-0.7c-0.8-0.2-1.7-0.4-2.5-0.9c-0.3-0.2-0.5-0.4-0.8-0.6c0,0-0.1-0.1-0.1-0.1c0,0,0,0,0,0c0,0-0.1-0.1-0.1-0.1
			c0,0,0,0,0,0c0,0-0.1-0.1-0.1-0.1c0,0,0,0,0,0c0,0-0.1-0.1-0.1-0.1c-1-1-1.6-2.3-1.8-3.7c-0.3-2-0.2-3.9,1.1-5.5
			c1.1-1.4,2.6-2.2,4.2-2.6c0.7-0.2,1.4-0.3,2.2-0.4c0.4-0.1,0.5-0.2,0.2-0.6c-0.7-0.9-1.1-2-1.4-3.1c-0.4-1.3-0.7-2.6-0.2-4
			c0.2-0.7,0.7-1.3,1.2-1.9c1.4-1.5,3.1-2.2,5-2.5c0.1,0,0.2,0,0.3,0c1.6,0,3.2,0.3,4.6,1.1c1,0.6,1.9,1.2,2.8,1.9
			c0.4,0.3,0.5,0.2,0.8-0.1c0.7-0.8,1.6-1.5,2.6-1.9c0,0,0.1-0.1,0.1-0.1c1.2-0.6,2.4-0.9,3.7-0.9c2.2-0.1,4,0.8,5.6,2.2
			c2,1.8,2.7,4.1,2.6,6.7c-0.1,1.1-0.3,2.2-1,3.2c-0.2,0.3-0.1,0.4,0.2,0.6c1.8,0.8,3.6,1.6,5,3c1.7,1.7,1.6,2.9,0.9,4.8
			c-0.2,0.6-0.7,1.2-1.2,1.7c-1,1.2-2.4,2-3.7,2.7c-0.8,0.4-0.9,0.6-0.5,1.4c0.6,1.1,1,2.3,1,3.5
			C288.4,184.6,288.4,184.8,288.4,185.1z"/>
		<path class="st0" d="M267.6,176.3c-0.1-1.3,0.4-2.3,1.2-3.1c0.5-0.5,1.2-0.8,1.9-1.1c1.2-0.4,2.5-0.3,3.7-0.2
			c1.2,0.2,2.3,0.7,3.1,1.7c0.5,0.6,0.9,1.3,1.2,2c0.4,1.2,0.4,2.5-0.4,3.6c-0.6,0.9-1.3,1.6-2.3,2c-0.8,0.3-1.6,0.6-2.4,0.2
			c-0.2-0.1-0.5,0-0.7,0c-1.2,0-2.2-0.5-3.2-1.1c-1.1-0.7-1.6-1.7-2-2.8C267.5,177.1,267.6,176.7,267.6,176.3z"/>
	</g>
</g>
</svg>
