<?xml version="1.0" encoding="utf-8"?>
<!-- Generator: Adobe Illustrator 28.0.0, SVG Export Plug-In . SVG Version: 6.00 Build 0)  -->
<svg version="1.1" id="Layer_1" xmlns="http://www.w3.org/2000/svg" xmlns:xlink="http://www.w3.org/1999/xlink" x="0px" y="0px"
	 viewBox="0 0 300 300" style="enable-background:new 0 0 300 300;" xml:space="preserve">
<style type="text/css">
	.st0{fill:#F5C2CB;}
	.st1{fill:#EBA5A6;}
	.st2{fill:#62735F;}
</style>
<g>
	<path class="st0" d="M112.67,109.64c5.52,5.99,12.42,8.35,20.39,8.1c0.36-0.01,0.8-0.07,1.06-0.28c1.97-1.64,3.67-3.46,3.95-6.2
		c0.57-5.48,0.3-10.87-1.5-16.14c-0.91-2.68-1.87-5.31-3.91-7.37c-3.96-4.01-8.53-7.2-13.56-9.69c-1.86-0.92-3.94-1.38-6.21-2.15
		c0.01,0.94-0.01,1.47,0.04,1.99c0.16,1.68,0.45,3.36,0.49,5.05c0.02,0.83-0.12,1.9-0.63,2.46c-0.72,0.79-1.71,0.1-2.49-0.33
		c-1.57-0.84-3.08-1.77-4.65-2.61c-2.24-1.19-2.5-1.06-3.12,1.38c-1.09,4.3,0,8.41,1.41,12.38
		C105.78,101.36,109,105.65,112.67,109.64z"/>
	<path class="st1" d="M140.31,141.76c-0.39-0.33-0.8-0.65-1.23-0.96c-0.47-0.34-0.97-0.66-1.53-0.79c-2.29-0.53-4.16,2.71-5.07,4.31
		c-0.58,1.02-1.41,3.38-2.93,3.19c-1.14-0.15-1.86-1.43-2.65-2.12c-1.12-0.98-2.5-1.76-3.81-2.47c-4.17-2.24-5.37,6.54-5.68,8.84
		c-0.81,6.06,0.02,11.27,3.46,16.54c0.83,1.28,1.78,2.48,2.81,3.61c3.02,3.31,6.52,5.71,11.05,6.36c0.45,0.06,0.95,0.14,1.37,0.02
		c6.81-2,9.31-9.49,10.66-15.72C148.38,155.15,146.24,146.79,140.31,141.76z"/>
	<g>
		<path class="st0" d="M60.6,105.67c0.51,1.45,1,2.9,1.5,4.35c0.1-0.03,0.2-0.06,0.3-0.09c-0.24-2.01,0.48-4.12-0.99-6.03
			c-0.35-0.45-0.09-1.57,0.22-2.23c0.12-0.26,1.4-0.37,1.7-0.07c0.52,0.51,1.11,1.56,0.9,2.06c-0.55,1.32-0.29,2.59-0.3,3.88
			c0,1.03,0,2.06,0,3.23c1.27-1.6,2.4-2.96,3.45-4.37c0.23-0.3,0.27-0.81,0.26-1.21c-0.03-1.07,0.58-2.08,1.4-2.2
			c1.08-0.16,1.96,0.52,2.22,1.7c0.21,0.98-0.33,1.82-1.39,2.17c-2.19,0.72-3.01,2.67-3.94,4.55c0.16-0.1,0.33-0.18,0.47-0.3
			c3.99-3.6,8.57-6.17,13.66-7.86c0.28-0.09,0.61-0.35,0.7-0.6c0.51-1.43,1.1-2.85,1.4-4.33c0.89-4.27,0.59-8.57,0.01-12.84
			c-0.4-2.98-0.88-5.99-2.61-8.59c-1.69-2.54-2.3-2.73-4.63-0.87c-1.9,1.52-3.08,1.01-4.52-0.11c-2.51-1.95-4.25-2.05-6.62,0.08
			c-2.17,1.95-4.17,4.13-6.03,6.38c-2.17,2.63-3.5,5.71-3.74,9.15c-0.06,0.84,0.1,1.91,0.59,2.54
			C57.33,97.56,59.14,101.52,60.6,105.67z"/>
		<path class="st0" d="M69.76,120.05c-0.86-0.48-1.76-0.88-2.49-1.24c1.04,1.42,2.12,2.92,3.24,4.37c0.18,0.24,0.69,0.21,0.91,0.44
			c0.41,0.42,0.99,0.92,1.03,1.42c0.08,0.84-1.11,1.49-2.17,1.29c-0.95-0.18-1.51-0.67-1.53-1.77c-0.01-0.72-0.13-1.57-0.53-2.13
			c-0.78-1.09-1.79-2.01-2.7-3c-0.1,0.07-0.19,0.15-0.29,0.22c0.2,2.1,0.45,4.21,0.55,6.32c0.02,0.5-0.45,1.41-0.76,1.45
			c-0.64,0.06-1.54-0.17-1.91-0.62c-0.3-0.36-0.07-1.26,0.09-1.87c0.09-0.34,0.74-0.57,0.76-0.88c0.13-2.14,0.01-4.24-1.27-6.1
			c-2.26,1.91-3.07,4.53-4.14,6.97c-2.57,5.84-4.85,11.74-4.46,18.35c0.26,4.29,1.64,8.09,4.31,11.39c1.69,2.08,3.78,3.69,6.52,4.26
			c1.85,0.38,3.37-0.13,4.54-1.56c0.77-0.94,1.62-1.22,2.72-0.72c0.52,0.24,1.06,0.46,1.56,0.76c3,1.81,8.42,0.79,10.09-2.47
			c0.6-1.17,1.23-2.34,1.65-3.58c1.12-3.33,1.43-6.78,1.18-10.28c-0.22-3.07-1.17-5.95-2.87-8.48
			C80.17,127.25,75.35,123.19,69.76,120.05z"/>
		<path class="st0" d="M66.21,113.41c1.49-0.56,2.69-1.08,3.94-1.46c0.83-0.25,1.58-0.4,2.09-1.27c0.51-0.88,1.46-1.14,2.38-0.6
			c0.8,0.47,0.79,1.3,0.49,2.09c-0.4,1.04-1.34,1.65-2.2,1.39c-2.72-0.83-4.64,0.95-6.81,2c3.03-0.08,5.69,1.85,8.75,1.38
			c0.36-0.06,1.15,0.6,1.18,0.97c0.04,0.55-0.29,1.3-0.72,1.65c-0.31,0.25-1.23,0.2-1.54-0.09c-1.37-1.27-3.13-1.29-4.78-1.7
			c0.12,0.1,0.23,0.22,0.37,0.29c5.8,3.01,10.9,6.85,14.79,12.19c0.26,0.36,0.78,0.73,1.2,0.75c1.64,0.1,3.29,0.18,4.92,0.06
			c5.33-0.39,9.99-2.45,14.04-5.88c1.78-1.51,1.92-2.42,0.96-4.58c-0.18-0.41-0.57-0.77-0.64-1.19c-0.13-0.78-0.32-1.67-0.07-2.36
			c0.28-0.77,1.11-1.32,1.52-2.06c0.42-0.75,0.87-1.63,0.86-2.45c-0.02-1.62-0.79-3-2.06-4.08c-2.71-2.3-5.84-3.8-9.29-4.45
			c-7.14-1.33-13.95-0.25-20.44,3.07C71.94,108.73,69.01,110.72,66.21,113.41z"/>
		<path class="st0" d="M36.91,115.09c1.7-0.64,3.44-1.17,5.21-1.59c5.65-1.32,11.31-2.06,16.95,0.1c0.13,0.05,0.3,0.02,0.5,0.03
			c-1.15-1.57-3.6-3.04-5.41-3.48c-0.45-0.11-1.1-0.84-1.06-1.21c0.07-0.59,0.54-1.31,1.05-1.61c0.32-0.18,1.43,0.21,1.5,0.52
			c0.3,1.18,1.29,1.51,2.07,2.13c1.26,0.99,2.49,2.01,3.66,2.95c-0.79-2.26-1.63-4.71-2.5-7.15c-1.49-4.18-3.42-8.11-6.39-11.48
			c-2.27-2.56-5.04-4.23-8.33-5.09c-4.32-1.13-8.67-1.87-13.06-0.38c-3.23,1.09-3.93,2.24-3.63,5.54c0.1,1.09-0.23,1.97-1.19,2.53
			c-0.82,0.48-1.67,0.91-2.52,1.33c-1.54,0.75-2.2,1.98-1.82,3.65c0.18,0.75,0.43,1.55,0.86,2.17c1.47,2.09,2.89,4.24,4.6,6.12
			c1.82,2.02,3.95,3.76,6.52,4.84C34.93,115.45,35.85,115.49,36.91,115.09z"/>
		<path class="st0" d="M56.73,124.92c0.91-2.4,2.17-4.68,3.28-7.01c-0.78,0.42-1.78,0.83-2.6,1.46c-0.68,0.52-1.13,1.35-1.74,1.97
			c-0.44,0.45-1.01,1.15-1.48,1.11c-0.5-0.04-1.28-0.76-1.34-1.25c-0.06-0.5,0.55-1.15,0.99-1.6c0.24-0.25,0.83-0.12,1.16-0.33
			c1.61-1.03,3.19-2.12,4.79-3.2c-2.08-0.64-4.02,0.24-5.89,1.11c-0.8,0.37-1.48,0.72-2.1,0.08c-0.31-0.32-0.45-1.11-0.28-1.53
			c0.36-0.84,1.15-1.04,2.09-0.91c0.79,0.11,1.61,0.02,2.42,0.02c0.02-0.14,0.03-0.28,0.05-0.41c-0.6-0.13-1.2-0.29-1.81-0.39
			c-0.4-0.07-0.82-0.08-1.23-0.1c-6.87-0.19-13.35,1.41-19.49,4.42c-7.16,3.52-11.13,9.4-12.39,17.16
			c-0.36,2.21-0.22,4.45,0.87,6.54c0.18-0.03,0.34-0.04,0.49-0.08c3.74-0.94,4.24-0.54,4.28,3.33c0.03,2.61,0.34,2.93,2.98,3.07
			c0.17,0.01,0.33,0,0.5,0c6.42-0.03,12.27-1.92,17.59-5.48c2.34-1.56,4.4-3.52,4.89-6.31C53.48,132.48,55.26,128.76,56.73,124.92z"
			/>
	</g>
	<g>
		<path class="st0" d="M225.06,93.51c-4.95,5.9-7.87,12.6-7.78,20.45c0.01,1.08,0.37,1.46,1.43,1.4c2.02-0.12,4.04-0.23,6.06-0.21
			c0.6,0.01,1.19,0.46,1.79,0.71c-0.33,0.55-0.55,1.25-1.03,1.63c-1.01,0.82-2.16,1.47-3.43,2.3c0.78,0.12,1.3,0.2,1.83,0.27
			c1.79,0.25,3.65,0.9,5.37,0.65c3.28-0.47,6.57-1.21,9.7-2.3c3.06-1.06,5.98-2.59,8.86-4.12c3.42-1.82,5.54-4.89,7.13-8.31
			c0.81-1.74,1.41-3.59,2.04-5.41c0.4-1.16-0.27-1.76-1.31-2.1c-1.3-0.42-2.59-0.84-3.87-1.31c-1.57-0.58-2.48-1.64-2.59-3.41
			c-0.11-1.81-0.3-3.63-0.63-5.4c-0.35-1.88-1.42-3.15-3.46-3.56c-4.16-0.82-8.05,0.04-11.8,1.78
			C230,88.14,227.4,90.71,225.06,93.51z"/>
		<path class="st0" d="M255.05,109.34c-0.65,1.05-1.34,2.09-2.17,3c-2.83,3.1-6.43,5.06-10.28,6.51c-3.16,1.19-6.43,2.08-9.64,3.14
			c-0.32,0.11-0.56,0.47-0.83,0.72c0.25,0.23,0.45,0.57,0.74,0.68c2.43,0.92,4.88,1.8,7.36,2.7c4.53,0.93,9.14,1.4,13.77,0.76
			c2.9-0.4,5.58-1.55,7.8-3.54c0.6-0.54,1.04-1.26,1.49-1.95c0.39-0.59,0.31-1.1-0.34-1.58c-0.86-0.63-1.63-1.39-2.44-2.11
			c-0.92-0.82-1.2-1.78-0.88-3.01c0.25-0.99,0.39-2.04,0.37-3.06c-0.03-2.02-0.63-2.58-2.62-2.79c-0.29-0.03-0.59-0.05-0.85-0.15
			C255.77,108.37,255.43,108.72,255.05,109.34z"/>
		<path class="st0" d="M215.51,100.74c-0.55,2.81-1.31,5.58-2.02,8.57c2.09-1.1,3.08-2.62,3.57-4.54c0.24-0.95,0.67-1.86,1.03-2.78
			c2.42-6.15,6.23-11.29,11.61-15.11c2.18-1.55,4.79-2.52,7.38-3.84c-0.03-0.17-0.02-0.68-0.2-1.12c-0.77-2-1.61-3.94-3.11-5.58
			c-2.54-2.79-3.24-3.1-6.75-1.88c-1.69,0.59-3.08,0.25-4.3-0.97c-0.41-0.41-0.77-0.87-1.16-1.29c-1.75-1.84-3.63-1.82-5.32,0.08
			c-2.39,2.69-3.39,5.98-3.66,9.42c-0.34,4.27,0.75,8.35,2.47,12.26C216.02,96.16,215.96,98.47,215.51,100.74z"/>
	</g>
	<g>
		<path class="st0" d="M124.7,220.24c-0.89-2.28-2.91-2.65-4.78-3.36c-0.12-0.04-0.24-0.07-0.35-0.11
			c-5.85-2.12-10.8-5.46-14.42-10.62c-1.37-1.96-2.19-4.11-2.49-6.57c-1.03,1.27-1.38,1.97-1.07,3.28c0.53,2.28,0.9,4.69,1.96,6.72
			c3.38,6.46,8.5,11.19,15.24,14.09c0.26,0.11,0.55,0.24,0.82,0.24c0.99,0,1.99-0.06,2.98-0.1c1.54-0.06,3.08-0.13,4.55-0.19
			C126.25,222.41,125.17,221.44,124.7,220.24z"/>
		<path class="st0" d="M110.01,209.17c4.22,4.07,9.51,6.2,15.04,7.75c1.48,0.41,3.05,0.49,4.87,0.77c-0.61-1.6-1.19-2.83-1.53-4.12
			c-0.16-0.62,0.13-1.36,0.22-2.04c0.65,0.1,1.38,0.06,1.94,0.34c1.09,0.56,2.07,1.31,3.1,1.98c0.08-0.07,0.15-0.15,0.23-0.22
			c-0.43-1.59-1.09-3.15-1.24-4.77c-0.2-2.03-1.36-3.36-2.77-4.46c-2.21-1.72-4.51-3.35-6.9-4.82c-4.16-2.56-8.53-4.44-13.58-4.52
			c-2.19-0.04-3.67,0.24-4.41,2.6c-0.4,1.28-0.64,2.4-0.28,3.71C105.6,204.58,107.72,206.96,110.01,209.17z"/>
	</g>
	<g>
		<path class="st1" d="M221.57,213.37c-2.05-0.43-4.19-0.45-6.3-0.65c0.66,0.92,1.36,1.62,2.16,2.18c1.38,0.97,2.58,2.29,4.6,1.97
			c0.77-0.12,1.5,0.45,1.52,1.45c0.02,0.96-0.45,1.63-1.35,1.83c-0.91,0.2-1.61-0.16-1.89-1.15c-0.06-0.21-0.17-0.47-0.34-0.59
			c-1.6-1.06-3.22-2.09-4.87-3.15c0.09,0.29,0.17,0.6,0.28,0.89c2.66,7.08,4.45,14.36,4.96,21.92c0.13,1.98,0.33,3.87,2.08,5.17
			c0.43,0.32,0.82,0.69,1.25,1.02c4.38,3.31,9.03,6.17,14.37,7.59c3.17,0.84,6.44,1.39,9.7,1.85c1.46,0.21,1.71-0.33,1.48-1.79
			c-0.17-1.06-0.34-2.12-0.38-3.19c-0.05-1.32,0.42-1.77,1.74-1.49c1.43,0.31,2.82,0.84,4.67,1.41c0.23-1.85,0.63-3.63,0.64-5.41
			c0.03-6.44-1.82-12.32-5.67-17.5c-2.93-3.95-6.6-7.06-11.4-8.35C233.12,215.84,227.34,214.59,221.57,213.37z"/>
		<path class="st1" d="M259.55,196.48c-0.88-0.34-1.81-0.57-2.74-0.77c-1.61-0.34-1.95-0.64-2-2.26c-0.04-1.15,0.07-2.31,0.06-3.47
			c-0.02-2.05-0.74-3.23-2.69-3.81c-1.68-0.5-3.45-0.84-5.2-0.96c-9.29-0.64-16.85,2.96-23.01,9.71c-3.37,3.69-5.93,7.93-7.9,12.53
			c-0.1,0.22-0.14,0.47-0.16,0.5c1.4-0.86,2.83-1.83,4.34-2.64c0.74-0.4,1.41-0.63,1.6-1.63c0.18-0.93,0.97-1.31,1.92-1.08
			c0.85,0.2,1.56,1.43,1.41,2.38c-0.15,0.91-0.74,1.54-1.61,1.34c-1.54-0.35-2.75,0.4-3.94,1.03c-0.99,0.52-1.8,1.37-2.95,2.26
			c2.11-0.09,3.61-0.65,5.06-1.54c0.43-0.26,1.42-0.08,1.85,0.28c0.37,0.31,0.59,1.33,0.35,1.7c-0.34,0.52-1.12,0.84-1.78,1.04
			c-0.37,0.11-0.87-0.26-1.31-0.26c-1.06,0.01-2.11,0.12-3.35,0.19c4.78,0.91,9.32,1.64,13.8,2.67c4.29,0.99,8.71,1.67,12.58,4.01
			c0.25,0.15,0.76,0.1,1.04-0.05c1.59-0.86,3.25-1.65,4.69-2.72c3.8-2.82,6.67-6.54,9.32-10.39c1.03-1.49,1.64-3.33,2.18-5.08
			C261.61,197.84,261.11,197.07,259.55,196.48z"/>
		<path class="st1" d="M214.14,217.32c-0.11-0.31-0.26-0.61-0.39-0.92c0.06,2.4-1.48,4.61-0.63,7.05c0.29,0.84-0.07,1.9-1.11,2.02
			c-0.65,0.08-1.74-0.26-1.98-0.74c-0.31-0.64-0.3-2.03,0.12-2.33c1.23-0.88,1.36-2.12,1.53-3.33c0.25-1.76,0.3-3.55,0.43-5.33
			c-0.15-0.05-0.3-0.1-0.45-0.15c-2.12,2.5-5.22,4.11-6.48,7.4c-0.35,0.91-1.46,1.41-2.36,1.1c-0.99-0.34-1.33-1.09-1.12-2.06
			c0.23-1.06,0.89-1.52,2-1.32c0.26,0.05,0.64-0.08,0.83-0.27c1.74-1.76,3.44-3.56,5.29-5.47c-0.96,0.35-1.85,0.57-2.65,0.98
			c-3.9,1.99-7.82,3.94-11.63,6.08c-2,1.12-3.95,2.45-5.67,3.96c-3.5,3.07-6.17,6.75-7.47,11.32c-0.78,2.74-0.61,5.47-0.32,8.23
			c0.36,3.49,1.13,6.84,3.05,9.85c2.03,3.19,4.3,4.08,7.91,3.06c0.67-0.19,1.34-0.43,1.99-0.67c2.19-0.81,3.01-0.51,4.12,1.55
			c0.25,0.47,0.47,0.97,0.73,1.44c1.06,1.94,2.16,2.53,4.28,1.99c5.21-1.32,8.99-4.54,11.71-9.08c2.76-4.6,3.19-9.64,2.7-14.84
			C217.93,230.14,216.4,223.65,214.14,217.32z"/>
		<path class="st1" d="M194.75,192.95c0.15,0.71,0.77,1.61,1.41,1.87c4.77,1.99,9.15,4.56,13,8.14c-0.32-1.08-0.95-2.01-1.27-3.03
			c-0.25-0.79-0.24-1.72-0.11-2.54c0.03-0.21,1.02-0.48,1.48-0.36c1,0.26,1.22,1.13,1.12,2.08c0,0.04-0.01,0.08-0.01,0.12
			c-0.3,3.17,1.03,5.9,2.12,8.5c0.78-2.48,1.6-5.02,2.36-7.57c0.1-0.35-0.02-0.78-0.08-1.17c-0.1-0.61-0.51-1.36-0.28-1.79
			c0.27-0.51,1.06-1,1.64-1.02c0.51-0.02,1.23,0.49,1.53,0.97c0.73,1.15-0.16,1.8-0.76,2.79c-1.17,1.91-1.73,4.18-2.54,6.31
			c0.11,0.04,0.22,0.08,0.33,0.12c0.06-0.05,0.14-0.09,0.18-0.16c0.17-0.33,0.33-0.66,0.49-1c2.62-5.55,5.93-10.58,10.6-14.67
			c0.56-0.5,1.05-1.54,0.95-2.25c-0.45-3.3-0.92-6.63-1.77-9.85c-1.41-5.33-4.75-9.58-8.3-13.65c-0.59-0.67-1.37-1.19-2.11-1.7
			c-0.7-0.48-1.41-0.4-1.99,0.27c-0.51,0.59-1.02,1.19-1.52,1.8c-1.17,1.41-2.19,1.69-3.81,0.86c-0.87-0.45-1.66-1.08-2.44-1.68
			c-1.93-1.48-3.12-1.52-4.71,0.33c-1.42,1.65-2.81,3.41-3.79,5.33c-2.41,4.69-3.21,9.81-2.99,15.03
			C193.58,187.69,194.19,190.34,194.75,192.95z"/>
		<path class="st1" d="M187.47,223.84c2.32-2.14,4.77-4.08,7.6-5.52c2.25-1.14,4.43-2.41,6.63-3.63c0.25-0.14,0.47-0.35,0.7-0.52
			c-0.06-0.12-0.11-0.24-0.17-0.36c-0.74,0.24-1.51,0.43-2.22,0.74c-0.98,0.42-1.93,0.23-2.37-0.62c-0.45-0.88-0.35-1.68,0.49-2.3
			c0.87-0.63,1.87-0.48,2.54,0.21c0.32,0.33,0.9,0.65,1.32,0.59c2.59-0.36,5.17-0.82,7.76-1.25c0-0.13,0.01-0.25,0.01-0.38
			c-0.96-0.54-1.91-1.12-2.9-1.6c-1.78-0.87-3.4-2.13-5.6-2.02c-0.96,0.05-1.66-0.76-1.7-1.81c-0.04-0.85,0.44-1.41,1.28-1.58
			c1-0.2,2.18-0.12,2.4,0.94c0.22,1.1,0.94,1.32,1.67,1.7c1.38,0.74,2.77,1.47,4.16,2.2c0.66,0.35,1.32,0.71,1.98,1.06
			c0.08-0.08,0.15-0.16,0.23-0.25c-0.64-1.1-1.15-2.29-1.93-3.27c-4.54-5.75-10.68-9.07-17.57-10.96
			c-3.44-0.95-7.06-1.29-10.62-1.78c-3.17-0.44-6.34-0.51-9.43,0.63c-3.05,1.13-5.78,2.66-7.59,5.49c-1.71,2.66-1.7,3.01,0.28,5.41
			c0.18,0.22,0.35,0.47,0.57,0.65c1.48,1.24,1.48,2.8,0.83,4.4c-0.42,1.02-1.06,1.95-1.59,2.93c-0.87,1.62-0.79,2.44,0.41,3.82
			c0.38,0.43,0.81,0.83,1.26,1.18c5.94,4.59,12.83,6.25,20.17,6.45C186.54,224.42,187.12,224.16,187.47,223.84z"/>
	</g>
	<g>
		<path class="st1" d="M70.63,207.74c-0.28-0.41-0.11-1.12-0.14-1.69c0.6,0.1,1.28,0.04,1.78,0.32c2.1,1.15,4.14,2.42,6.22,3.61
			c0.48,0.27,1.04,0.41,2.01,0.77c-0.21-2.07-0.26-3.76-0.57-5.4c-0.37-1.96-0.66-4.03-1.53-5.78c-1.87-3.74-4.36-7.13-7.35-10.07
			c-2.72-2.66-5.77-4.94-9.84-4.31c-2.59,0.4-5.08,1.39-7.61,2.14c-0.86,0.25-0.9,0.93-0.79,1.7c0.31,2.12-0.46,3.71-2.38,4.73
			c-0.65,0.35-1.26,0.79-1.87,1.22c-1.23,0.87-1.54,1.7-1.04,3.08c0.29,0.81,0.65,1.63,1.15,2.32c5.06,6.94,11.63,11.55,20.28,12.8
			c2,0.29,4.04,0.32,5.97,0.46C73.41,211.6,71.96,209.71,70.63,207.74z"/>
		<path class="st1" d="M46.69,200.62c-0.34,0.92-0.6,1.61-0.84,2.3c-0.41,1.21-1.18,2.15-2.4,2.5c-3.1,0.89-2.76,4.1-0.72,5.4
			c1.73,1.1,3.54,2.24,5.48,2.8c5.18,1.49,10.55,1.91,15.92,2.18c1.24,0.06,2.47,0.05,3.2-1.27
			C58.56,212.99,52.04,207.96,46.69,200.62z"/>
		<path class="st1" d="M61.13,183.5c2.15-0.33,4.17,0.16,6.11,1.14c3.11,1.56,5.59,3.87,7.6,6.62c3.14,4.3,6.08,8.75,9.1,13.13
			c0.18,0.26,0.35,0.53,0.69,1.03c0.25-3.53,0.67-6.8,0.66-10.08c-0.02-4.74-0.93-9.36-2.66-13.8c-1.04-2.65-2.44-5.06-4.43-7.1
			c-2.04-2.1-4.74-2-6.62,0.21c-0.97,1.15-2.16,1.92-3.64,2.18c-0.93,0.16-1.89,0.19-2.82,0.36c-1.07,0.2-2.31,0.23-3.15,0.82
			c-1.4,0.98-1.95,2.63-2.07,4.34C59.85,183.18,60.09,183.66,61.13,183.5z"/>
	</g>
	<path class="st0" d="M281.4,151.63c-1.43-0.14-2.88-0.29-4.28-0.64c-2.13-0.53-2.67-2.37-1.29-4.09c0.67-0.84,1.38-1.65,2.1-2.44
		c0.76-0.82,1.8-1.61,1.3-2.85c-0.49-1.22-1.81-1.32-2.95-1.47c-8.01-1.04-15.27,1.46-22.33,4.8c-4.58,2.17-8.28,5.54-11.82,9.09
		c-2.82,2.83-5,6.01-5.89,10.25c2.27,0.82,4.39,1.83,6.62,2.34c5.55,1.26,11.12,2.52,16.84,2.79c4.02,0.19,8.05,0.3,11.85-1.28
		c5.31-2.21,8.97-6.23,11.63-11.21c0.38-0.71,0.62-1.55,0.72-2.35C284.1,152.84,283.11,151.8,281.4,151.63z"/>
	<path class="st2" d="M174.71,87.18c0.04-0.55-0.28-1.23-0.64-1.69c-1.08-1.39-2.34-2.65-3.39-4.06c-0.87-1.17-1.54-2.5-2.39-3.91
		c-0.84,1.2-1.6,2.27-2.34,3.36c-0.18,0.26-0.43,0.56-0.44,0.85c-0.03,1.77-0.17,3.56,0.07,5.29c0.19,1.39,0.66,2.83,1.38,4.03
		c0.41,0.68,0.99,1.16,1.64,1.45c-0.11,2.61-0.16,5.24-0.53,7.81c-0.86,5.88-2.05,11.72-2.94,17.6c-1.23,8.18-2.52,16.33-5.09,24.23
		c-0.14,0.43,0.27,1.05,0.42,1.57c0.38-0.35,0.98-0.64,1.09-1.06c1.14-4.14,2.37-8.26,3.24-12.46c0.96-4.65,1.57-9.37,2.33-14.06
		c0.91-5.59,1.9-11.16,2.69-16.76c0.3-2.16,0.38-4.35,0.49-6.54c0.74-0.05,1.46-0.33,2.01-0.87
		C173.65,90.64,174.56,89.06,174.71,87.18z"/>
	<g>
		<path class="st1" d="M136.13,58.28c3.83,2.41,7.06,2.25,10.69-0.37c5.46-3.93,11.5-4.97,18.02-3.35c0.27,0.07,0.55,0.11,0.83,0.17
			c0.04-0.1,0.08-0.21,0.12-0.31c-1.46-0.92-2.91-1.87-4.39-2.75c-0.48-0.28-1.05-0.53-1.59-0.55c-0.88-0.03-1.59-0.36-1.51-1.22
			c0.06-0.62,0.53-1.49,1.05-1.72c0.82-0.37,1.43,0.27,1.76,1.11c0.12,0.31,0.36,0.63,0.64,0.82c2,1.43,4.02,2.83,6.05,4.24
			c-0.15-2.75-1.94-6.63-4.21-9.21c-3.47-3.95-7.56-7.1-12.12-9.73c-4.49-2.59-8.95-2.57-13.52-0.48c-2.76,1.26-3.85,3.24-3.18,6.11
			c0.73,3.1,0.38,5.61-2.4,7.65c-1.81,1.33-1.92,2.99-0.79,4.95C132.69,55.56,134.24,57.09,136.13,58.28z"/>
		<path class="st1" d="M172.62,54.6c1.91-1.3,3.6-2.44,5.27-3.63c0.23-0.16,0.31-0.55,0.41-0.85c0.28-0.88,0.78-1.5,1.79-1.32
			c0.87,0.15,1.44,1.13,1.28,2.13c-0.16,1.04-0.76,1.5-1.83,1.35c-0.26-0.04-0.6-0.03-0.8,0.11c-2.15,1.44-4.28,2.92-6.41,4.38
			c0.03,0.13,0.07,0.25,0.1,0.38c4.48-0.48,8.73,0.39,12.85,2.03c4.87,1.95,9.26,4.54,12.23,9.09c0.25,0.38,1.16,0.57,1.68,0.47
			c3.02-0.62,5.62-2.1,7.93-4.12c2.71-2.38,3.26-4.7,1.43-7.4c-1.45-2.14-1.58-4.27-0.85-6.59c0.16-0.51,0.32-1.03,0.44-1.55
			c0.37-1.54,0.07-2.95-1.22-3.89c-1.25-0.92-2.58-1.88-4.02-2.36c-1.9-0.62-3.94-0.94-5.94-1.13
			C185.75,40.68,178.05,45.88,172.62,54.6z"/>
		<path class="st1" d="M159.87,39.15c0.36,0.18,0.64,0.52,0.93,0.81c1.53,1.5,3.04,3.01,4.57,4.52c1.29-0.93,2.15-1.04,2.69-0.22
			c0.83,1.27-0.08,2.03-0.85,2.62c0.92,2.55,1.8,4.97,2.75,7.6c0.56-1.57,1.16-3.01,1.57-4.5c0.44-1.56,0.91-3.13,0.08-4.8
			c-0.2-0.41,0.3-1.42,0.77-1.83c0.65-0.57,1.52-0.35,2.09,0.34c0.55,0.67,0.24,1.3-0.25,1.89c-0.22,0.27-0.48,0.58-0.53,0.9
			c-0.23,1.46-0.4,2.93-0.61,4.55c0.68-0.83,1.3-1.6,1.95-2.35c2.16-2.48,4.47-4.95,7.59-6.03c2.72-0.94,3.17-2.49,2.99-5.01
			c-0.33-4.73-1.38-9.16-4.35-12.95c-1.56-1.99-3.69-2.6-6.09-1.9c-1.57,0.45-2.81,0.06-4-0.95c-1.45-1.23-3.25-1.41-4.84-0.46
			c-2.24,1.34-4.24,3.05-5.28,5.44c-1.16,2.67-1.95,5.5-2.8,8.29C157.73,36.83,158.12,38.27,159.87,39.15z"/>
		<path class="st1" d="M182.21,59.84c-2.87-0.98-5.82-1.48-8.89-1.18c2.18,1.15,4.32,2.23,6.39,3.43c0.42,0.24,0.86,1.03,0.75,1.43
			c-0.13,0.52-0.73,1.05-1.25,1.29c-0.25,0.11-1.02-0.37-1.18-0.75c-0.77-1.8-2.95-3.36-4.95-3.45c0.41,0.52,0.98,1.04,1.31,1.68
			c0.77,1.45,1.53,2.93,2.06,4.47c0.15,0.44-0.35,1.39-0.82,1.67c-0.47,0.28-1.39,0.21-1.87-0.09c-0.26-0.16-0.08-1.13-0.01-1.72
			c0.03-0.25,0.47-0.55,0.41-0.7c-0.61-1.46-0.76-3.21-2.41-4.23c-0.02,0.25-0.05,0.37-0.04,0.48c0.63,4.25-0.15,8.32-1.72,12.24
			c-0.43,1.07-0.31,1.85,0.12,2.79c2.27,4.9,6,8.46,10.51,11.23c1.49,0.91,3.16,1.61,4.84,2.11c1.77,0.52,4.07-0.12,4.8-2.41
			c0.6-1.89,1.97-3,3.99-3.25c0.49-0.06,0.95-0.27,1.44-0.37c1.97-0.37,2.85-1.7,3.07-3.55c0.59-4.84-0.76-9.16-3.65-13.03
			C191.87,63.56,187.14,61.52,182.21,59.84z"/>
		<path class="st1" d="M169.81,61.45c-0.76,1.8-1.57,3.63-2.3,5.49c-0.31,0.81-0.83,1.38-1.62,1.16c-0.51-0.14-1.26-0.88-1.2-1.24
			c0.09-0.59,0.72-1.13,1.19-1.62c0.2-0.21,0.73-0.16,0.85-0.37c0.97-1.78,1.57-3.67,1.29-5.85c-1.03,0.76-1.87,1.68-2.81,2.47
			c-0.41,0.34-1.14,0.7-1.53,0.55c-0.5-0.2-1.02-0.88-1.09-1.41c-0.04-0.32,0.72-0.84,1.21-1.1c0.98-0.51,2.01-0.9,3.03-1.35
			c-0.05-0.21-0.11-0.43-0.16-0.64c-2.01,0.19-4.04,0.32-6.04,0.6c-0.77,0.11-1.53,0.51-2.21,0.92c-0.72,0.43-1.41,0.63-2.03,0.03
			c-0.33-0.32-0.68-1.19-0.55-1.3c0.5-0.45,1.15-0.8,1.8-1.01c0.43-0.14,0.99,0.16,1.45,0.05c1.36-0.33,2.71-0.73,4.06-1.12
			c-0.28-0.06-0.56-0.11-0.85-0.15c-8.52-1.02-18,3.22-20.98,12.73c-0.65,2.07-1.05,4.26-1.22,6.43c-0.27,3.51,1.72,5.57,5.2,5.74
			c0.45,0.02,0.91,0.03,1.36,0.06c1.38,0.09,2.59,0.57,3.47,1.67c0.85,1.06,1.68,2.14,2.49,3.24c1.29,1.74,2.61,2.18,4.49,1.1
			c1.45-0.83,2.84-1.85,4.06-3c3.49-3.28,6.62-6.89,7.98-11.61C170.11,68.5,170.84,64.97,169.81,61.45z"/>
		<path class="st1" d="M163.83,55.53c-0.24,0.07-0.48,0.14-0.72,0.21c0.27,0.06,0.55,0.12,0.82,0.18
			C163.9,55.78,163.87,55.65,163.83,55.53z"/>
	</g>
	<path class="st2" d="M224.11,121.73c-1.06-0.17-2.16-0.16-3.17-0.47c-1.42-0.44-1.55-1.58-0.36-2.46c0.85-0.64,1.76-1.21,2.93-2
		c-1.13,0.07-1.94,0.14-2.75,0.17c-0.83,0.03-1.65,0.06-2.48,0.03c-2.04-0.07-2.67-0.71-2.62-2.75c0.03-1.43,0.19-2.86,0.3-4.5
		c-0.34,0.25-0.47,0.35-0.6,0.44c-0.86,0.61-1.54,2.02-2.8,1.2c-1.15-0.75-0.58-2.1-0.49-3.22c0.01-0.08,0.04-0.16,0.06-0.24
		c0.42-1.59,1.39-5.93,1.25-5.98c-0.67,0.26-1.55,2.11-1.66,2.48c-0.75,2.4-0.82,4.44-1.5,6.86c-0.66,2.33-1.7,4.4-3.72,5.83
		c-1.59,1.13-2.52,2.71-3.21,4.45c-0.48,1.21-0.29,2.42,0.38,3.28c-1.63,1.58-3.29,3.14-4.76,4.86
		c-6.83,7.98-13.49,16.09-19.46,24.73c-2.09,3.02-3.99,6.18-5.89,9.32c-0.29,0.48-0.36,1.62-0.08,1.82
		c0.88,0.62,1.13-0.39,1.47-0.94c1.54-2.45,2.91-5.02,4.61-7.34c4.6-6.25,9.23-12.49,14.06-18.57c3.31-4.16,6.9-8.11,10.49-12.04
		c0.31-0.35,0.57-0.61,0.81-0.84c1.56,0.8,3.63,0.83,5.06-0.11c1.34-0.88,2.61-1.89,3.87-2.88c1-0.79,2.1-1.13,3.35-0.94
		c1.51,0.23,3,0.87,4.52,0.97c2.34,0.16,3.98,0.26,7.03-0.08C227.19,122.27,225.66,121.98,224.11,121.73z"/>
	<path class="st2" d="M108.34,262.69c-1.28-5.57-2.79-11.08-5.1-16.31c-1.89-4.26-4.11-8.37-6.24-12.52
		c-1.72-3.35-3.51-6.67-5.24-10.02c0.4-0.6,0.51-1.45,0.27-2.52c-0.4-1.69-1.13-3.38-2.07-4.85c-1.46-2.27-2.4-4.53-2.03-7.32
		c0.33-2.5-0.33-4.91-1.27-7.58c-0.16,1.86-0.24,3.39-0.47,4.89c-0.07,0.45-0.52,1.09-0.89,1.17c-0.46,0.1-1.09-0.21-1.51-0.52
		c-0.38-0.27-0.58-0.78-0.85-1.2c-0.47-0.76-0.93-1.53-1.4-2.29c-0.1,0.05-0.21,0.1-0.31,0.14c0.11,0.43,0.28,0.85,0.32,1.29
		c0.18,1.72,0.45,3.45,0.43,5.17c-0.03,1.7-1.21,2.4-2.84,1.85c-0.89-0.31-1.74-0.77-2.59-1.2c-0.89-0.45-1.76-0.94-2.64-1.42
		c0.89,1.2,1.94,2.18,2.96,3.19c1.35,1.34,1.09,2.56-0.76,2.89c-2.18,0.39-4.4,0.54-6.75,0.81c0.34,0.19,0.57,0.39,0.83,0.43
		c2.18,0.41,4.35,0.99,6.54,1.14c2.9,0.19,5.49,0.4,7.04,3.51c0.95,1.9,2.84,3.1,5.09,3.37c0.63,0.08,1.18,0.05,1.64-0.07
		c1.08,2.2,2.12,4.42,3.27,6.59c3.33,6.27,7.05,12.36,9.25,19.16c1.33,4.12,2.42,8.31,3.68,12.46c0.15,0.48,0.69,1.21,1.03,1.2
		C108.57,264.1,108.49,263.3,108.34,262.69z"/>
	<path class="st2" d="M172.22,260.82c-2.13-3.15-4.14-6.4-6.47-9.39c-5.9-7.59-12.25-14.79-19.43-21.38
		c0.15-0.68,0.04-1.52-0.38-2.52c-1.03-2.46-2.72-4.43-4.82-6.04c-1.29-0.99-1.93-2.19-2.25-3.81c-0.36-1.84-1.02-3.66-1.78-5.38
		c-0.45-1-1.36-1.8-2.06-2.69c-0.15-0.15-0.66-0.79-0.72-0.75c-0.06,0.04,0.32,0.76,0.35,0.99c0.28,1.11,0.67,2.21,0.81,3.33
		c0.08,0.7,0.01,1.75-0.42,2.09c-0.44,0.35-1.47,0.21-2.14-0.03c-0.89-0.31-1.68-0.92-2.69-1.51c0.41,1.04,0.73,1.84,1.04,2.65
		c0.74,1.98,0.1,2.89-2.05,2.84c-1.05-0.02-2.11-0.15-3.51-0.26c0.99,1.06,1.86,1.82,2.51,2.74c0.46,0.65,1.05,1.71,0.81,2.22
		c-0.31,0.65-1.36,1.1-2.17,1.3c-1.18,0.29-2.43,0.27-4.03,0.41c2.82,1.52,5.49,2.22,8.34,1.83c2.08-0.29,3.83-0.05,5.47,1.48
		c1.7,1.6,3.82,2.65,6.2,2.84c1.1,0.09,1.95-0.07,2.55-0.44c3.21,3.23,6.48,6.41,9.53,9.79c6.12,6.79,12.1,13.71,16.55,21.79
		c0.17,0.3,0.7,0.4,1.07,0.6c0.14-0.43,0.43-0.87,0.37-1.27C172.82,261.76,172.52,261.26,172.22,260.82z"/>
</g>
</svg>
