<?xml version="1.0" encoding="utf-8"?>
<!-- Generator: Adobe Illustrator 28.0.0, SVG Export Plug-In . SVG Version: 6.00 Build 0)  -->
<svg version="1.1" id="Layer_1" xmlns="http://www.w3.org/2000/svg" xmlns:xlink="http://www.w3.org/1999/xlink" x="0px" y="0px"
	 viewBox="0 0 300 300" style="enable-background:new 0 0 300 300;" xml:space="preserve">
<style type="text/css">
	.st0{fill:#62735F;}
	.st1{fill:#BACEEB;}
	.st2{fill:#EFBCC7;}
	.st3{fill:#C19ADE;}
	.st4{fill:#E3889F;}
	.st5{fill:#F9A242;}
	.st6{fill:#FFFFFF;}
	.st7{fill:#F8B978;}
	.st8{fill:#060606;}
</style>
<g>
	<path class="st0" d="M279.69,181.85c-0.54-2.2-1.08-4.37-2.55-6.23c-1.32-1.67-2.15-3.65-2.48-5.8c-0.14-0.92-0.07-1.8,0.44-2.61
		c0.57-0.9,1.53-1.27,2.54-0.92c1.39,0.49,2.06,1.56,2.35,2.94c0.44,2.08,0.35,4.18,0.32,6.28c-0.01,0.38-0.01,0.77,0.14,1.18
		c0.21-0.5,0.4-1.01,0.62-1.51c0.54-1.2,1.32-2.16,2.56-2.69c1.45-0.61,2.66-0.05,3.05,1.47c0.47,1.8,0.26,3.54-0.6,5.19
		c-0.94,1.81-2.2,3.4-3.53,4.93c-0.18,0.2-0.38,0.35-0.31,0.69c0.32,1.43,0.39,2.9,0.55,4.43c0.4-0.3,0.52-0.73,0.76-1.07
		c0.58-0.82,1.16-1.64,2.13-2.06c1.41-0.62,2.5-0.13,2.85,1.36c0.63,2.63-0.36,4.68-2.38,6.33c-0.83,0.68-1.76,1.23-2.73,1.68
		c-0.35,0.16-0.53,0.35-0.53,0.75c0.02,2.25-0.15,4.49-0.36,6.72c-0.01,0.16-0.13,0.36,0.08,0.45c0.21,0.09,0.28-0.14,0.4-0.24
		c0.5-0.46,1-0.94,1.51-1.39c0.54-0.47,1.17-0.79,1.88-0.94c1.6-0.34,2.75,0.45,2.97,2.09c0.23,1.74-0.51,3.08-1.79,4.19
		c-1,0.87-2.11,1.61-3.37,2.02c-1.34,0.43-2.29,1.47-3.49,2.1c-0.09,0.05-0.16,0.18-0.2,0.29c-0.91,2.47-1.91,4.92-1.92,7.62
		c-0.01,1.6,0.21,3.16,0.63,4.71c0.11,0.4,0.22,0.8,0.27,1.21c0.07,0.53-0.06,1.01-0.67,1.13c-0.57,0.11-0.85-0.24-1.02-0.73
		c-0.97-2.92-1.36-5.89-0.76-8.95c0.4-2.08,1.27-3.99,2.01-5.95c0.15-0.39,0.06-0.69-0.03-1.08c-0.43-1.86-1.72-3.18-2.79-4.64
		c-0.95-1.3-1.45-2.76-1.58-4.35c-0.1-1.23,0.36-2.11,1.27-2.48c0.96-0.39,2.08-0.1,2.85,0.77c0.69,0.78,1.12,1.71,1.51,2.66
		c0.13,0.31,0.25,0.62,0.44,0.92c0.24-1.68,0.25-3.37,0.34-5.04c0.04-0.76-0.14-1.05-0.94-1.33c-2.3-0.8-4.47-1.87-5.77-4.12
		c-0.8-1.38-0.85-2.5-0.11-3.33c0.71-0.81,2.05-0.93,3.41-0.33c0.77,0.34,1.29,0.95,1.77,1.6c0.5,0.68,1,1.35,1.57,2
		c0.05-1.68-0.09-3.32-0.27-4.96c-0.05-0.43-0.38-0.33-0.61-0.33c-3.11-0.04-5.25-1.71-6.96-4.11c-0.26-0.36-0.42-0.77-0.51-1.21
		c-0.18-0.85-0.2-1.69,0.54-2.29c0.74-0.61,1.62-0.64,2.49-0.29c1.04,0.43,1.87,1.14,2.64,1.94c0.44,0.46,0.82,0.96,1.23,1.45
		c0.06,0.06,0.12,0.13,0.18,0.2C279.8,182.06,279.75,181.96,279.69,181.85z M282.51,203.54c0.02,0.02,0.04,0.03,0.06,0.04
		c0.01-0.03,0.03-0.07,0.03-0.1c0-0.01-0.03-0.03-0.05-0.04C282.54,203.47,282.53,203.5,282.51,203.54z"/>
	<path class="st0" d="M186.45,52.14c2.18-1.02,4.43-1.87,6.72-2.61c0.46-0.15,0.88-0.13,1.15,0.32c0.25,0.42,0.09,0.81-0.23,1.12
		c-1.5,1.48-2.69,3.19-3.79,4.98c-1.11,1.81-2.25,3.61-4.04,4.83c-1.3,0.89-2.77,1.48-4.2,2.13c-2.44,1.12-4.66,2.55-6.64,4.38
		c-1.3,1.2-2.01,2.79-2.87,4.27c-1.65,2.82-3.6,5.4-5.79,7.82c-1.79,1.99-3.51,4.06-5.1,6.21c-1,1.34-1.22,2.97-1.58,4.54
		c-0.17,0.72-0.4,1.05-0.88,0.97c-0.45-0.08-0.73-0.55-0.61-1.21c0.43-2.41,1.09-4.71,2.78-6.61c1.06-1.19,1.91-2.54,2.85-3.83
		c1.12-1.55,1.4-3.36,1.8-5.15c1.69-7.47,5.54-13.45,12.07-17.6c1.23-0.78,2.4-1.68,3.72-2.32c1.55-0.75,3.15-1.42,4.72-2.12
		C186.49,52.24,186.47,52.19,186.45,52.14z"/>
	<path class="st0" d="M128.9,211.96c1.26,1.73,2.72,3.3,4.47,4.5c6.41,4.39,10.82,10.41,14.15,17.3c0.65,1.34,1.66,2.48,2.17,3.9
		c0.11,0.31,0.47,0.35,0.74,0.46c2.4,0.97,4.8,1.93,7.2,2.89c0.62,0.25,1.24,0.52,1.65,1.07c0.32,0.43,0.42,0.92,0.05,1.38
		c-0.33,0.41-0.8,0.55-1.25,0.31c-3.23-1.65-6.74-2.6-10.05-4.05c-7.74-3.39-13.25-9.15-17.62-16.16c-1.77-2.83-3.04-5.89-3.87-9.13
		c-0.23-0.89-0.61-1.75-0.93-2.62c-0.26-0.7-0.23-1.33,0.47-1.74c0.7-0.42,1.29-0.08,1.76,0.45
		C128.22,210.97,128.55,211.48,128.9,211.96z"/>
	<g>
		<path class="st1" d="M113.86,168.87c-1.06-0.99-1.49-2.36-2.05-3.62c-0.91-2.03-1.46-4.15-1.09-6.41
			c0.21-1.32,0.77-2.46,1.74-3.38c1.34-1.28,3.33-1.19,4.55,0.18c0.87,0.98,1.33,2.14,1.48,3.43c0.04,0.35,0.05,0.7,0.26,1.07
			c0.59-0.71,0.85-1.53,1.25-2.28c0.51-0.95,1.26-1.58,2.31-1.84c1.48-0.37,2.71,0.53,2.83,2.05c0.05,0.64-0.06,1.26-0.24,1.87
			c-0.14,0.49-0.3,0.99-0.23,1.51c0.34,0.09,0.42-0.17,0.57-0.31c0.45-0.41,0.85-0.87,1.33-1.23c1.75-1.32,3.91-0.45,4.32,1.72
			c0.49,2.52-0.12,4.75-1.75,6.71c-1.43,1.73-3.16,3.05-5.36,3.66c0.38-2.1-0.75-3.39-2.86-3.21c-0.51,0.04-1.06,0.14-1.51,0.36
			c-0.62,0.3-0.83,0.29-0.97-0.48c-0.16-0.92-0.64-1.75-1.63-2c-0.89-0.23-1.67,0.12-2.31,0.79
			C114.14,167.86,114.09,168.4,113.86,168.87z"/>
		<path class="st0" d="M113.86,168.87c0.23-0.46,0.28-1.01,0.66-1.4c0.63-0.67,1.41-1.01,2.31-0.79c0.99,0.25,1.47,1.08,1.63,2
			c0.13,0.76,0.35,0.78,0.97,0.48c0.46-0.22,1-0.32,1.51-0.36c2.11-0.18,3.24,1.1,2.86,3.21c-0.66,0.92-1.62,1.27-2.69,1.39
			c-1.06,0.12-2.13,0.25-3.2,0.29c-0.47,0.02-0.72,0.2-0.99,0.55c-1.78,2.27-3.57,4.54-6.21,5.92c-0.71,0.37-1.46,0.64-2.28,0.58
			c-0.51-0.03-0.83-0.3-0.88-0.81c-0.06-0.51,0.21-0.88,0.7-0.96c1.86-0.29,3.16-1.44,4.37-2.74c0.9-0.97,1.81-1.92,2.55-3.02
			c0.16-0.23,0.33-0.44,0.05-0.72C114.2,171.49,113.99,170.19,113.86,168.87z"/>
	</g>
	<g>
		<path class="st0" d="M153.02,68.95c-0.35,2.99-2.59,4.24-4.99,5.23c-0.72,0.3-0.91,0.55-0.89,1.3c0.08,2.86,0.24,5.71,0.39,8.56
			c0.52,9.9-0.59,19.62-3.26,29.17c-0.28,1.01-0.72,1.98-1.17,3.21c1.05-0.54,1.62-1.24,2.12-2c0.95-1.43,1.56-3.08,2.67-4.42
			c1.22-1.47,2.71-2.33,4.66-2.21c1.36,0.09,2.18,0.89,2.4,2.23c0.23,1.37-0.27,2.56-0.97,3.67c-0.58,0.92-1.22,1.82-1.87,2.7
			c-1.56,2.1-3.75,2.99-6.27,3.16c-0.93,0.06-1.88,0.11-2.79-0.03c-0.95-0.15-1.2,0.25-1.47,1.06c-1.21,3.71-2.24,7.44-2.08,11.4
			c0.04,1.1,0.21,2.18,0.49,3.24c0.21,0.79,0.63,1.43,1.24,1.99c3.2,2.98,6.82,5.37,10.45,7.76c2.85,1.88,5.6,3.92,8.57,5.63
			c0.58,0.33,0.86,0.87,0.58,1.52c-0.29,0.68-0.88,0.89-1.57,0.71c-0.75-0.19-1.37-0.67-2-1.09c-3.33-2.24-6.57-4.64-10.02-6.68
			c-1.45-0.86-3.02-1.54-4.39-2.57c-0.95-0.71-2.06-0.9-3.19-0.97c-2.76-0.17-4.62,1.33-6.14,3.42c-0.53,0.73-1.03,1.47-1.6,2.16
			c-0.95,1.13-2.19,1.7-3.67,1.71c-2.62,0.03-4.41-1.79-4.09-4.39c0.81-6.66,5.99-9.4,11.46-8.19c0.41,0.09,0.81,0.21,1.5,0.39
			c-1.84-1.98-3.33-3.9-4.79-5.86c-1.65-2.21-3.28-4.44-4.55-6.89c-0.71-1.38-1.86-1.8-3.17-2c-1.54-0.24-3.12-0.22-4.65-0.52
			c-4.46-0.87-8.27-3.15-11.93-5.7c-0.95-0.66-1.83-1.43-2.73-2.17c-1.24-1.02-2.85-0.81-3.76,0.56c-0.64,0.97-1.18,2-1.83,2.96
			c-1.11,1.65-2.74,2.58-4.6,3.12c-1.78,0.52-3.26-0.35-3.88-2.18c-0.87-2.56,0.22-5.35,2.72-7.09c1.81-1.26,3.79-1.88,6-1.7
			c0.26,0.02,0.53,0.02,0.79,0.02c0.02,0,0.05-0.04,0.11-0.11c-0.67-0.88-1.38-1.74-2.01-2.67c-2.25-3.34-4-6.95-5.64-10.61
			c-0.3-0.68-0.67-1.07-1.42-1.18c-1.68-0.24-3.14-1.02-4.48-2.04c-1.07-0.81-1.86-1.79-1.96-3.2c0.52-1.28,1.36-2.16,2.81-2.29
			c1.35-0.11,2.45,0.55,3.53,1.28c0.74-3.3,2.23-4.34,4.85-3.5c1.36,1.09,1.46,2.53,1.05,4.07c-0.43,1.59-1.23,3.01-2.23,4.3
			c-0.35,0.46-0.42,0.84-0.19,1.36c2.67,5.86,5.72,11.47,10.53,15.91c1.46,1.35,3.03,2.57,4.82,3.87c-0.36-1.34-0.78-2.47-0.89-3.68
			c-0.24-2.67,1.22-5.22,3.43-5.91c1.2-0.38,2.38-0.27,3.5,0.25c2.04,0.94,2.65,3.46,1.16,5.3c-1.08,1.33-1.6,2.8-1.82,4.44
			c-0.26,1.95,0.33,2.83,2.15,3.53c2.31,0.89,4.77,0.71,7.29,1.14c-0.64-1.5-1.22-2.88-1.83-4.25c-2.1-4.69-3-9.67-3.75-14.7
			c-0.16-1.08-0.45-2.14-0.65-3.22c-0.11-0.58-0.27-0.75-0.96-0.66c-4.18,0.55-7.66-0.82-10.26-4.16c-1-1.28-1.36-2.81-0.59-4.4
			c0.71-1.47,1.95-2.03,3.46-1.42c2.02,0.8,3.72,2,4.78,4c0.55,1.02,1.06,2.14,2.47,2.67c-0.53-2.16-1.1-4.16-1.33-6.22
			c-0.49-4.38-2.3-8.2-4.75-11.78c-0.3-0.44-0.57-0.63-1.12-0.55c-0.75,0.1-1.45-0.16-2.08-0.55c-1.24-0.78-2.45-1.58-3.67-2.38
			c-0.81-0.87-1.59-1.77-0.91-3.07c0.49-0.93,1.53-1.38,2.75-1.05c0.83,0.23,1.01,0.06,1.08-0.77c0.1-1.16,0.38-2.37,1.71-2.77
			c1.28-0.39,2.01,0.53,2.73,1.36c0,0,0-0.01,0-0.01c-0.15,0.11-0.05,0.19,0.03,0.28c0.31,1.92,0.08,3.85,0.09,5.77
			c0,0.53,0.15,0.92,0.47,1.34c3.09,4.07,5.47,8.44,6.11,13.63c0.41,3.37,1.5,6.59,2.33,9.88c0.75,3,1.25,6.05,1.68,9.11
			c0.49,3.5,2.01,6.65,3.21,10.07c0.79-0.81,0.86-1.66,0.7-2.56c-0.13-0.75-0.33-1.49-0.47-2.24c-0.26-1.39,0-2.7,0.69-3.94
			c0.86-1.54,2.51-2.15,4.17-1.53c2.04,0.76,3.19,2.52,2.92,4.68c-0.48,3.79-2.42,6.61-5.82,8.39c-0.42,0.22-0.7,0.32-0.4,0.92
			c2.37,4.75,5.4,9.05,8.71,13.18c0.03,0.04,0.11,0.04,0.26,0.09c0.02-1.07,0.05-2.12,0.06-3.16c0.05-3.78,1.35-7.29,2.45-10.84
			c0.91-2.94,2.35-5.7,3.01-8.73c0.65-2.95,1.22-5.91,1.65-8.91c0.08-0.58-0.03-0.78-0.6-0.96c-2.66-0.85-5.04-2.19-7-4.21
			c-0.88-0.91-1.44-1.99-1.63-3.24c-0.2-1.31-0.06-2.57,1.11-3.41c1.13-0.8,2.41-0.69,3.61-0.16c1.26,0.55,2.17,1.48,2.68,2.8
			c0.6,1.53,1.09,3.13,2.13,4.47c0.33-0.18,0.22-0.47,0.24-0.7c0.38-3.68,0.5-7.36,0.23-11.05c-0.28-3.78-0.4-7.57-0.48-11.35
			c-0.01-0.48-0.11-0.89-0.43-1.28c-0.97-1.19-1.51-2.56-1.65-4.09c0.13-0.75,0.14-1.51,0.45-2.22c0.79-1.78,2.76-2.16,4.15-0.79
			c0.36,0.36,0.61,0.79,0.76,1.26c0.15,0.5,0.27,0.76,0.83,0.32c0.61-0.48,1.36-0.46,2.08-0.19
			C152.09,66.63,152.76,67.62,153.02,68.95z"/>
		<path class="st2" d="M96.57,84.86c-2.62-0.85-4.1,0.2-4.85,3.5c-1.08-0.73-2.17-1.4-3.53-1.28c-1.45,0.12-2.29,1.01-2.81,2.29
			c-2.62-1.29-4.9-3.02-6.86-5.2c-0.9-1-1.4-2.16-1.49-3.5c-0.1-1.53,0.49-2.73,1.81-3.51c1.29-0.76,2.55-0.56,3.74,0.25
			c0.46,0.32,0.9,0.67,1.4,1.05c0.15-0.43-0.13-0.76-0.23-1.11c-0.43-1.53-0.46-2.98,0.47-4.39c1.42-2.15,3.45-2.31,5.17-0.36
			c0.57,0.65,1.01,1.38,1.56,2.3c0.21-0.71,0.34-1.26,0.54-1.79c0.39-1.06,0.92-2.03,2.19-2.2c1.33-0.19,2.34,0.45,3.1,1.43
			c1.15,1.47,1.82,3.17,1.84,5.06C98.65,80.07,98.05,82.59,96.57,84.86z"/>
		<path class="st3" d="M112.44,65.52c-0.72-0.84-1.45-1.75-2.73-1.36c-1.33,0.4-1.61,1.61-1.71,2.77c-0.07,0.84-0.24,1-1.08,0.77
			c-1.22-0.33-2.27,0.12-2.75,1.05c-0.68,1.3,0.1,2.19,0.91,3.07c-3.78-0.72-7.05-2.49-9.93-4.99c-0.99-0.86-1.64-2-1.95-3.3
			c-0.64-2.65,1.6-4.78,4.23-4.03c0.65,0.18,1.2,0.55,1.78,0.88c0.19,0.1,0.35,0.38,0.61,0.23c0.28-0.17,0.18-0.48,0.15-0.73
			c-0.05-0.43-0.14-0.85-0.2-1.28c-0.05-0.46-0.14-0.93-0.11-1.39c0.09-1.17,0.37-2.28,1.64-2.72c1.23-0.43,2.19,0.12,3.02,1.01
			c0.27,0.28,0.46,0.65,0.86,0.82c0.36-0.31,0.2-0.74,0.26-1.11c0.41-2.61,2.41-3.47,4.57-1.95c1.06,0.75,1.88,1.71,2.42,2.86
			c1.31,2.79,1.64,5.66,0.51,8.6C112.84,65,112.8,65.36,112.44,65.52z"/>
		<path class="st4" d="M153.02,68.95c-0.26-1.32-0.93-2.32-2.24-2.8c-0.73-0.27-1.47-0.29-2.08,0.19c-0.56,0.44-0.68,0.18-0.83-0.32
			c-0.15-0.48-0.4-0.91-0.76-1.26c-1.39-1.37-3.36-0.99-4.15,0.79c-0.32,0.71-0.33,1.48-0.45,2.22c-3.23-2.39-4.73-6.32-3.78-9.88
			c0.38-1.42,1.19-2.47,2.67-2.79c1.46-0.31,2.46,0.5,3.26,1.62c0.29,0.4,0.53,0.84,0.8,1.26c0.11,0.17,0.21,0.38,0.44,0.35
			c0.22-0.03,0.26-0.27,0.32-0.46c0.3-1.05,0.59-2.11,1.2-3.04c0.78-1.18,1.88-1.78,2.99-1.51c1.28,0.31,1.91,1.24,2.17,2.46
			c0.19,0.88,0.13,1.78,0.15,2.68c0.01,0.56,0.16,0.94,0.84,0.46c1.29-0.91,2.65-1.22,4.05-0.21c1.1,0.8,1.58,2.56,1.12,4.17
			c-0.59,2.08-1.99,3.56-3.67,4.82C154.42,68.17,153.7,68.53,153.02,68.95z"/>
		<path class="st5" d="M112.47,65.79c-0.08-0.09-0.17-0.17-0.03-0.28C112.62,65.58,112.53,65.69,112.47,65.79z"/>
	</g>
	<path class="st6" d="M195.81,144.75c-0.04,0.13-0.13,0.22-0.26,0.16c-0.09-0.04-0.07-0.14,0.01-0.2c0.12-0.08,0.21-0.07,0.26,0.08
		C195.82,144.79,195.81,144.75,195.81,144.75z"/>
	<path class="st6" d="M190.39,114.16c-0.03,0.03-0.05,0.05-0.07,0.07c-0.02-0.04-0.05-0.09-0.06-0.13c0-0.02,0.04-0.04,0.06-0.07
		C190.35,114.08,190.37,114.12,190.39,114.16z"/>
	<path class="st6" d="M189,111.71c-0.03,0.05-0.05,0.09-0.07,0.13c-0.02-0.02-0.06-0.05-0.06-0.07c0.01-0.05,0.04-0.09,0.06-0.13
		C188.96,111.66,188.98,111.68,189,111.71z"/>
	<path class="st6" d="M113,164.43c-0.02,0.03-0.04,0.05-0.06,0.07c-0.02-0.04-0.05-0.08-0.06-0.13c0-0.02,0.04-0.04,0.06-0.06
		C112.95,164.35,112.97,164.39,113,164.43z"/>
	<path class="st6" d="M259.86,190.36c0.02-0.04,0.05-0.09,0.07-0.13c0.02,0.02,0.07,0.05,0.06,0.07c-0.01,0.05-0.04,0.09-0.06,0.13
		C259.91,190.41,259.88,190.39,259.86,190.36z"/>
	<g>
		<path class="st7" d="M65.34,104.85c1.68,0.87,3.37,1.69,4.93,2.78c2.02,1.4,4.16,2.62,6.2,3.99c1.58,1.06,2.97,2.34,4.06,3.93
			c0.44,0.65,0.69,1.31,0.27,2.04c-0.43,0.72-1.16,0.81-1.92,0.77c-1.56-0.08-2.97-0.7-4.36-1.33c-2-0.91-3.96-1.89-5.83-3.03
			c-0.27-0.16-0.52-0.44-0.9-0.32c0.05-0.13-0.01-0.14-0.11-0.1c0.03,0.04,0.07,0.07,0.1,0.11c1.79,4.28,1.62,8.68,0.8,13.12
			c-0.15,0.82-0.22,1.88-1.31,2.01c-1.08,0.13-1.91-0.52-2.41-1.45c-1.8-3.35-3.29-6.81-3.69-10.66c-0.16-1.51-0.37-3.01-0.74-4.53
			c-0.28,0.95-0.55,1.9-0.83,2.85c-0.82,2.85-1.85,5.61-3.22,8.24c-0.29,0.55-0.67,1.07-1.07,1.55c-0.56,0.69-1.29,1.12-2.19,0.76
			c-0.95-0.38-1.15-1.24-1.07-2.15c0.07-0.86,0.23-1.71,0.35-2.56c0.97-3.04,1.97-6.08,3.42-8.95c-0.68,0.72-1.35,1.44-2.03,2.17
			c-0.1,0.04-0.24,0.05-0.16,0.22l0.01-0.01c-0.19-0.05-0.26,0.01-0.21,0.21l0.01-0.01c-0.25-0.11-0.35,0.01-0.39,0.24l0.05-0.01
			l0.04,0.04c-1.19,0.46-1.93,1.51-2.93,2.23c-1.42,1.03-2.65,2.32-4.21,3.16c-1.5,0.8-2.5,0.81-3.19,0.03
			c-0.65-0.75-0.5-1.63,0.46-3.07c2.44-3.68,5.77-6.48,9.13-9.25c0.17-0.14,0.43-0.21,0.51-0.62c-2.42,0.47-4.79,0.88-7.13,1.39
			c-2.27,0.5-4.56,0.87-6.87,1.08c-0.69,0.06-1.39,0.06-2.07-0.15c-1.68-0.51-2.15-1.99-0.98-3.31c1.18-1.33,2.75-2.06,4.43-2.54
			c1.82-0.52,3.69-0.79,5.69-1.07c-1.34-0.44-2.63-0.5-3.9-0.7c-1.02-0.16-2.03-0.33-2.97-0.77c-0.67-0.32-1.17-0.8-1.19-1.58
			c-0.02-0.81,0.44-1.37,1.11-1.76c0.98-0.58,2.08-0.66,3.18-0.67c3.38-0.03,6.53,1.03,9.69,2.03c2.39,0.76,4.63,1.81,6.76,3.12
			c-0.22,0.78-0.78,1.44-0.57,2.36c0.3,1.3,1.22,1.89,2.35,2.32C63.49,108.16,64.23,107.84,65.34,104.85z"/>
		<path class="st0" d="M53.79,114.08c0.68-0.72,1.35-1.44,2.03-2.17c-1.45,2.87-2.45,5.91-3.42,8.95c-2.89,3.99-4.78,8.46-6.34,13.1
			c-2.3,6.85-3.54,13.88-3.8,21.09c-0.01,0.4,0.02,0.8,0.02,1.19c0,0.61-0.28,1.03-0.89,1.13c-0.62,0.11-1.03-0.21-1.23-0.77
			c-0.1-0.27-0.15-0.58-0.15-0.87c0.04-11.45,2.52-22.32,7.92-32.44c1.43-2.69,3.13-5.24,4.85-7.76c0.15-0.22,0.47-0.4,0.35-0.77
			c0,0-0.04-0.04-0.04-0.04s-0.05,0.01-0.05,0.01c0.26,0.12,0.3-0.1,0.39-0.24c0,0-0.01,0.01-0.01,0.01
			c0.11-0.03,0.22-0.06,0.21-0.21c0,0-0.01,0.01-0.01,0.01C53.77,114.3,53.82,114.22,53.79,114.08z"/>
		<path class="st8" d="M65.34,104.85c-1.1,2.99-1.85,3.31-4.93,2.15c-1.13-0.43-2.05-1.02-2.35-2.32c-0.21-0.92,0.34-1.58,0.57-2.36
			c0.67-1.29,1.47-2.5,2.43-3.6c0.57-0.65,1.2-1.23,2.01-1.58c1.61-0.71,2.93,0.03,3.17,1.77c0.19,1.38-0.22,2.69-0.5,4.01
			C65.6,103.55,65.47,104.2,65.34,104.85z"/>
		<path class="st6" d="M53.43,114.49c-0.09,0.15-0.13,0.37-0.39,0.24C53.07,114.51,53.18,114.38,53.43,114.49z"/>
		<path class="st6" d="M67.77,113.69c-0.03-0.04-0.07-0.07-0.1-0.11c0.1-0.04,0.16-0.03,0.11,0.1
			C67.78,113.68,67.77,113.69,67.77,113.69z"/>
		<path class="st6" d="M53.79,114.08c0.03,0.14-0.02,0.21-0.16,0.22C53.55,114.14,53.69,114.13,53.79,114.08z"/>
		<path class="st6" d="M53.63,114.3c0,0.15-0.1,0.18-0.21,0.21C53.37,114.31,53.45,114.25,53.63,114.3z"/>
	</g>
	<g>
		<path class="st0" d="M240.65,120.58c-0.32-0.18-0.73-0.28-0.94-0.54c-0.81-1.04-1.64-0.69-2.64-0.29
			c-7.61,3.04-15.06,6.48-22.85,9.04c-6.36,2.09-12.48,4.71-18.3,8.01c-0.27,0.15-0.83,0.13-0.71,0.71
			c-0.01-0.16-0.09-0.2-0.23-0.15c-0.1,0.03-0.15,0.12-0.07,0.19c0.11,0.1,0.22,0.04,0.3-0.08c1.75-0.04,3.51,0.01,5.24-0.18
			c0.66-0.07,1.31-0.58,1.92-0.99c1.93-1.3,3.82-2.67,6.08-3.37c0.99-0.31,2.02-0.44,3.05-0.2c1.96,0.46,2.61,2.65,1.23,4.12
			c-0.77,0.82-1.77,1.26-3.09,1.65c1.61,0.43,3.02,0.43,4.37,0.73c2.23,0.5,3.95,0.12,5.31-1.95c0.94-1.43,2.41-2.46,3.93-3.32
			c1.11-0.63,2.27-1.1,3.58-1.08c1.75,0.03,2.91,1.24,2.85,3.01c-0.07,1.93-1.27,3.17-2.67,4.22c-2.01,1.51-4.36,2.04-6.83,2.15
			c-0.38,0.02-0.79-0.09-1.21,0.13c0.98,1.17,1.9,2.32,2.06,3.9c0.13,1.32-0.05,2.49-1.28,3.2c-1.25,0.72-2.56,0.87-3.88,0.12
			c-0.62-0.35-1.13-0.83-1.49-1.43c-1.11-1.84-1.96-3.77-1.86-5.99c0.01-0.34,0.03-0.66-0.46-0.72c-4.38-0.53-8.7-1.53-13.14-1.63
			c-0.34-0.01-0.72-0.09-1.1,0.14c0.68,0.57,1.29,1.15,1.52,2.04c0.43,1.69-0.46,2.84-2.19,2.81c-1.54-0.03-2.89-0.71-4.27-1.27
			c-0.96-0.39-1.85-0.91-2.52-1.73c-0.32-0.4-0.66-0.35-1.06-0.19c-0.84,0.34-1.55,0.87-2.24,1.46c-3.55,3.01-6.26,6.73-9.06,10.4
			c-2.42,3.17-4.54,6.5-5.67,10.32c-0.74,2.47-1.05,5.07-1.53,7.62c-0.19,1.01-0.34,2.03-0.53,3.04c-0.15,0.77-0.56,1.29-1.44,1.19
			c-0.75-0.09-1.14-0.73-1-1.66c1.6-10.2,3.94-20.22,7.36-29.98c0.87-2.48,1.85-4.92,2.58-7.44c0.87-3,1.04-6.13,1.39-9.23
			c0.53-4.68-0.38-9.14-1.9-13.48c-0.82-2.35-1.36-2.9-4.24-2.91c-1.39-0.01-2.71-0.15-3.88-0.99c-0.5-0.35-0.92-0.76-1.22-1.29
			c-0.9-1.57,0.02-3.37,1.82-3.54c1.02-0.09,1.97,0.22,2.92,0.55c0.46,0.16,0.91,0.33,1.56,0.58c-0.66-1.33-1.22-2.48-1.8-3.63
			c-0.27-0.53-0.62-1.03-0.85-1.58c-0.49-1.15-1.14-1.93-2.44-2.44c-1.7-0.67-2.85-2.13-3.25-4.03c-0.32-1.53,0.35-3.04,1.67-3.7
			c1.25-0.63,2.75-0.3,3.78,0.85c1.43,1.59,1.82,3.52,1.73,5.56c-0.05,1.1,0.32,1.98,1,3.02c0.28-1.08,0.47-2,0.96-2.83
			c0.86-1.48,2.17-2.08,3.78-1.67c1.35,0.34,2.05,1.39,2.1,3.12c0.04,1.25-0.39,2.35-1.08,3.36c-0.75,1.09-1.52,2.17-2.33,3.22
			c-0.35,0.46-0.43,0.82-0.12,1.34c0.73,1.23,1.24,2.55,1.78,4.07c0.37-0.8,0.62-1.45,0.96-2.06c0.65-1.2,1.68-1.96,3-2.28
			c1.54-0.38,2.73,0.4,2.99,1.95c0.3,1.79-0.35,3.34-1.33,4.77c-0.94,1.37-2.03,2.62-3.24,3.76c-0.28,0.27-0.6,0.5-0.47,1
			c0.76,2.81,0.83,5.68,0.75,8.64c0.54-1.13,1.08-2.26,1.63-3.38c7.84-15.78,17.33-30.41,29.94-42.86c0.94-0.93,1.81-1.93,2.74-2.88
			c0.28-0.29,0.3-0.51,0.08-0.85c-0.97-1.47-1.16-3.08-0.71-4.77c0.17-0.39,0.32-0.8,0.52-1.17c0.42-0.79,1.22-1.08,1.92-0.64
			c1.81,1.14,3.75,2.04,5.57,3.18c2.36,1.48,2.63,2.38,0.2,4.06c-1.51,0.84-3.11,1.34-4.86,1.2c-0.43-0.03-0.7,0.14-0.95,0.41
			c-6.96,7.56-13.96,15.09-19.69,23.67c-0.07,0.11-0.19,0.21-0.22,0.33c-0.06,0.23-0.46,0.41-0.18,0.67
			c0.21,0.2,0.42-0.07,0.61-0.17c1.32-0.71,2.7-1.3,4.11-1.79c0.5-0.17,0.72-0.48,0.84-0.98c0.48-2.01,1.03-4,2.24-5.72
			c0.56-0.8,1.21-1.5,2.22-1.73c0.93-0.21,1.81-0.13,2.48,0.62c0.68,0.77,0.7,1.68,0.37,2.62c-0.26,0.74-0.76,1.32-1.26,1.89
			c-0.44,0.51-0.89,1.03-1.53,1.78c3.62-0.87,7.02-1.1,10.39-1.54c0.37-0.05,0.56-0.3,0.81-0.52c1.45-1.36,2.55-3.06,4.05-4.37
			c0.53-0.46,1.08-0.89,1.7-1.21c1.37-0.7,2.78-0.51,3.54,0.47c0.8,1.02,0.71,2.71-0.3,3.76c-1.49,1.56-3.3,2.64-5.36,3.34
			c-2.1,0.71-4.21,1.26-6.7,1.27c1.33,1.31,1.72,2.71,1.64,4.25c-0.09,1.7-1.39,2.56-2.91,1.79c-2.01-1.03-3.79-2.35-4.6-4.6
			c-0.11-0.31-0.2-0.54-0.61-0.44c-3.57,0.9-7.2,1.6-10.46,3.45c-0.12,0.07-0.23,0.14-0.34,0.21c-0.14,0.09-0.31,0.18-0.24,0.38
			c0.07,0.21,0.27,0.14,0.42,0.14c0.76-0.03,1.52-0.05,2.27,0.16c1.26,0.36,2.1,1.2,2.23,2.28c0.12,1.01-0.56,2.15-1.67,2.72
			c-0.9,0.47-1.85,0.71-2.88,0.65c-1.8-0.12-3.58-0.35-5.29-0.91c-0.56-0.18-0.79-0.05-1.08,0.44
			c-6.11,10.03-10.91,20.66-14.56,31.82c-0.92,2.81-1.82,5.63-2.72,8.45c-0.11,0.34-0.2,0.7-0.31,1.09
			c0.42-0.04,0.51-0.35,0.67-0.57c2.62-3.67,5.32-7.27,8.59-10.41c4.77-4.56,10.35-7.83,16.24-10.69c4.56-2.21,9.29-3.92,14.07-5.56
			c5.68-1.96,11.22-4.3,16.76-6.63c1.84-0.77,3.69-1.51,5.54-2.25c0.46-0.18,0.74-0.38,0.77-0.97c0.08-1.58,1.02-2.69,2.26-3.57
			c1.48-0.53,1.83-0.38,2.75,0.87c1.17,1.58,1.65,3.46,2.28,5.26c0.28,0.79-0.25,1.52-1.14,1.82
			C242.66,120.94,241.65,120.91,240.65,120.58z M198.34,106.56c-0.01-0.05-0.02-0.09-0.03-0.14c-0.03,0.02-0.08,0.03-0.08,0.05
			c0,0.05,0.01,0.1,0.02,0.15C198.28,106.6,198.31,106.58,198.34,106.56z M197.68,103.82c-0.02-0.03-0.04-0.06-0.05-0.08
			c-0.03,0.04-0.07,0.07-0.09,0.11c-0.01,0.01,0.03,0.05,0.04,0.08C197.6,103.89,197.64,103.86,197.68,103.82z"/>
		<path class="st7" d="M240.65,120.58c1.01,0.33,2.02,0.36,3.02,0.02c0.89-0.3,1.42-1.03,1.14-1.82c-0.63-1.8-1.11-3.67-2.28-5.26
			c-0.92-1.25-1.27-1.4-2.75-0.87c-0.82-4.28-1.01-8.56-0.02-12.84c0.63-2.7,1.82-5.12,3.8-7.11c0.12-0.12,0.23-0.24,0.36-0.35
			c0.96-0.75,1.94-1.53,3.24-0.9c1.23,0.6,1.24,1.83,1.22,2.94c-0.05,1.96-0.54,3.87-0.99,5.78c-0.62,2.61-1.55,5.14-2.46,7.99
			c1.49-1.38,2.65-2.69,4.03-3.74c2.51-1.9,4.92-3.97,7.95-5.04c0.85-0.3,1.7-0.59,2.62-0.5c1.62,0.16,2.4,1.59,1.64,3.03
			c-0.36,0.69-0.89,1.24-1.47,1.74c-2.21,1.92-4.5,3.73-6.96,5.32c-0.39,0.25-0.73,0.57-1.09,0.85c-0.12,0.08-0.24,0.15-0.36,0.23
			c-0.03,0.01-0.06,0.01-0.08,0.02c-0.01,0.01-0.01,0.03-0.02,0.05c0.03-0.03,0.06-0.06,0.09-0.09c0.16,0.13,0.32,0.09,0.47-0.02
			c2.66-0.57,5.3-1.24,8.05-1.13c0.99,0.04,1.99,0.03,2.96,0.28c0.92,0.24,1.67,0.72,1.81,1.75c0.13,1.01-0.53,1.6-1.3,2.06
			c-1.12,0.68-2.39,0.96-3.65,1.28c-0.31,0.08-0.63,0.15-0.96,0.38c0.39,0.07,0.79,0.15,1.18,0.22c1.62,0.27,3.19,0.71,4.46,1.81
			c2.09,1.8,1.74,3.85-0.8,4.92c-2.09,0.88-4.23,0.69-6.36,0.27c-0.94-0.18-1.85-0.51-2.83-0.71c1.64,1.32,3.03,2.84,4.11,4.63
			c0.24,0.4,0.48,0.8,0.66,1.22c0.25,0.61,0.29,1.25-0.22,1.76c-0.49,0.49-1.09,0.58-1.75,0.38c-1.16-0.34-2.18-0.96-3.18-1.63
			c-2.26-1.51-4.5-3.05-6.75-4.57c-0.22-0.15-0.46-0.25-0.69-0.38c0-0.09-0.01-0.17-0.13-0.09c0.03,0.04,0.06,0.08,0.09,0.12
			c-0.02,0.91,0.38,1.73,0.57,2.6c0.41,1.86,0.6,3.72,0.3,5.62c-0.16,1-0.56,1.86-1.59,2.22c-0.98,0.33-1.82-0.06-2.58-0.66
			c-0.91-0.72-1.23-1.77-1.52-2.83C240.84,126.6,240.69,123.59,240.65,120.58z"/>
		<path class="st7" d="M223.66,77.41c2.43-1.68,2.16-2.58-0.2-4.06c-1.82-1.14-3.76-2.04-5.57-3.18c-0.7-0.44-1.5-0.15-1.92,0.64
			c-0.2,0.38-0.35,0.78-0.52,1.17c-0.73-0.69-1.32-1.5-1.84-2.35c-2.1-3.47-4.1-7-5.23-10.93c-0.66-2.3-0.87-4.64-0.08-6.96
			c0.44-1.28,1.01-2.59,2.59-2.68c1.55-0.09,2.23,1.17,2.78,2.35c1.08,2.31,1.35,4.85,1.98,7.29c0.8,3.04,1.67,6.07,2.35,9.17
			c0.31-1.9,0.58-3.81,0.93-5.7c0.51-2.74,0.96-5.51,2.17-8.06c0.62-1.3,1.42-2.49,2.6-3.35c0.89-0.65,1.88-1.1,2.97-0.54
			c1.12,0.57,1.26,1.67,1.16,2.76c-0.25,2.94-1.12,5.73-2.08,8.5c-0.49,1.41-1.01,2.81-1.58,4.4c0.76-0.62,1.14-1.31,1.6-1.93
			c1.95-2.61,4.16-4.91,7.1-6.43c1.6-0.83,3.29-1.24,5.09-1.1c2.25,0.17,3.2,1.92,1.94,3.78c-2.12,3.13-4.74,5.81-7.95,7.85
			c-0.33,0.21-0.65,0.45-0.97,0.68c-0.09,0.04-0.28,0.04-0.22,0.18c0.05,0.12,0.2,0.07,0.29-0.02c2.26-0.33,4.49-0.91,6.81-0.69
			c1.13,0.11,2.25,0.32,3.21,0.95c1.85,1.23,1.76,3.25-0.21,4.28c-1.64,0.85-3.42,1.27-5.24,1.49c-2.2,0.27-4.41,0.45-6.68,0.56
			c0.84,0.39,1.7,0.75,2.53,1.16c2.57,1.27,4.73,3.05,6.53,5.27c0.33,0.41,0.62,0.87,0.83,1.35c0.56,1.24-0.16,2.31-1.52,2.29
			c-1.37-0.02-2.6-0.53-3.76-1.19C230.04,82.38,226.7,80.11,223.66,77.41z"/>
		<path class="st6" d="M251.75,110.01c-0.15,0.12-0.31,0.16-0.47,0.02l0.01,0.02c0.12-0.08,0.24-0.15,0.36-0.23
			C251.68,109.88,251.72,109.95,251.75,110.01z"/>
		<path class="st6" d="M246.46,122.59c-0.03-0.04-0.06-0.08-0.09-0.12c0.12-0.08,0.13,0,0.13,0.09
			C246.5,122.57,246.46,122.59,246.46,122.59z"/>
		<path class="st6" d="M251.28,110.03c-0.03,0.03-0.06,0.06-0.09,0.09c0-0.02,0-0.05,0.02-0.05c0.02-0.01,0.06-0.02,0.08-0.02
			C251.29,110.05,251.28,110.03,251.28,110.03z"/>
		<path class="st6" d="M231.07,68.88c-0.09,0.09-0.24,0.15-0.29,0.02c-0.06-0.14,0.13-0.13,0.22-0.18
			C231.02,68.78,231.04,68.83,231.07,68.88z"/>
	</g>
	<g>
		<path class="st0" d="M45.44,197.94c-0.77-0.53-1.08-1.38-0.6-2.06c1.1-1.56,2.07-3.23,3.63-4.44c1.23-0.95,1.6-1,2.89-0.09
			c0.95,1.19,1.55,2.5,1.2,4.05c-0.13,0.58,0.08,0.84,0.47,1.14c1.58,1.21,3.16,2.43,4.72,3.67c4.69,3.76,9.38,7.52,14.32,10.96
			c4.15,2.89,8.24,5.82,12.02,9.19c4.89,4.35,9.37,9.02,12.7,14.71c2.3,3.92,3.91,8.12,5.43,12.36c0.09,0.26,0.1,0.58,0.49,0.73
			c0-0.41,0.01-0.77,0-1.13c-0.1-2.96-0.2-5.91-0.31-8.87c-0.46-11.73-2.18-23.26-5.32-34.58c-0.15-0.55-0.33-0.74-0.92-0.72
			c-1.8,0.07-3.58-0.19-5.34-0.57c-1-0.22-1.86-0.72-2.59-1.41c-0.91-0.86-1.25-2.14-0.87-3.08c0.42-1,1.45-1.59,2.76-1.58
			c0.78,0,1.5,0.23,2.23,0.47c0.15,0.05,0.32,0.17,0.44-0.02c0.12-0.18-0.02-0.31-0.13-0.43c-0.09-0.1-0.18-0.2-0.27-0.29
			c-2.63-2.67-5.93-4.33-9.12-6.18c-0.37-0.21-0.52-0.01-0.71,0.26c-1.39,1.95-3.47,2.73-5.68,3.17c-1.67,0.33-2.69-0.85-2.31-2.51
			c0.34-1.51,1.1-2.74,2.73-3.64c-2.39-0.68-4.27-1.79-6.1-3.05c-1.79-1.23-3.23-2.76-4.24-4.67c-0.68-1.29-0.31-2.93,0.74-3.7
			c1-0.73,2.41-0.53,3.54,0.51c0.51,0.48,0.92,1.04,1.3,1.63c1.09,1.68,1.68,3.61,2.71,5.32c0.17,0.29,0.29,0.58,0.63,0.72
			c3.12,1.34,6.32,2.49,9.57,4.32c-0.42-0.9-0.7-1.51-0.99-2.13c-0.32-0.69-0.65-1.39-0.69-2.17c-0.06-0.99,0.21-1.87,1.07-2.42
			c0.84-0.54,1.71-0.37,2.55,0.08c0.92,0.49,1.34,1.35,1.67,2.27c0.7,1.99,0.67,4.05,0.59,6.11c-0.02,0.52,0.11,0.87,0.54,1.17
			c1.23,0.86,2.39,1.8,3.47,2.84c0.15,0.15,0.28,0.47,0.54,0.33c0.34-0.18,0.01-0.46,0.01-0.7c0-0.12-0.08-0.25-0.12-0.38
			c-3.17-9.82-7.85-18.97-12.48-28.15c-0.17-0.33-0.37-0.57-0.8-0.65c-1.71-0.35-3.12-1.26-4.34-2.48c-1.88-2.28-1.37-3.07,1.3-3.85
			c2.06-0.6,4.17-0.94,6.23-1.54c0.8-0.23,1.48,0.27,1.67,1.14c0.09,0.42,0.12,0.85,0.18,1.27c-0.03,1.75-0.65,3.24-1.99,4.39
			c-0.31,0.27-0.35,0.49-0.16,0.84c0.63,1.17,1.19,2.37,1.84,3.52c8.73,15.42,13.87,32.08,17.11,49.4c0.23,1.23,0.43,2.47,0.65,3.7
			c0.73-2.86,1.58-5.6,3.08-8.1c0.26-0.44,0.02-0.75-0.18-1.09c-0.85-1.43-1.56-2.93-2.09-4.51c-0.55-1.64-0.76-3.31,0.02-4.95
			c0.68-1.43,2.04-1.84,3.41-1.06c1.18,0.67,1.96,1.68,2.26,3.01c0.15,0.68,0.22,1.38,0.36,2.25c0.93-1.31,1.79-2.45,2.82-3.43
			c0.43-0.41,0.46-0.78,0.25-1.32c-0.49-1.23-0.94-2.48-1.36-3.73c-0.39-1.15-0.49-2.33-0.12-3.52c0.52-1.65,1.48-2.47,2.87-2.43
			c1.65,0.05,2.75,0.98,3.18,2.64c0.24,0.93,0.17,1.87,0.15,2.98c0.94-0.82,1.54-1.56,1.79-2.63c0.46-1.99,1.37-3.74,3.18-4.88
			c1.31-0.82,2.84-0.73,3.87,0.21c1.09,1,1.33,2.63,0.6,4.02c-0.9,1.72-2.4,2.81-4.22,2.99c-1.39,0.13-2.22,0.71-3.01,1.68
			c-0.37,0.46-0.85,0.85-1.25,1.29c-0.87,0.94-1.73,1.9-2.72,3c0.69-0.06,1.18-0.1,1.66-0.13c1-0.05,2-0.1,2.95,0.27
			c1.68,0.65,2.08,2.63,0.79,3.9c-0.43,0.43-0.95,0.7-1.53,0.91c-1.35,0.49-2.66,0.27-4-0.11c-2.77-0.77-3.44-0.39-4.87,1.64
			c-2.65,3.76-4.74,7.8-5.51,12.45c-0.51,3.08-1.2,6.13-1.18,9.26c0.02,2.62,0.29,5.24,0.45,7.86c0.63,10.32,0.15,20.6-1.1,30.85
			c-0.11,0.93-0.66,1.44-1.41,1.33c-0.87-0.14-1.12-0.75-1.06-1.53c0.09-1.03,0.23-2.05,0.32-3.07c0.23-2.58,0.64-5.17,0.6-7.75
			c-0.05-3.98-1.18-7.77-2.64-11.47c-1.69-4.29-3.29-8.61-5.88-12.48c-0.5-0.75-1.04-1.46-1.76-2.02c-0.34-0.27-0.66-0.4-1.07-0.11
			c-0.86,0.61-1.86,0.87-2.89,0.98c-1.48,0.16-2.96,0.45-4.46,0.06c-1.68-0.44-2.22-1.8-1.34-3.3c0.46-0.8,1.21-1.19,2.02-1.55
			c-0.31-0.33-0.69-0.35-1.02-0.44c-4.29-1.11-8.72-1.33-13.08-2.02c-0.48-0.08-0.55,0.23-0.63,0.56c-0.52,2.16-1.86,3.79-3.43,5.26
			c-0.52,0.48-1.14,0.8-1.83,0.97c-1.47,0.36-2.7-0.15-3.7-1.18c-0.99-1.02-0.84-2.2-0.35-3.43c0.58-1.48,1.79-2.34,3.04-3.19
			c-0.35-0.33-0.76-0.34-1.13-0.46c-2.34-0.78-4.46-1.93-5.98-3.93c-1.06-1.4-1.88-2.92-1.42-4.79c0.42-1.71,1.87-2.56,3.56-2.11
			c1.27,0.33,2.26,1.1,3.15,2.01c1.22,1.25,2.35,2.64,2.87,4.27c0.75,2.36,2.3,3.2,4.58,3.32c1.38,0.08,2.74,0.46,4.4,0.49
			c-1.17-0.74-2.01-1.43-2.52-2.43c-0.92-1.79,0.3-3.72,2.31-3.63c1.05,0.05,2.01,0.45,2.88,1.02c1.98,1.29,3.43,3.13,4.93,4.9
			c0.48,0.56,0.96,1.23,1.58,1.48c1.62,0.65,3.32,1.08,5,1.6c0.04,0.13,0.13,0.22,0.26,0.16c0.09-0.04,0.07-0.14-0.01-0.2
			c-0.12-0.08-0.21-0.07-0.26,0.08c0.28-0.53-0.27-0.66-0.49-0.88c-4.7-4.77-9.87-8.95-15.41-12.7c-6.8-4.59-13.03-9.93-19.52-14.93
			c-0.86-0.66-1.56-1.22-2.62-0.44c-0.27,0.2-0.7,0.18-1.05,0.27C47.29,198.79,46.31,198.55,45.44,197.94z M92.95,196.89
			c0.02-0.04,0.05-0.09,0.06-0.13c0-0.02-0.04-0.04-0.06-0.07c-0.02,0.04-0.05,0.09-0.07,0.13
			C92.9,196.84,92.92,196.87,92.95,196.89z M94.34,194.49c0.02-0.02,0.06-0.05,0.06-0.07c-0.01-0.05-0.04-0.09-0.06-0.13
			c-0.02,0.02-0.05,0.04-0.07,0.06C94.29,194.41,94.31,194.45,94.34,194.49z"/>
		<path class="st7" d="M48.35,198.75c-1.06,0.04-2.04-0.2-2.91-0.81c-0.77-0.53-1.08-1.38-0.6-2.06c1.1-1.56,2.07-3.23,3.63-4.44
			c1.23-0.95,1.6-1,2.89-0.09c1.96-3.89,3.31-7.96,3.52-12.34c0.13-2.77-0.36-5.42-1.71-7.87c-0.08-0.15-0.15-0.3-0.25-0.43
			c-0.72-0.98-1.45-2-2.87-1.75c-1.35,0.24-1.7,1.42-1.98,2.5c-0.49,1.9-0.54,3.87-0.62,5.83c-0.12,2.68,0.09,5.36,0.18,8.36
			c-1.06-1.74-1.81-3.31-2.86-4.7c-1.9-2.51-3.65-5.16-6.27-7.02c-0.73-0.52-1.47-1.03-2.38-1.2c-1.6-0.29-2.74,0.87-2.4,2.47
			c0.16,0.76,0.52,1.43,0.94,2.07c1.6,2.45,3.31,4.81,5.24,7.01c0.3,0.35,0.55,0.74,0.82,1.12c0.09,0.11,0.19,0.21,0.29,0.32
			c0.03,0.01,0.05,0.03,0.07,0.04c0.01,0.01,0,0.04,0,0.05c-0.02-0.04-0.04-0.08-0.06-0.11c-0.19,0.08-0.33,0-0.44-0.15
			c-2.4-1.28-4.76-2.64-7.44-3.29c-0.97-0.23-1.92-0.51-2.93-0.54c-0.96-0.02-1.81,0.23-2.22,1.19c-0.4,0.94,0.08,1.68,0.69,2.33
			c0.9,0.96,2.04,1.58,3.16,2.23c0.28,0.16,0.56,0.31,0.82,0.63c-0.4-0.04-0.8-0.07-1.2-0.12c-1.64-0.18-3.26-0.18-4.79,0.52
			c-2.5,1.16-2.72,3.23-0.57,4.95c1.77,1.42,3.88,1.81,6.05,2c0.95,0.08,1.92,0.01,2.91,0.09c-1.94,0.82-3.69,1.91-5.22,3.33
			c-0.34,0.32-0.68,0.63-0.97,1c-0.41,0.52-0.62,1.12-0.27,1.76c0.34,0.61,0.89,0.85,1.58,0.85c1.21-0.01,2.36-0.33,3.5-0.7
			c2.59-0.84,5.16-1.71,7.74-2.56c0.25-0.08,0.51-0.12,0.77-0.17c0.03-0.09,0.06-0.16,0.15-0.05c-0.04,0.03-0.08,0.06-0.11,0.09
			c-0.23,0.88-0.84,1.56-1.26,2.34c-0.9,1.68-1.59,3.42-1.83,5.32c-0.12,1.01,0.03,1.95,0.93,2.57c0.85,0.59,1.77,0.44,2.66,0.07
			c1.07-0.45,1.67-1.37,2.24-2.31C46.53,204.49,47.49,201.64,48.35,198.75z"/>
		<path class="st7" d="M76.48,161.86c-1.88-2.28-1.37-3.07,1.3-3.85c2.06-0.6,4.17-0.94,6.23-1.54c0.8-0.23,1.48,0.27,1.67,1.14
			c0.09,0.42,0.12,0.85,0.18,1.27c0.89-0.46,1.68-1.08,2.41-1.76c2.96-2.77,5.85-5.62,8.01-9.09c1.27-2.04,2.1-4.23,1.98-6.68
			c-0.07-1.35-0.26-2.77-1.76-3.29c-1.47-0.51-2.46,0.52-3.31,1.5c-1.67,1.93-2.62,4.3-3.9,6.47c-1.6,2.71-3.26,5.38-4.77,8.18
			c0.22-1.91,0.48-3.82,0.66-5.73c0.25-2.78,0.58-5.56,0.11-8.35c-0.24-1.42-0.68-2.78-1.58-3.93c-0.68-0.87-1.51-1.57-2.71-1.33
			c-1.23,0.25-1.67,1.27-1.87,2.34c-0.56,2.89-0.49,5.82-0.32,8.74c0.09,1.49,0.2,2.98,0.31,4.67c-0.56-0.81-0.74-1.57-1.01-2.29
			c-1.16-3.04-2.66-5.86-5.07-8.13c-1.31-1.23-2.83-2.09-4.6-2.45c-2.21-0.45-3.6,0.97-2.9,3.1c1.19,3.59,2.97,6.88,5.51,9.73
			c0.26,0.3,0.5,0.61,0.75,0.92c0.07,0.07,0.26,0.11,0.16,0.23c-0.08,0.1-0.21,0.01-0.27-0.1c-2.08-0.93-4.07-2.1-6.36-2.52
			c-1.12-0.21-2.25-0.31-3.35,0.04c-2.12,0.67-2.58,2.65-0.96,4.17c1.34,1.27,2.95,2.15,4.64,2.87c2.04,0.86,4.12,1.64,6.27,2.37
			c-0.92,0.14-1.84,0.26-2.75,0.43c-2.82,0.52-5.38,1.65-7.73,3.29c-0.43,0.3-0.83,0.67-1.17,1.07c-0.88,1.03-0.47,2.27,0.84,2.62
			c1.32,0.35,2.64,0.2,3.94-0.12C68.98,164.9,72.82,163.63,76.48,161.86z"/>
		<path class="st6" d="M40.56,185.56c0.11,0.15,0.25,0.23,0.44,0.15l-0.02,0.01c-0.1-0.11-0.19-0.21-0.29-0.32
			C40.65,185.45,40.61,185.5,40.56,185.56z"/>
		<path class="st6" d="M42.21,199.1c0.04-0.03,0.08-0.06,0.11-0.09c-0.09-0.11-0.12-0.04-0.15,0.05
			C42.18,199.07,42.21,199.1,42.21,199.1z"/>
		<path class="st6" d="M41,185.71c0.02,0.04,0.04,0.08,0.06,0.11c0-0.02,0.01-0.05,0-0.05c-0.02-0.02-0.05-0.03-0.07-0.04
			C40.99,185.72,41,185.71,41,185.71z"/>
		<path class="st6" d="M71.68,151.64c0.06,0.11,0.19,0.21,0.27,0.1c0.09-0.12-0.09-0.16-0.16-0.23
			C71.75,151.55,71.72,151.59,71.68,151.64z"/>
	</g>
	<path class="st0" d="M20.18,137.56c0.46,2.22,0.92,4.4,2.32,6.32c1.26,1.72,2.02,3.73,2.27,5.88c0.11,0.92,0.01,1.8-0.53,2.59
		c-0.6,0.88-1.58,1.21-2.57,0.83c-1.37-0.53-2.01-1.64-2.25-3.02c-0.36-2.09-0.2-4.19-0.1-6.29c0.02-0.38,0.04-0.77-0.09-1.19
		c-0.23,0.49-0.44,1-0.68,1.48c-0.58,1.18-1.39,2.11-2.66,2.59c-1.47,0.56-2.66-0.05-3-1.58c-0.41-1.82-0.13-3.54,0.79-5.16
		c1.01-1.78,2.32-3.32,3.71-4.8c0.18-0.19,0.39-0.34,0.33-0.68c-0.27-1.45-0.28-2.92-0.39-4.45c-0.41,0.28-0.55,0.71-0.8,1.04
		c-0.61,0.8-1.22,1.59-2.2,1.98c-1.43,0.57-2.5,0.04-2.8-1.46c-0.53-2.65,0.53-4.67,2.6-6.24c0.86-0.65,1.8-1.17,2.79-1.59
		c0.36-0.15,0.55-0.33,0.56-0.73c0.06-2.25,0.31-4.48,0.6-6.71c0.02-0.15,0.14-0.36-0.07-0.45c-0.21-0.1-0.28,0.13-0.4,0.23
		c-0.52,0.44-1.03,0.9-1.56,1.33c-0.56,0.45-1.19,0.75-1.91,0.87c-1.61,0.28-2.73-0.55-2.89-2.19c-0.17-1.75,0.62-3.06,1.93-4.12
		c1.03-0.84,2.16-1.54,3.44-1.89c1.36-0.38,2.34-1.39,3.57-1.97c0.09-0.05,0.16-0.18,0.21-0.29c1-2.44,2.09-4.84,2.2-7.54
		c0.06-1.6-0.1-3.17-0.46-4.73c-0.09-0.4-0.19-0.81-0.23-1.22c-0.05-0.53,0.09-1,0.71-1.1c0.57-0.09,0.84,0.27,0.99,0.76
		c0.87,2.95,1.15,5.93,0.44,8.97c-0.48,2.06-1.41,3.94-2.22,5.88c-0.16,0.39-0.09,0.68-0.01,1.08c0.37,1.88,1.61,3.24,2.62,4.73
		c0.9,1.33,1.35,2.81,1.42,4.4c0.06,1.24-0.44,2.1-1.36,2.43c-0.97,0.36-2.09,0.02-2.82-0.87c-0.66-0.8-1.06-1.75-1.41-2.71
		c-0.12-0.31-0.23-0.63-0.41-0.93c-0.3,1.67-0.37,3.35-0.52,5.03c-0.07,0.75,0.1,1.06,0.89,1.36c2.27,0.88,4.4,2.03,5.62,4.32
		c0.75,1.41,0.76,2.52-0.01,3.33c-0.74,0.78-2.08,0.86-3.42,0.2c-0.76-0.37-1.25-0.99-1.71-1.67c-0.47-0.69-0.95-1.38-1.49-2.05
		c-0.11,1.67-0.03,3.32,0.09,4.96c0.03,0.43,0.37,0.34,0.6,0.35c3.1,0.15,5.18,1.9,6.81,4.35c0.24,0.37,0.39,0.78,0.47,1.22
		c0.15,0.85,0.14,1.7-0.62,2.27c-0.77,0.58-1.64,0.59-2.5,0.2c-1.02-0.46-1.83-1.21-2.57-2.03c-0.42-0.47-0.79-0.99-1.18-1.49
		c-0.06-0.07-0.12-0.13-0.18-0.2C20.07,137.34,20.12,137.45,20.18,137.56z M18.13,115.78c-0.02-0.02-0.04-0.03-0.06-0.05
		c-0.01,0.03-0.03,0.07-0.04,0.1c0,0.01,0.03,0.03,0.05,0.04C18.1,115.85,18.11,115.82,18.13,115.78z"/>
	<g>
		<path class="st0" d="M188.39,184.98c-1.28,2.72-0.04,4.97,1.47,7.08c0.45,0.63,0.48,0.95,0.07,1.57
			c-1.58,2.38-3.22,4.72-4.85,7.06c-5.67,8.13-9.87,16.97-12.64,26.49c-0.29,1.01-0.44,2.06-0.7,3.34
			c-0.61-1.02-0.72-1.91-0.75-2.82c-0.05-1.72,0.3-3.43,0.07-5.16c-0.26-1.89-1.07-3.41-2.79-4.33c-1.2-0.64-2.32-0.4-3.22,0.62
			c-0.92,1.04-1.12,2.31-1.11,3.62c0.01,1.09,0.07,2.19,0.16,3.28c0.21,2.6,1.61,4.52,3.66,6c0.75,0.54,1.53,1.09,2.38,1.45
			c0.88,0.38,0.89,0.85,0.69,1.67c-0.93,3.79-2.03,7.5-4.25,10.78c-0.62,0.91-1.33,1.74-2.13,2.49c-0.6,0.56-1.29,0.88-2.1,1.04
			c-4.29,0.84-8.63,0.96-12.97,1.07c-3.42,0.09-6.83,0.38-10.25,0.25c-0.66-0.02-1.19,0.29-1.3,0.99c-0.12,0.73,0.28,1.21,0.96,1.43
			c0.74,0.23,1.52,0.15,2.28,0.13c4.01-0.14,8.03-0.47,12.03-0.38c1.69,0.04,3.38,0.29,5.08,0.14c1.18-0.1,2.22,0.33,3.22,0.86
			c2.43,1.31,3.22,3.57,3.4,6.14c0.06,0.89,0.09,1.79,0.22,2.68c0.21,1.46,0.96,2.6,2.21,3.39c2.21,1.41,4.69,0.81,5.8-1.57
			c2.83-6.09-0.12-11.15-5.41-13.01c-0.4-0.14-0.8-0.25-1.48-0.46c2.61-0.71,4.89-1.55,7.16-2.44c2.57-1.01,5.13-2.04,7.5-3.45
			c1.33-0.79,2.53-0.55,3.75-0.03c1.43,0.61,2.77,1.46,4.22,2.02c4.24,1.62,8.68,1.7,13.14,1.46c1.16-0.06,2.31-0.25,3.46-0.4
			c1.6-0.21,2.85,0.82,2.9,2.47c0.03,1.16-0.05,2.32-0.01,3.48c0.07,1.99,0.97,3.64,2.26,5.08c1.24,1.38,2.96,1.43,4.45,0.2
			c2.09-1.72,2.64-4.66,1.44-7.46c-0.87-2.03-2.22-3.6-4.2-4.61c-0.24-0.12-0.46-0.27-0.68-0.41c-0.02-0.01-0.02-0.06-0.04-0.15
			c1.03-0.4,2.1-0.75,3.11-1.2c3.68-1.64,7.07-3.78,10.39-6.03c0.62-0.42,1.14-0.56,1.83-0.25c1.56,0.68,3.2,0.79,4.88,0.63
			c1.34-0.12,2.53-0.54,3.35-1.68c0.23-1.36-0.01-2.56-1.18-3.43c-1.09-0.81-2.37-0.83-3.67-0.77c1.11-3.19,0.4-4.87-2.27-5.53
			c-1.73,0.21-2.58,1.38-3.04,2.9c-0.47,1.58-0.54,3.2-0.38,4.83c0.06,0.58-0.08,0.94-0.55,1.25c-5.36,3.57-10.92,6.72-17.35,7.95
			c-1.96,0.37-3.94,0.58-6.14,0.74c1.01-0.94,1.97-1.68,2.7-2.66c1.61-2.14,1.72-5.08,0.22-6.83c-0.82-0.95-1.88-1.48-3.1-1.64
			c-2.23-0.28-4.08,1.54-3.78,3.89c0.21,1.7-0.12,3.23-0.8,4.73c-0.81,1.79-1.78,2.22-3.69,1.86c-2.44-0.46-4.43-1.92-6.8-2.88
			c1.34-0.93,2.56-1.8,3.8-2.64c4.26-2.87,7.66-6.63,10.95-10.5c0.71-0.83,1.52-1.58,2.25-2.39c0.4-0.44,0.63-0.49,1.16-0.05
			c3.26,2.68,6.94,3.35,10.9,1.89c1.53-0.56,2.64-1.67,2.83-3.43c0.18-1.62-0.59-2.75-2.19-3.04c-2.14-0.38-4.22-0.27-6.17,0.87
			c-1.01,0.58-2.03,1.25-3.51,0.97c1.59-1.55,3.13-2.96,4.41-4.58c2.73-3.47,6.29-5.74,10.26-7.5c0.49-0.21,0.81-0.23,1.24,0.12
			c0.58,0.48,1.32,0.63,2.06,0.63c1.46-0.01,2.92-0.05,4.38-0.08c1.15-0.32,2.29-0.66,2.39-2.12c0.08-1.04-0.57-1.98-1.79-2.34
			c-0.83-0.25-0.89-0.48-0.51-1.23c0.53-1.04,0.93-2.22,0.01-3.26c-0.88-1-1.98-0.62-3.04-0.28c0,0,0.01-0.01,0.01-0.01
			c0.07,0.17-0.06,0.19-0.17,0.22c-1.28,1.46-2.1,3.23-3.13,4.85c-0.28,0.45-0.61,0.7-1.11,0.89c-4.77,1.82-9.11,4.28-12.39,8.35
			c-2.13,2.64-4.76,4.81-7.19,7.16c-2.22,2.15-4.26,4.47-6.24,6.85c-2.26,2.72-5.22,4.58-8.04,6.86c-0.24-1.11,0.15-1.86,0.75-2.54
			c0.51-0.57,1.07-1.09,1.58-1.65c0.96-1.05,1.43-2.3,1.49-3.71c0.09-1.76-0.99-3.15-2.73-3.51c-2.14-0.43-4.04,0.46-4.95,2.43
			c-1.59,3.47-1.43,6.89,0.51,10.2c0.24,0.41,0.42,0.64-0.15,0.99c-4.52,2.79-9.37,4.83-14.36,6.59c-0.05,0.02-0.11-0.02-0.26-0.06
			c0.55-0.92,1.08-1.83,1.62-2.72c1.95-3.24,2.71-6.9,3.65-10.49c0.78-2.98,1.02-6.08,2.05-9c1.01-2.85,2.09-5.67,3.3-8.43
			c0.24-0.54,0.44-0.64,1.02-0.49c2.71,0.68,5.44,0.81,8.17,0.12c1.23-0.31,2.27-0.93,3.09-1.89c0.86-1.01,1.41-2.15,0.86-3.48
			c-0.54-1.28-1.68-1.85-2.98-2.04c-1.36-0.2-2.62,0.11-3.76,0.96c-1.32,0.98-2.58,2.08-4.17,2.67c-0.19-0.33,0.06-0.52,0.16-0.73
			c1.62-3.32,3.46-6.51,5.64-9.5c2.23-3.06,4.33-6.22,6.41-9.39c0.26-0.4,0.57-0.7,1.04-0.86c1.45-0.5,2.63-1.38,3.56-2.6
			c0.28-0.7,0.68-1.35,0.79-2.13c0.27-1.93-1.2-3.29-3.1-2.86c-0.5,0.11-0.94,0.34-1.31,0.67c-0.39,0.34-0.63,0.5-0.88-0.17
			c-0.27-0.73-0.91-1.11-1.67-1.27C190.4,183.5,189.31,183.99,188.39,184.98z"/>
		<path class="st2" d="M227.92,228.31c2.67,0.67,3.38,2.34,2.27,5.53c1.3-0.05,2.58-0.04,3.67,0.77c1.17,0.87,1.41,2.07,1.18,3.43
			c2.91,0.29,5.76,0.02,8.57-0.79c1.3-0.37,2.33-1.09,3.11-2.19c0.89-1.25,1.03-2.57,0.31-3.94c-0.69-1.33-1.87-1.82-3.31-1.76
			c-0.56,0.02-1.12,0.1-1.74,0.15c0.1-0.44,0.51-0.58,0.78-0.83c1.18-1.07,1.97-2.29,1.92-3.97c-0.07-2.57-1.71-3.79-4.2-3.04
			c-0.83,0.25-1.59,0.63-2.54,1.13c0.2-0.71,0.37-1.25,0.49-1.8c0.23-1.11,0.29-2.21-0.69-3.03c-1.03-0.86-2.22-0.85-3.39-0.42
			c-1.75,0.65-3.22,1.73-4.23,3.33C228.68,223.15,227.85,225.6,227.92,228.31z"/>
		<path class="st4" d="M224.66,203.5c1.06-0.33,2.16-0.72,3.04,0.28c0.91,1.04,0.51,2.22-0.01,3.26c-0.38,0.75-0.32,0.98,0.51,1.23
			c1.21,0.36,1.86,1.3,1.79,2.34c-0.11,1.46-1.25,1.81-2.39,2.12c3.59,1.39,7.3,1.61,11.07,1.01c1.3-0.21,2.45-0.83,3.4-1.77
			c1.94-1.92,1.16-4.9-1.47-5.66c-0.65-0.19-1.31-0.16-1.98-0.2c-0.22-0.01-0.5,0.14-0.64-0.13c-0.15-0.29,0.1-0.5,0.25-0.7
			c0.27-0.34,0.57-0.65,0.84-0.98c0.29-0.36,0.61-0.71,0.82-1.12c0.54-1.04,0.89-2.13,0.05-3.18c-0.82-1.01-1.92-1.05-3.09-0.74
			c-0.38,0.1-0.74,0.3-1.17,0.24c-0.14-0.45,0.22-0.74,0.36-1.08c1.04-2.43-0.22-4.22-2.85-4.07c-1.3,0.07-2.49,0.46-3.56,1.15
			c-2.58,1.67-4.38,3.93-4.98,7.03C224.59,202.86,224.44,203.18,224.66,203.5z"/>
		<path class="st1" d="M188.39,184.98c0.92-0.99,2.01-1.48,3.38-1.2c0.76,0.16,1.4,0.53,1.67,1.27c0.24,0.67,0.49,0.51,0.88,0.17
			c0.38-0.33,0.82-0.56,1.31-0.67c1.9-0.43,3.38,0.94,3.1,2.86c-0.11,0.77-0.5,1.43-0.79,2.13c4-0.32,7.35-2.87,8.43-6.39
			c0.43-1.41,0.29-2.72-0.79-3.77c-1.08-1.04-2.36-0.87-3.62-0.35c-0.46,0.19-0.9,0.43-1.34,0.65c-0.18,0.09-0.38,0.21-0.56,0.07
			c-0.17-0.15-0.08-0.37-0.02-0.56c0.3-1.05,0.61-2.1,0.59-3.21c-0.03-1.42-0.66-2.5-1.74-2.86c-1.25-0.41-2.27,0.04-3.14,0.95
			c-0.62,0.65-1.05,1.45-1.54,2.19c-0.31,0.46-0.63,0.71-0.96-0.05c-0.61-1.46-1.61-2.44-3.33-2.32c-1.36,0.1-2.69,1.34-3.16,2.95
			c-0.6,2.08-0.19,4.08,0.57,6.03C187.62,183.58,188.03,184.27,188.39,184.98z"/>
		<path class="st5" d="M224.49,203.72c0.11-0.03,0.24-0.06,0.17-0.22C224.47,203.46,224.49,203.6,224.49,203.72z"/>
	</g>
	<g>
		<path class="st2" d="M155.7,196.05c1.06-0.99,1.49-2.36,2.05-3.62c0.91-2.03,1.46-4.15,1.09-6.41c-0.21-1.32-0.77-2.46-1.74-3.38
			c-1.34-1.28-3.33-1.19-4.55,0.18c-0.87,0.98-1.33,2.14-1.48,3.43c-0.04,0.35-0.05,0.7-0.26,1.07c-0.59-0.71-0.85-1.53-1.25-2.28
			c-0.51-0.95-1.26-1.58-2.31-1.84c-1.48-0.37-2.71,0.53-2.83,2.05c-0.05,0.64,0.06,1.26,0.24,1.87c0.14,0.49,0.3,0.99,0.23,1.51
			c-0.34,0.09-0.42-0.17-0.57-0.31c-0.45-0.41-0.85-0.87-1.33-1.23c-1.75-1.32-3.91-0.45-4.32,1.72c-0.49,2.52,0.12,4.75,1.75,6.71
			c1.43,1.73,3.16,3.05,5.36,3.66c-0.38-2.1,0.75-3.39,2.86-3.21c0.51,0.04,1.06,0.14,1.51,0.36c0.62,0.3,0.83,0.29,0.97-0.48
			c0.16-0.92,0.64-1.75,1.63-2c0.89-0.23,1.67,0.12,2.31,0.79C155.42,195.05,155.47,195.59,155.7,196.05z"/>
		<path class="st0" d="M155.7,196.05c-0.23-0.46-0.28-1.01-0.66-1.4c-0.63-0.67-1.41-1.01-2.31-0.79c-0.99,0.25-1.47,1.08-1.63,2
			c-0.13,0.76-0.35,0.78-0.97,0.48c-0.46-0.22-1-0.32-1.51-0.36c-2.11-0.18-3.24,1.1-2.86,3.21c0.66,0.92,1.62,1.27,2.69,1.39
			c1.06,0.12,2.13,0.25,3.2,0.29c0.47,0.02,0.72,0.2,0.99,0.55c1.78,2.27,3.57,4.54,6.21,5.92c0.71,0.37,1.46,0.64,2.28,0.58
			c0.51-0.03,0.83-0.3,0.88-0.81c0.06-0.51-0.21-0.88-0.7-0.96c-1.86-0.29-3.16-1.44-4.37-2.74c-0.9-0.97-1.81-1.92-2.55-3.02
			c-0.16-0.23-0.33-0.44-0.05-0.72C155.36,198.68,155.57,197.38,155.7,196.05z"/>
	</g>
	<g>
		<path class="st7" d="M235.75,156.82c-1.68,0.87-3.37,1.69-4.93,2.78c-2.02,1.4-4.16,2.62-6.2,3.99c-1.58,1.06-2.97,2.34-4.06,3.93
			c-0.44,0.65-0.69,1.31-0.27,2.04c0.43,0.72,1.16,0.81,1.92,0.77c1.56-0.08,2.97-0.7,4.36-1.33c2-0.91,3.96-1.89,5.83-3.03
			c0.27-0.16,0.52-0.44,0.9-0.32c-0.05-0.13,0.01-0.14,0.11-0.1c-0.03,0.04-0.07,0.07-0.1,0.11c-1.79,4.28-1.62,8.68-0.8,13.12
			c0.15,0.82,0.22,1.88,1.31,2.01c1.08,0.13,1.91-0.52,2.41-1.45c1.8-3.35,3.29-6.81,3.69-10.66c0.16-1.51,0.37-3.01,0.74-4.53
			c0.28,0.95,0.55,1.9,0.83,2.85c0.82,2.85,1.85,5.61,3.22,8.24c0.29,0.55,0.67,1.07,1.07,1.55c0.56,0.69,1.29,1.12,2.19,0.76
			c0.95-0.38,1.15-1.24,1.07-2.15c-0.07-0.86-0.23-1.71-0.35-2.56c-0.97-3.04-1.97-6.08-3.42-8.95c0.68,0.72,1.35,1.44,2.03,2.17
			c0.1,0.04,0.24,0.05,0.16,0.22l-0.01-0.01c0.19-0.05,0.26,0.01,0.21,0.21l-0.01-0.01c0.25-0.11,0.35,0.01,0.39,0.24l-0.05-0.01
			l-0.04,0.04c1.19,0.46,1.93,1.51,2.93,2.23c1.42,1.03,2.65,2.32,4.21,3.16c1.5,0.8,2.5,0.81,3.19,0.03
			c0.65-0.75,0.5-1.63-0.46-3.07c-2.44-3.68-5.77-6.48-9.13-9.25c-0.17-0.14-0.43-0.21-0.51-0.62c2.42,0.47,4.79,0.88,7.13,1.39
			c2.27,0.5,4.56,0.87,6.87,1.08c0.69,0.06,1.39,0.06,2.07-0.15c1.68-0.51,2.15-1.99,0.98-3.31c-1.18-1.33-2.75-2.06-4.43-2.54
			c-1.82-0.52-3.69-0.79-5.69-1.07c1.34-0.44,2.63-0.5,3.9-0.7c1.02-0.16,2.03-0.33,2.97-0.77c0.67-0.32,1.17-0.8,1.19-1.58
			c0.02-0.81-0.44-1.37-1.11-1.76c-0.98-0.58-2.08-0.66-3.18-0.67c-3.38-0.03-6.53,1.03-9.69,2.03c-2.39,0.76-4.63,1.81-6.76,3.12
			c0.22,0.78,0.78,1.44,0.57,2.36c-0.3,1.3-1.22,1.89-2.35,2.32C237.61,160.13,236.86,159.81,235.75,156.82z"/>
		<path class="st0" d="M247.3,166.06c-0.68-0.72-1.35-1.45-2.03-2.17c1.45,2.87,2.45,5.91,3.42,8.95c2.89,3.99,4.78,8.46,6.34,13.1
			c2.3,6.85,3.54,13.88,3.8,21.09c0.01,0.4-0.02,0.8-0.02,1.19c0,0.61,0.28,1.03,0.89,1.13c0.62,0.11,1.03-0.21,1.23-0.77
			c0.1-0.27,0.15-0.58,0.15-0.87c-0.04-11.45-2.52-22.32-7.92-32.44c-1.43-2.69-3.13-5.24-4.85-7.76c-0.15-0.22-0.47-0.4-0.35-0.77
			c0,0,0.04-0.04,0.04-0.04s0.05,0.01,0.05,0.01c-0.26,0.12-0.3-0.1-0.39-0.24c0,0,0.01,0.01,0.01,0.01
			c-0.11-0.03-0.22-0.06-0.21-0.21c0,0,0.01,0.01,0.01,0.01C247.32,166.27,247.27,166.2,247.3,166.06z"/>
		<path class="st8" d="M235.75,156.82c1.1,2.99,1.85,3.31,4.93,2.15c1.13-0.43,2.05-1.02,2.35-2.32c0.21-0.92-0.34-1.58-0.57-2.36
			c-0.67-1.29-1.47-2.5-2.43-3.6c-0.57-0.65-1.2-1.23-2.01-1.58c-1.61-0.71-2.93,0.03-3.17,1.77c-0.19,1.38,0.22,2.69,0.5,4.01
			C235.49,155.53,235.62,156.17,235.75,156.82z"/>
		<path class="st6" d="M247.66,166.47c0.09,0.15,0.13,0.37,0.39,0.24C248.02,166.48,247.91,166.36,247.66,166.47z"/>
		<path class="st6" d="M233.32,165.67c0.03-0.04,0.07-0.07,0.1-0.11c-0.1-0.04-0.16-0.03-0.11,0.1
			C233.31,165.66,233.32,165.67,233.32,165.67z"/>
		<path class="st6" d="M247.3,166.06c-0.03,0.14,0.02,0.21,0.16,0.22C247.54,166.11,247.4,166.1,247.3,166.06z"/>
		<path class="st6" d="M247.46,166.27c0,0.15,0.1,0.18,0.21,0.21C247.72,166.28,247.64,166.22,247.46,166.27z"/>
	</g>
</g>
</svg>
