<?xml version="1.0" encoding="utf-8"?>
<!-- Generator: Adobe Illustrator 24.3.0, SVG Export Plug-In . SVG Version: 6.00 Build 0)  -->
<svg version="1.1" id="Layer_1" xmlns="http://www.w3.org/2000/svg" xmlns:xlink="http://www.w3.org/1999/xlink" x="0px" y="0px"
	 width="500px" height="500px" viewBox="0 0 500 500" style="enable-background:new 0 0 500 500;" xml:space="preserve">
<style type="text/css">
	.st0{fill:#B1838C;}
	.st1{fill:#71835C;}
	.st2{fill:#B38C67;}
	.st3{fill:#71709D;}
	.st4{fill:#80687F;}
</style>
<g>
	<path class="st0" d="M212.9,144.2c-2.5-3.2-6.4-2.1-7.8,0.4c-1.1,1.9-1.7,4-1.8,6.2c1.7,1.1,2.9,2.8,4.9,3.5
		C209,150.5,210.9,147.3,212.9,144.2z"/>
	<path class="st0" d="M219.1,180.5c-0.3-2.7-0.5-5.4-0.8-8c-0.5-3.8-1.8-7.3-4.4-10.2c-1-1.1-2-2.2-3.1-3.2
		c-2.4-2.1-4.9-4.1-7.3-6.2c-1.2-1-2.5-2.1-4.1-3.4c-0.3,1.1-0.5,1.8-0.6,2.5c-0.4,3.4-0.7,6.8-0.1,10.2c0.7,3.8,1.2,7.7,2.6,11.4
		c2.6,7,6.7,13.1,12.2,18.2c1.1,1,2.4,1.8,3.7,2.4c1.6,0.7,3.3,1.1,5.2,0.9c-1.2-2-1.9-4.1-2.2-6.2
		C219.8,186.2,219.4,183.3,219.1,180.5z"/>
	<path class="st1" d="M197.9,219c-3.8,5.9-7.1,12-10,18.3c-5,10.6-8.3,21.7-9.8,33.3c-0.9,7-1.7,14.1-2.2,21.2c-0.2,3,0,6,0.4,8.9
		c0.6,4.2,2.2,8,3.6,12c1.6,4.5,3.1,9,3.8,13.7c0.2,1.1,0.4,2.2,0.7,3.3l0.4,0c0.4-1.4,0.9-2.8,1.2-4.3c1.7-8,3.3-16,4.9-24
		c0.9-4.7,1.7-9.5,2.6-14.2c1-5.2,1.9-10.3,2.1-15.6c0.2-4.5,0.6-9.1,0.9-13.6c0.3-4.4,0.5-8.8,0.8-13.2c0.2-3.1,0.3-6.2,0.5-9.4
		c0.3-5.3,0.5-10.6,0.8-16c0-0.3,0-0.6-0.1-1.2C198.2,218.7,198,218.8,197.9,219z"/>
	<path class="st0" d="M234.4,155.6c-2.8,4.6-3.7,9.8-4.1,15.1c-0.3,4.1-0.1,8.2-0.3,12.3c-0.2,3.9,0.2,7.9-1.5,11.9
		c0.7-0.1,1.2,0,1.6-0.1c4.3-1.4,7.6-4,9.5-8.2c1.4-3.2,2.4-6.5,2.9-10c1-7.3,2-14.6,1.8-22.1c-0.1-2.8-0.4-5.5-1.1-8.5
		c-0.8,0.6-1.3,1-1.8,1.5C238.6,149.7,236.3,152.5,234.4,155.6z"/>
	<path class="st1" d="M297.2,268.7c1.2,0.7,2.4,1.6,3.3,2.6c1.4,1.4,2.5,3.1,3.7,4.6c1.6,2.1,2.6,4.6,3,7.2c0.2,1.3,0.2,2.5,0.3,3.8
		c0.2,6.7-1.2,13-4.7,18.7c-2.8,4.5-5.2,9.1-7.7,13.8c-1.1,2.1-1.9,4.2-2.7,6.4c0.1,0.1,0.2,0.1,0.4,0.2c0.9-1.2,1.7-2.4,2.6-3.6
		c0.7-1,1.5-1.9,2.3-2.8c1.7-1.9,3.6-3.7,5.1-5.7c2.1-2.7,3.9-5.6,5.8-8.4c1.3-1.8,2.2-3.8,2.9-5.9c1.2-4,2.2-8.1,2.4-12.3
		c0.4-7.4-1.4-14.2-6-20.2c-1.9-2.5-4.4-4.4-7.7-4.9c-1.3-0.2-2.7-0.3-4-0.5c-3.9-0.6-7.6,0.4-11.2,1.7c-0.4,0.2-0.8,0.5-1.4,0.8
		c1.3,0.2,2.5,0.3,3.6,0.6C290.7,266,294.1,267,297.2,268.7z"/>
	<path class="st0" d="M240.3,145.8c-0.2-0.6-0.4-1.3-0.7-2.1c-0.1-0.4-0.3-0.8-0.5-1.2c-0.8-1.6-2-1.9-3.5-0.8
		c-0.6,0.5-1.2,1-1.6,1.6c-1.3,1.8-2.5,3.6-3.6,5.2c1.2,1.7,2.3,3.2,3.3,4.6C235.9,150.7,238,148.3,240.3,145.8z"/>
	<path class="st2" d="M46.5,231.4c-2.3-0.6-4.4-1.5-6.1-3.3c-1-1.1-2-2.2-2.8-3.5c-1.2-1.8-2.2-3.8-3.3-5.7
		c-0.7-1.2-1.4-2.3-2.6-3.1c-0.6-0.4-1.2-0.7-1.8-1.1c-0.6-0.4-1.2-0.7-1.8-1.1c0.3,1.3,0.7,2.4,1.3,3.4c0.9,1.5,1.9,3,3,4.4
		c2.4,3,4.2,6.2,5.4,9.8c0.7,2.1,1.6,4.2,2.5,6.3c3,6.9,11.2,12.2,19.8,11C53.3,244.4,48.8,238.7,46.5,231.4z"/>
	<path class="st1" d="M243.2,311.2c-1.5,2.2-3,4.5-4.5,6.7c-1.1,1.6-1.2,2.1-1.1,3.6c1.8-0.3,3.4-1.9,5.5-0.9c-0.1,0.5,0,1-0.3,1.4
		c-0.4,0.8-0.9,1.5-1.4,2.1c-2.5,3.4-5,6.7-7.5,10.1c-0.6,0.8-1.1,1.7-1.6,2.5c-0.9,1.5-1.1,3-0.4,4.7c1.2,2.8,2.3,5.6,3.5,8.5
		c0.8-0.7,1.1-1.4,1.4-2.1c1.6-3.6,3.1-7.2,4.6-10.8c0.1-0.3,0.2-0.7,0.3-1c0.7-3.5,1.3-7,2.5-10.3c1.3-3.7,2.4-7.4,3.9-11
		c2.1-5.3,4.5-10.4,6.2-15.8c0.5-1.5,1.1-3.1,1.6-4.6c-2.3,2.5-4.5,5-6.4,7.7C247.3,305.1,245.3,308.1,243.2,311.2z"/>
	<path class="st0" d="M226,195.6c0.2-0.3,0.5-0.5,0.6-0.7c1.2-1.8,1.6-3.8,1.6-5.9c0.1-3.6,0.1-7.2,0.1-10.9c0-2.7,0-5.4,0.3-8.1
		c0.6-5.1,1.4-10.1,3.9-14.6c-0.7-1.8-1.3-3.4-2.6-4.7c-2.5-2.5-5.1-5-7.6-7.4c-2-2-2.8-2.1-5.2-0.7c-1,0.6-1.8,1.3-2.6,2.2
		c-1.8,2.1-3,4.5-4,7c-0.6,1.3-1.1,2.7-0.7,4.2c1.2,1.1,2.4,2.3,3.6,3.5c2.9,2.9,5.1,6.1,5.8,10.2c0.5,2.5,0.8,5,1.1,7.6
		c0.5,4,0.9,8,1.4,12c0.2,1.3,0.7,2.6,1.2,3.8C223.6,194.3,224.4,195.3,226,195.6z"/>
	<path class="st3" d="M162.8,233.9c0.1-2.5,0.2-5.1,0.1-7.7c0-4.2-0.8-8.2-2.4-12c-1.1-2.6-1.9-5.2-2.3-8c-0.9-6.2-0.1-12,4.3-17
		c-1.3-0.9-2.6-1.7-3.8-2.7c-1.8-1.5-3.5-1.1-5.2,0c-1.1,0.7-1.9,1.7-2.5,2.8c-0.9,1.8-1.6,3.7-1.8,5.7c-1,8.8-1.9,17.6-1.3,26.5
		c0.2,3.5,0.8,6.9,2.6,10c0.8,1.3,1.7,2.5,3,3.3c2.2,1.4,4.5,2.6,6.8,3.9c1.1,0.6,2.3,0.6,3.6,0.7
		C162.8,237.7,162.7,235.9,162.8,233.9z"/>
	<path class="st4" d="M122.8,167.7c1.9-4.5,3.5-9.2,3.4-14.2c-0.2-1.9-0.3-3.8-0.6-5.7c-0.3-2.7-1.3-5.1-3.1-7.2
		c-1.8-2.2-3.8-4.3-5.8-6.2c-1.1-1.1-2.5-1.8-3.9-2.6c-1-0.7-2.1-0.5-3,0.2c-1,0.7-1.9,1.5-2.7,2.4c-1.3,1.7-2.4,3.5-3.6,5.3
		c-2.3,3.5-3.8,7.3-4.7,11.4c-0.9,4.5-0.6,8.8,1.8,12.8c1.4,2.3,2.4,4.8,3.1,7.4c0.9,3,2.3,5.8,3.9,8.5c0.7,1.2,1.6,2.2,2.7,2.9
		c0.9,0.6,1.9,0.8,3,0.4c3.1-0.9,4.8-3,5.6-5.9C120.2,173.9,121.5,170.8,122.8,167.7z"/>
	<path class="st4" d="M102.6,172.2c-0.9-2.9-2-5.6-3.5-8.2c-1.8-3.1-2.4-6.5-2.1-10.1c0.1-1.3,0.3-2.7,0.5-4.1
		c-0.2-0.2-0.3-0.4-0.5-0.6c-3.7-3.3-5.2-7.5-5-12.4c0.1-1.3,0-2.7,0-4c-0.1,0-0.2-0.1-0.3-0.1c-0.2,0.6-0.4,1.2-0.5,1.8
		c-0.7,3.6-1.4,7.1-2,10.7c-1,5.5-1.5,11-1.6,16.5c0,2.4,0.2,4.8,0.7,7.2c0.7,3.6,2.4,6.8,5.2,9.3c3.4,3.1,7.5,4.8,11.9,5.9
		c1.2,0.3,2.6,0.4,3.9-0.3c-0.8-1-1.7-1.9-2.4-2.9C105,178.2,103.5,175.3,102.6,172.2z"/>
	<path class="st4" d="M97.9,147.7c1.4-3,2.6-5.8,3.9-8.5c-1-2-1.9-4-3.1-5.8c-0.6-1.1-1.6-2-2.5-2.8c-0.6-0.5-1.3-0.9-2.2-0.3
		c-0.1,0.2-0.2,0.5-0.2,0.8c0,2.8-0.1,5.5-0.1,8.3c0,3,1.3,5.5,3.3,7.6C97.2,147.3,97.6,147.5,97.9,147.7z"/>
	<path class="st2" d="M44.8,225c0.2,0.3,0.5,0.6,1.1,1.1c0.4-6.9,1.6-13.1,5.3-18.8c-1.2-1.9-3-3.3-5.4-4.3
		c-1.3-0.6-2.6-0.7-3.9-0.3c-1.5,0.4-3,0.9-4.5,1.4c-0.9,0.3-1.4,0.8-1.6,1.8c-0.5,3.4,0,6.5,1.9,9.3C40,218.5,42.4,221.8,44.8,225z
		"/>
	<path class="st4" d="M130.1,171.6c2.3-4.5,3-9.3,2.5-14.3c-0.3-2.7-0.6-5.4-1-8c-0.6-4.9-2.1-9.5-4.2-14c-0.9-1.8-2-2.9-4.2-2.7
		c-1.9,3-1.8,4,0.3,6.4c1.9,2.1,3.1,4.6,3.7,7.3c0.8,3.7,0.8,7.3,0.5,11c-0.3,3.9-1.7,7.6-3.2,11.2c-1.1,2.7-2.3,5.5-3.2,8.3
		c-0.7,2.2-1.6,4.1-3.2,5.7c-0.3,0.3-0.4,0.6-0.6,1c2.9,0.9,5.2,0.2,6.9-2.1c0.9-1.2,1.9-2.3,2.7-3.6
		C128,175.8,129,173.7,130.1,171.6z"/>
	<path class="st2" d="M316.9,170.2c-0.7,1-1.3,2.2-1.9,3.3c-1.5,2.6-2.9,5.2-4.4,7.8c-1.4,2.4-3.3,4.3-5.5,5.8c-3.1,2-6.2,4-9.3,5.9
		c-0.3,0.2-0.5,0.5-1.1,1.1c1.4-0.2,2.3-0.3,3.2-0.4c6.7-0.7,12.5-3.4,17.5-8c6.2-5.7,10.5-12.6,13.5-20.4c1.3-3.5,1.6-7,1.3-10.7
		c-0.1-0.6-0.3-1.2-0.5-2.1c-0.7,0.5-1.2,0.8-1.7,1.2c-1.4,1.1-2.3,2.7-3.2,4.2C322.2,162.1,319.6,166.2,316.9,170.2z"/>
	<path class="st2" d="M30.4,213.1c0.2,0.1,0.4,0.2,0.6,0.3c2.3,1.1,3.9,2.8,5,5c1.4,2.6,2.8,5.2,4.7,7.6c1.2,1.5,2.6,2.6,4.4,3.3
		c0.3,0.1,0.6,0.1,1.2,0.2c-0.3-0.5-0.4-0.7-0.5-0.9c-3.2-4.2-6.4-8.5-9.7-12.7c-1.2-1.6-2.6-3-4-4.4c-0.6-0.6-1.5-1.1-2.2-1.6
		c-0.5-0.3-0.9-0.2-1.4,0.4C28.5,211.6,29.3,212.4,30.4,213.1z"/>
	<path class="st3" d="M174.6,234.1c1-1,1.8-2,2.2-3.3c1.3-3.5,2.3-7.2,2.3-11c-0.2-1.6-0.3-3.1-0.5-4.7c-0.3-2.3-0.7-4.6-0.9-7
		c-0.5-6.1-0.9-12.2-1.3-18.3c-0.1-1.1-0.2-2.1-0.4-3.2c-0.2-0.9-0.8-1.3-1.7-1.2c-0.4,0-0.8,0.2-1.2,0.3c-2.3,1-4.7,2-7,3.2
		c-2.8,1.5-4.7,3.8-5.6,6.9c-1.1,3.9-1.3,7.7-0.3,11.5c0.7,2.6,1.6,5.2,2.5,7.7c1.2,3.3,1.9,6.7,1.8,10.2c0,3.3-0.1,6.5-0.1,9.8
		c0,0.8,0,1.6,0.3,2.3c0.5,1.5,1.5,2,2.9,1.3C170.2,237.8,172.5,236.1,174.6,234.1z"/>
	<path class="st3" d="M168.9,185.9c1.6-0.7,3.2-1.4,4.8-2.1c-0.6-1.1-1.5-0.8-2.2-0.7c-2.6,0.1-5.1-0.3-7.5-1.4c-2.5-1.2-4.5,0-5,3
		c1.6,1.4,3.2,2.7,5.3,3.4C165.9,187.4,167.4,186.6,168.9,185.9z"/>
	<path class="st1" d="M147.5,299.4c-0.1,0-0.3-0.1-0.4-0.1c-3.4-1-6.7-0.5-10,0.5c-1.5,0.4-3,0.7-4.5,1.1c-1.1,0.2-2.2,0.5-3.3,0.8
		c0,0.1,0,0.3,0.1,0.4c0.5,0.3,0.9,0.6,1.4,0.9c2.9,1.4,5.7,2.9,8.6,4.2c5.5,2.4,10.3,5.6,14.2,10.2c0.9,1.1,2,2.1,3.5,2.8
		c0.7-1.1,0.6-2.3,0.7-3.4c0.3-3.7,0.1-7.2-1.8-10.5C154.1,302.6,151.6,300,147.5,299.4z"/>
	<path class="st2" d="M46.8,201.9c0.6,0.3,1.2,0.7,1.8,1.1c1.1,0.8,2.3,1.6,3.4,2.4c0.5-0.8,0.8-1.7,1.4-2.3c0.6-0.6,1.4-1,2.3-1.5
		c-0.5-1-1-2-1.5-3c-1.1-0.4-2.1-0.9-3.2-1.2c-0.7-0.2-1.5-0.2-2.3-0.1c-1.3,0.1-2.6,0.4-4,0.6c-2,0.3-3.8,1.2-5.2,2.7
		c-0.3,0.3-0.3,0.7-0.6,1.3c0.9-0.2,1.5-0.3,2.1-0.5C43.1,200.6,45,200.9,46.8,201.9z"/>
	<path class="st1" d="M369.3,345.7c0.2-7.1-0.7-14-1.4-21c-0.5-4.1-0.7-8.2-1.2-12.3c-0.8-6.4,0.1-12.6,1.5-18.8
		c1.3-5.8,2.7-11.5,3.4-17.3c0.5-4.2,0.9-8.5,1.5-12.7c1.1-7.4,1.4-14.9,1.2-22.3c-0.1-2.8-0.4-5.7-0.7-8.5c0-0.2-0.2-0.3-0.4-0.8
		c-0.1,0.9-0.2,1.5-0.2,2.1c-0.1,4.8-1.6,9.2-3.1,13.6c-2.9,8.2-5.5,16.6-7.6,25.1c-1.1,4.4-1.8,8.9-2,13.5
		c-0.1,1.6-0.3,3.3-0.4,4.9c-0.4,4.6,0.4,9,1.9,13.4c1.2,3.5,2.1,7.1,1.9,10.9c0,1-0.1,2-0.4,2.9c-1.2,3.7-1.8,7.5-2.5,11.2
		c-0.5,2.7-1.2,5.2-2.1,7.8c-1.2,3.4-2.1,6.9-3.1,10.4c-0.2,0.6-0.2,1.3-0.5,1.9c-1.4,3.2-2.1,6.6-2.8,10h15.3
		C368.8,355,369.2,350.4,369.3,345.7z"/>
	<path class="st1" d="M94,339.7c1.3-3.4,1.8-6.9,1.5-10.5c-0.1-1.3-0.1-2.7-0.2-4.2c-0.3,0.3-0.4,0.4-0.5,0.5
		c-3.5,6.6-7.1,13.1-10.6,19.7c-2.1,4-3.9,8.2-5,12.6c-0.1,0.5-0.2,1-0.4,1.6H86c0.8-2.3,1.8-4.5,2.7-6.8
		C90.5,348.4,92.3,344,94,339.7z"/>
	<path class="st1" d="M436.5,344.6c0-4.7,0.8-9.3,2.2-13.8c1.6-5,3.1-10,4.7-15c0-0.1,0-0.3,0-0.5c-1.5,1.9-2.3,4.1-3.4,6.1
		c-1.5,2.9-2.6,6-3.7,9.1c-1.1,3.3-1.2,6.7-1.4,10.1c-0.1,1.8-0.1,3.7-0.4,5.5c-0.3,1.6-0.9,3.2-1.7,4.6c-1.7,2.9-3.3,5.8-4.5,8.9
		h5.9c0.8-2.5,1.4-5,1.7-7.6C436.3,349.5,436.4,347,436.5,344.6z"/>
	<path class="st1" d="M413.9,358.4c-1.2-3.3-2.2-6.8-2.8-10.3c0-0.1,0-0.3-0.1-0.4c-1-3.2-1.8-6.4-2.4-9.7c-0.3,2-0.7,4-0.8,6.1
		c-0.3,5.1-0.5,10.3-0.7,15.4h7.1C414.1,359.1,414,358.7,413.9,358.4z"/>
	<path class="st1" d="M179.6,352.6c-0.8-5.8-1.7-11.5-2.5-17.3c-0.4-2.5-0.7-4.9-1-7.4c-0.1-1.1-0.6-1.9-1.6-2.6
		c-2.6-1.8-5.2-3.4-8.1-4.8c-2.3-1.1-4.5-2.7-6.9-4.2c-0.2,1.6-0.4,3.2-0.7,4.7c-0.7,3.5-1.5,6.9-2.2,10.4c-0.6,3.1-1.2,6.1-1.1,9.3
		c0.2,3.6,0.9,6.9,2.9,9.9c1.4,2.2,2.5,4.4,3.3,6.9c0.2,0.6,0.4,1.2,0.5,1.9h18.3C180.2,357.2,179.9,354.9,179.6,352.6z"/>
	<path class="st1" d="M275.9,272.2c-3,5-5,10.5-6.7,16.1c-2.6,8.6-4.4,17.4-5.2,26.3c-0.9,10.6-0.7,21.1,1,31.7
		c0.7,4.4,1.6,8.8,2.6,13.2h6.9c-0.5-2.7-0.9-5.5-0.9-8.3c0-5.7,0.4-11.4,1.1-17c0.7-5.1,1.3-10.3,1.9-15.4c0.2-2,0.7-3.9,0.8-5.9
		c0.6-7.6,0.9-15.2,0.5-22.8c-0.2-4.9-0.3-9.8-0.3-14.7c0-1.9,0.3-3.8,0.4-5.8C277.1,270.1,276.5,271.2,275.9,272.2z"/>
	<path class="st1" d="M232.6,333.5c2.5-3.4,5-6.7,7.5-10.1c0.2-0.3,0.4-0.7,0.8-1.3c-3.3,1-6,2.4-8.5,4.3c-1.9,1.5-3.9,2.8-5.9,4.2
		c-2.8,2-5.7,4-8.1,6.6c-2,2.2-3,4.6-3.1,7.5c0,0.6-0.1,1.1-0.1,1.7c-0.3,2.9-1.2,5.5-2.8,8c-0.8,1.2-1.5,2.4-2.2,3.6
		c-0.3,0.4-0.5,0.9-0.6,1.3h24.4c0.5-1.1,0.7-2.4,0.7-3.6c0-2.6-0.5-5.1-1.6-7.4c-1-2.3-1.9-4.6-2.9-6.9c-0.7-1.7-0.4-3.4,0.4-4.9
		C231.2,335.5,231.8,334.5,232.6,333.5z"/>
	<path class="st1" d="M138.6,340.2c-0.2,0.4-0.5,0.7-0.7,1.1c-2.7,5.5-5.5,10.9-8.1,16.5c-0.2,0.5-0.5,1.1-0.7,1.7h6.8
		c0-1.1-0.1-2.1-0.2-3.2c-0.4-5.2,0.9-10.1,2.7-15C138.6,341,138.7,340.7,138.6,340.2z"/>
	<path class="st3" d="M422.6,172c1.8,2.7,2.9,5.6,3.5,8.8c0.5,2.7,0.2,5.2-0.8,7.7c-1.3,3.3-2.4,6.6-3.6,10.2c1.7-0.6,2.4-1.8,3-3
		c1.2-2.4,2.4-4.8,3.6-7.2c1.4-2.7,2-5.5,1.2-8.4c-0.9-3.5-1.8-7-2.8-10.5c-1.8-5.9-5-11.1-9.1-15.7c-0.5-0.6-1.1-1.1-1.7-1.6
		c-1-0.7-1.6-0.6-2.4,0.3c-1.2,1.4-2.1,3-2.2,5.2c0.8,1,1.7,2.1,2.6,3.1C417.2,164.4,420,168.1,422.6,172z"/>
	<path class="st2" d="M58.6,198.8c1.3-1.7,2.2-1.9,4-0.7c0.5,0.3,0.9,0.6,1.4,0.9c0.4,0.3,0.8,0.7,1.7,1c-1.5-2.2-3-3.8-4.8-5.1
		c-0.5-0.4-1.1-0.6-1.7-0.8c-1.8-0.8-3.2-0.3-4.4,1.4c0.5,1.9,1.4,3.6,2.4,5.4C57.7,200.1,58.1,199.4,58.6,198.8z"/>
	<path class="st0" d="M346.3,243.3c1.3-2.2,2.7-4.3,4.1-6.5c1.7-2.6,2.9-5.4,3.7-8.3c0.7-2.6,1.1-5.3,0.9-8
		c-0.4-4.6-1.6-9.1-3.2-13.4c-0.3-0.7-0.6-1.5-1-2.1c-1.1-1.4-2.1-2.9-4-3.4c-2-0.5-3.9-1.3-5.7-2.3c-1.1-0.6-2.3-0.7-3.5-0.5
		c-2.1,0.4-4.1,1.2-5.7,2.7c-2.9,2.5-5.3,5.4-7.1,8.7c-2.6,4.9-3.6,10.1-3.9,15.6c0,0.7,0,1.4,0,2.1c0.5,10.4,6,17.6,16.1,20.6
		c1.9,0.6,3.8,0.4,5.4-1C343.9,246.2,345.3,245,346.3,243.3z"/>
	<path class="st0" d="M346.9,200c1.2,0.3,2.2,0.9,3.1,1.7c0.7,0.7,1.5,1.3,2.1,1.8c-0.1-4.4-6.5-8.1-10.5-5.7
		c0.6,0.3,1.1,0.7,1.7,0.9C344.6,199.1,345.7,199.6,346.9,200z"/>
	<path class="st3" d="M393.1,156.9c1.5-0.4,2.8,0,4,0.8c0.3,0.2,0.6,0.3,0.9,0.4c1.4-2.1,3.2-3.5,5.9-4.3c-0.8-0.5-1.2-0.8-1.8-1
		c-1.7-0.8-3.4-1.2-5.2,0.2c-0.6,0.4-1.4,0.5-2.2,0.6c-0.6,0.1-1.3-0.1-1.9,0c-1.9,0.2-3.4,1.1-4.4,3.2
		C390.2,156.8,391.7,157.2,393.1,156.9z"/>
	<path class="st3" d="M417,201.1c2.1-1.7,3.7-3.7,4.5-6.3c0.7-2.5,1.6-5,2.6-7.4c0.8-2,0.9-4,0.5-6.1c-0.5-3.4-1.9-6.3-3.8-9.2
		c-3.5-5.3-7.9-9.9-11.9-14.8c-1.7-2.1-4.4-2.7-7.1-0.9c-1,0.7-1.8,1.6-2.5,2.6c-3.4,5.1-6,10.7-7.7,16.6c-0.9,3.2-1.5,6.5-1.5,10.5
		c0,8.4,4.6,14.4,12.3,17.5c2.7,1.1,5.5,1.5,8.3,0.7C413.1,203.7,415.2,202.6,417,201.1z"/>
	<path class="st3" d="M383.8,191.3c-1.2-2.9-1.9-6-2.2-9.1c-0.5-5.3-0.9-10.6-1.3-15.9c-0.1-1.9-0.6-3.6-1.5-5.3
		c-0.6-1.1-1.4-1.8-2.5-2.1c-0.4-0.1-0.9,0-1.6,0.1c0.4,1.3,0.8,2.2,0.9,3.2c0.5,4.1,1.1,8.2,1.2,12.3c0.3,8.5,3,16,8,22.7
		c2,2.7,4.6,4.8,7.8,6.1c0.3,0.1,0.7,0.1,1.5,0.2c-0.7-0.5-1-0.7-1.3-0.9C388.9,199.6,385.8,195.9,383.8,191.3z"/>
	<g>
		<path class="st1" d="M229.1,230.3l-0.4-5.9c-0.3-4.3-0.6-8.6-0.9-12.9c-0.1-0.9-0.1-1.7-0.2-2.6c-0.3-3.7-0.6-7.6-0.3-11.4
			c0-0.2-0.1-0.4-0.2-0.6c0,0,0-0.1-0.1-0.1l-0.1-0.1l-0.1-0.1c-0.8-0.4-1.5-0.3-2.2-0.1c-0.4,0.1-0.8,0.2-1.3,0.1l-0.6-0.1l0.2,1.5
			c0.1,0.6,0.1,1.1,0.2,1.6c0.1,0.8,0.3,1.6,0.4,2.4c0.3,1.5,0.6,3.1,0.7,4.7c0.6,7.5,0.9,13.7,0.9,19.5c0,2.4,0,4.8,0,7.2l0,0.7
			c0,0.4,0,0.7,0.1,1.1c0,0.3,0,0.5,0,0.8l0,1c0,1.4,0.1,2.7,0.1,4.1c0,0.9,0,1.8,0,2.7c0,0.9,0,1.8,0,2.7c0,0.9,0,1.7,0.1,2.6
			c0.1,1.5,0.1,3.1,0,4.6c-0.1,2.4-0.2,4.8-0.2,7.1c-0.1,1.8-0.1,3.6-0.2,5.5c-0.1,2.2-0.3,4.4-0.4,6.5c-0.2,2.2-0.4,4.6-0.5,6.9
			c-0.1,2-0.3,4.1-0.5,6.1c-0.1,0.7-0.1,1.4-0.2,2.1c-0.2,2.2-0.4,4.3-0.7,6.5l-0.2,2.4c0,0.4-0.1,0.8-0.1,1.2
			c-0.1,0.9-0.2,1.7-0.3,2.6c-0.1,1-0.1,2.1-0.2,3.1c-0.1,1.4-0.1,2.7-0.3,4.1c-0.2,2.4-0.4,4.8-0.7,7.2c-0.1,1.1-0.2,2.3-0.3,3.4
			c-0.1,0.7-0.1,1.5-0.2,2.2c-0.2,1.8-0.4,3.7-0.5,5.6c-0.1,1.5-0.1,3.1-0.1,4.6l0,1.4c0,0.2,0.1,0.4,0.2,0.6c0,0.1,0.1,0.2,0.1,0.3
			l0.3,0.6l2.6-2l0.7-5.6c0.5-4.1,1-8.1,1.4-12.2c0.6-5.5,1.2-11.2,1.8-17.4c0.1-1.1,0.1-2.2,0.1-3.2c0-0.6,0-1.1,0-1.7
			c0.1-2.6,0.2-5.2,0.3-7.8c0.3-6,0.5-12.2,0.7-18.4c0.1-4.6,0.3-8.8,0.6-13l0.1-1.5c0.4-5.4,0.8-10.9,0.6-16.4
			C229.3,233.2,229.2,231.7,229.1,230.3z"/>
		<path class="st1" d="M349.1,354.2c-0.1-0.7-0.1-1.3-0.2-2c-0.2-1.5-0.4-3.4-1-5.3c-0.8-2.8-1.6-5.5-2.4-8.3c-1-3.3-2-6.7-2.9-10.1
			c-0.8-2.7-1.3-5.6-1.9-8.4l-0.6-3c-0.6-3.1-1.3-6.3-1.7-9.5c-0.6-4-0.9-8.1-1.3-12.1l-0.1-1.4c-0.3-3.3-0.5-6.7-0.7-10.2
			c-0.1-1.2,0-2.4,0-3.6c0-0.6,0-1.3,0-1.9c0-1.6,0-3.2,0-4.7c0-3.5,0-7.1,0-10.6c0-1.9,0.3-4,0.8-6.2c0.4-2,1.4-3.8,2.9-5.5
			l0.4-0.4l-0.5-0.3c-0.8-0.5-1.6-0.7-2.4-0.9c-0.7-0.2-1.3-0.3-1.9-0.6l-0.5-0.3l-0.2,0.5c0,0.1-0.1,0.2-0.1,0.3
			c-0.1,0.2-0.2,0.4-0.2,0.7c-0.3,2.7-0.7,5.4-1,8l-0.3,2.5c-0.7,5.5-1.3,12-0.9,18.4l0.1,2c0.4,5.2,0.7,10.6,1.3,15.9l0.2,2.2
			c0.7,6.1,1.4,12.4,2.7,18.5c0.5,2.1,1,4.3,1.6,6.3c0.6,2.4,1.3,4.9,1.8,7.3c1,4.7,1.9,9.5,2.7,14.2c0.3,1.4,0.5,2.8,0.8,4.2
			c0.4,2.4,0.8,4.8,1.2,7.1l0.3,2.1c0,0.1,0,0.2,0.1,0.3l0.1,0.6h4.5l-0.1-0.6C349.5,357.7,349.3,355.9,349.1,354.2z"/>
		<path class="st1" d="M75.4,289.7l-0.1-0.5c-0.2-1.1-0.4-2.2-0.7-3.2c-0.5-2.3-1-4.6-1.3-7c-1.5-9.3-3.4-17.5-5.8-25.1
			c-0.3-0.9-0.5-1.8-0.7-2.8c-0.1-0.5-0.2-0.9-0.3-1.4l-0.1-0.3l-0.3-0.1c-1.4-0.5-2.5,0-3.5,0.5l-0.4,0.2l0.2,0.4
			c0.1,0.1,0.1,0.3,0.2,0.4c0.1,0.3,0.2,0.6,0.4,1c2.6,4.6,4.3,9.8,5.4,15.9c1.1,6.1,1.9,12.4,2.8,18.4l0.4,3c0.3,2,0.4,4.2,0.5,6.7
			c0.1,7.2-0.1,13.1-0.6,18.7c-0.2,2.3-0.5,4.6-0.8,6.9c-0.2,1.6-0.4,3.3-0.6,5c-0.2,1.9-0.4,3.7-0.6,5.6c-0.3,3-0.6,6-1,9
			c-0.6,4.3-0.8,8.6-1.1,12.9c-0.1,1.9-0.2,3.7-0.4,5.6l0,0.5h4.3l0-0.4c0.8-7.1,1.7-15.4,3-23.8c0.9-5.9,1.6-12.5,2.3-19.9
			c0.7-8.6,0.5-16.5-0.8-24.1C75.7,291,75.6,290.3,75.4,289.7z"/>
		<path class="st1" d="M117.6,248c-0.1-1.1-0.3-2.3-0.4-3.4c-0.1-0.9-0.3-1.8-0.4-2.8c-0.3-3.4-0.7-7.3-0.8-11
			c0-1.2-0.1-2.3-0.1-3.5c-0.2-5.2-0.4-10.6-1-15.9c-1-8.6-1.1-15.5-0.6-21.8c0.1-1,0.3-2,0.5-3.1c0.1-0.5,0.2-1,0.3-1.5l0.1-0.4
			l-0.3-0.2c-0.8-0.4-1.5-0.2-2.3,0c-0.4,0.1-0.8,0.2-1.1,0.2l-0.4,0l-0.1,0.4c-0.1,0.3-0.1,0.5-0.2,0.8c-0.2,0.6-0.3,1.2-0.4,1.8
			c-0.6,4.1-0.2,8.1,0.2,12.1c0.1,0.7,0.1,1.4,0.2,2c0.1,1.7,0.3,3.3,0.4,5c0.2,2.1,0.4,4.2,0.5,6.3l0,0.4c0.4,4.9,0.8,10,1,15.1
			c0.1,1.5,0.1,3.1,0.1,4.6c0,1.8,0,3.6,0.1,5.4c0.2,3.1,0.5,6.2,0.9,9.2c0.2,1.8,0.4,3.5,0.5,5.3l0.1,1.1c0.2,2.4,0.5,4.9,0.5,7.3
			l0,0.5c0.2,7.1,0.5,14.5-0.8,21.7c-0.7,3.7-1,7.5-1.3,11.2c-0.1,1.2-0.2,2.4-0.4,3.7c-0.1,0.9-0.2,1.8-0.3,2.7
			c-0.2,2-0.5,4.1-0.6,6.2c-0.2,3.6-0.5,8-0.5,12.4c-0.1,4.9-0.5,9.4-1.2,13.9l-0.4,2.4c-0.9,5.3-1.9,10.9-2.1,16.4
			c-0.1,2.3,0,4.6,0.2,7l0,0.5h7.8l-0.2-0.7c-0.5-1.4-0.7-3-0.7-5l0-1.4c0-4.2,0.1-8.4,0.3-12.6c0.2-2.7,0.5-5.4,0.9-8
			c0.2-1.2,0.3-2.4,0.5-3.6c0.5-4.1,0.7-8.3,0.5-12.4c-0.1-2.2-0.2-4.4-0.3-6.6c-0.1-1.6-0.2-3.2-0.2-4.9c0-0.6-0.1-1.2,0-1.8
			c0.5-3.3,0.8-6.7,0.9-10.1c0-1.2,0.1-2.5,0.2-3.7c0.1-0.7,0.1-1.3,0.1-2c0.1-2.3,0.3-4.5,0.4-6.8l0.3-4.3c0-0.2,0-0.4,0-0.6
			c0-0.3,0.1-0.6,0.1-1c0-1.3,0-2.6,0-3.9c0-3.5,0.1-7.1,0-10.6C118,256.3,117.8,252.3,117.6,248z"/>
		<path class="st1" d="M184,348.2c-0.7-3.2-0.7-6.4-0.9-9.5c-0.2-2.8-0.1-5.7-0.4-8.5c-0.3-2.6-0.8-5.2-1.4-7.7
			c-1.1-4.5-2.7-8.8-4.3-13.1c-1.9-5.1-3.4-10.2-4.3-15.6c-1-5.7-2.2-11.4-3.2-17.2c-1-5.7-2-11.3-2.7-17c-0.6-5.5-1.3-11-0.8-16.6
			c0-0.5,0-1-0.1-1.5c-1.1-0.4-2.1-0.3-3.2-0.2c0,0.5,0,0.9,0.1,1.3c0.7,6.1,2,12.2,2.3,18.4c0.3,4.8,1,9.6,1.5,14.4
			c0.4,4,0.8,8.1,1.3,12.1c0.9,8.3,2.5,16.4,5.5,24.2c2,5.3,3.5,10.6,4.4,16.2c0.8,4.8,1.5,9.5,2.2,14.3c0.8,5.7,1.4,11.4,2.1,17.1
			c0,0.1,0,0.2,0,0.2h3.9c-0.2-1-0.3-2.1-0.5-3.1C185,353.6,184.7,350.9,184,348.2z"/>
		<path class="st1" d="M416.2,317.3c-0.1-2.6-0.3-5.2-0.4-7.8c-0.2-3.3-0.4-6.7-0.5-10.1c-0.2-5.7-0.5-12.4-1.1-19
			c-0.1-1.4-0.2-2.8-0.3-4.1c0-0.7-0.1-1.5-0.2-2.2c-0.1-1.3-0.2-2.6-0.3-3.8c-0.2-3-0.4-6.1-0.8-9.1c-0.5-4.3-0.7-7.8-0.7-11
			c0-5.4-0.5-10.9-1-16.2c-0.1-1.3-0.2-2.5-0.4-3.8c-0.3-3.3-0.7-6.6-1.1-9.8c-0.3-2.3-0.6-4.6-0.8-6.9c-0.1-1.3-0.2-2.6-0.2-3.8
			c0-0.6,0-1.1,0-1.7c0-0.3,0-0.6,0-1l0-0.8l-0.4-0.1c-1.9-0.4-2-0.4-3.3-0.2l-0.4,0.1l0,0.4c0.1,0.6,0.1,1.3,0.2,1.9
			c0.1,1.4,0.2,2.8,0.4,4.2c0.1,1.2,0.3,2.4,0.5,3.5c0.2,1.6,0.5,3.3,0.6,4.9c0.3,2.6,0.4,5.2,0.6,7.7c0.1,1.3,0.2,2.6,0.3,3.9
			c0.1,1.1,0.2,2.2,0.3,3.3l0.1,0.9c0.1,1.2,0.2,2.4,0.4,3.6c0.3,2.6,0.5,5.4,0.7,8c0.1,2.1,0.2,4.3,0.2,6.4c0,1.1,0,2.3,0.1,3.4
			c0.1,1.7,0.1,3.3,0.2,5c0.1,3.2,0.3,6.6,0.3,9.9c0.1,5.6,0.8,11.3,1.4,16.8l0.2,1.3c0.7,6,1.4,12.4,1.4,18.8l0,1.1
			c0,1.5,0,3,0.1,4.5c0,0.6,0.1,1.2,0.1,1.7c0.1,2.5,0.3,5,0.1,7.6c-0.1,2-0.2,4-0.2,5.9c0,1.1-0.1,2.2-0.1,3.3
			c0,0.4-0.1,0.7-0.1,1.1c-0.1,0.4-0.1,0.8-0.1,1.3c0,1.1-0.1,2.2-0.2,3.3c-0.2,3-0.5,6.2,0.5,9.3l0,0.2c0.1,0.4,0.2,0.8,0.3,1.2
			c0.4,1.7,0.8,3.5,1.9,5.1l0.8,1.1l0.1-1.4c0-0.3,0.1-0.5,0.1-0.8c0.1-0.6,0.1-1.2,0.2-1.8c0.2-3.4,0.3-6.9,0.4-10.3l0.2-5.4
			c0-0.5,0.1-1,0.1-1.5c0.1-0.9,0.1-1.9,0.1-2.8C416.6,328.1,416.5,322.7,416.2,317.3z"/>
	</g>
	<path class="st3" d="M394.6,200.4c-1-1.1-2.1-2.1-2.9-3.4c-2.4-3.9-3.4-8.2-3.1-12.8c0.5-6.7,2.4-13.1,5.5-19.1
		c0.9-1.8,1.8-3.5,2.8-5.5c-1.1-1-2.2-1.6-3.7-1.1c-0.8,0.3-1.8,0-2.7-0.1c-1.6,0-3.3-0.2-4.9-0.1c-1.3,0-2.2,0.8-2.9,1.9
		c-0.9,1.5-1.1,3.2-1,4.9c0.3,3.7,0.5,7.4,0.8,11c0.3,3.7,0.8,7.3,1.7,10.9c1.7,6.9,5.8,12,12.1,15.5c0.3,0.2,0.6,0.2,0.9,0.3
		C396.4,202,395.4,201.3,394.6,200.4z"/>
	<path class="st2" d="M316.1,147.5c1,1.2,2,2.4,2.9,3.7c1.3,2,3.2,3.2,5.6,3.6c0.2-0.3,0.5-0.7,0.8-1.1c-1.6-1.2-2.4-2.8-3.2-4.3
		c-1.4-2.6-3.4-4.3-6.2-5.3c-1.2-0.4-2.3-0.5-3.6,0.6c0.7,0.5,1.3,0.8,1.8,1.2C314.9,146.3,315.5,146.8,316.1,147.5z"/>
	<path class="st1" d="M278.2,224.3c0-0.2,0-0.4-0.1-0.6c-1-7.1-2-14.2-2.9-21.3c-0.9-6.7-2-13.3-3.6-19.9c-0.7-3-1.5-6.1-2.1-9.1
		c-0.9-4.4-1.6-8.8-2-13.3c-0.2,0.6-0.4,1.2-0.5,1.8c-1.8,7.7-2.1,15.6-2.5,23.5c-0.2,3.3-0.1,6.7-0.1,10c-0.1,6-0.4,12.1-0.3,18.1
		c0.1,5.7,0.4,11.5,0.9,17.2c0.8,7.8,2,15.6,3,23.5c1.1,8.1,1.9,16.2,2,24.4c0,0.5,0,1,0.1,2c0.7-1.5,1.1-2.7,1.7-3.7
		c1.2-1.9,1.4-4,1.5-6.1c0.4-6.2,0.7-12.5,1.5-18.7c0.7-5.4,1.6-10.8,2.9-16.1C278.6,231.9,278.8,228.1,278.2,224.3z"/>
	<path class="st2" d="M309.6,143.6c-1-2.7-2.1-3.9-4.4-4.4c-1.5-0.4-3.1-0.7-4.5,0.4c1,2.3,1.8,4.5,2.8,6.9
		C305,144.5,307.2,143.9,309.6,143.6z"/>
	<path class="st2" d="M293,192.5c2.1-0.9,4-2.1,5.8-3.6c1-0.8,1.9-1.8,2.5-2.9c2.3-3.9,3.3-8.3,3.6-12.7c-0.1-1-0.2-1.9-0.3-2.8
		c-0.3-2.6-0.7-5.2-1-7.8c-0.7-5.5-1.4-11-2.2-16.5c-0.2-1.8-1-3.4-1.9-4.9c-1.2-2.1-2.8-2.5-4.8-1.2c-0.9,0.5-1.7,1.2-2.5,2
		c-0.9,1-1.8,2.1-2.6,3.1c-2.8,3.8-5.2,7.8-7.4,12c-1.5,2.9-2.9,5.9-4.1,8.9c-0.9,2.3-1.6,4.7-1.5,7.3c0.1,4.2,1.2,8.1,3.6,11.6
		c2,2.9,4.5,5.1,7.3,7.1C289.2,193.2,291,193.4,293,192.5z"/>
	<path class="st2" d="M303.8,151.3c0.5,1.5,0.6,3.2,0.8,4.8c0.5,4.3,1,8.6,1.6,12.9c0.8,5.5-0.1,10.7-2.3,15.8
		c-0.1,0.3-0.2,0.7-0.4,1.3c3.2-1.9,5-4.4,6.6-7.2c2.8-4.9,5.4-10,8.8-14.6c1.8-2.4,3.2-5.2,4.8-7.9c-0.5-0.3-0.9-0.5-1.3-0.6
		c-1.8-0.4-3.1-1.6-4.2-3.1c-1-1.3-2.1-2.5-3-3.9c-1.2-1.7-3-2.6-4.9-3.3C307.1,144.4,302.6,147.7,303.8,151.3z"/>
	<path class="st2" d="M71.9,240.3c1.5-4.8,1.8-9.8,1-14.8c-0.9-5.7-2.2-11.4-3.3-17.2c-0.3-1.3-0.9-2.5-1.8-3.6
		c-1.7-2-3.6-3.8-5.9-5.2c-0.4-0.2-0.9-0.4-1.4-0.7c-0.5,0.7-1,1.3-1.4,2c-0.9,1.5-2.1,2.7-4.2,2.6c-1.4,2.6-2.7,5.1-4,7.5
		c-2,3.8-2.8,7.9-3.3,12.1c-0.5,4.5,0.2,8.8,2.4,12.8c1.8,3.2,4.1,6,6.8,8.4c1.9,1.7,4.1,2.7,6.5,3.6c1.2,0.4,2.2,0.2,3.1-0.6
		c0.9-0.8,1.8-1.7,2.6-2.5C70.5,243.6,71.4,242.1,71.9,240.3z"/>
	<path class="st0" d="M360.4,223.2c-1.2,3.6-2.6,7.2-3.7,10.9c-1.2,4.1-2.5,8.1-4.8,11.9c0.3-0.2,0.6-0.3,0.8-0.5
		c2.9-2.1,5.3-4.8,7-7.9c2-3.5,3.8-7,5.5-10.6c1.4-2.9,2.3-6,2.7-9.2c0.5-3.4,0.6-6.8,0.9-10.2c0-0.5-0.1-0.9-0.1-1.5
		c-1,0.2-1.5,0.9-1.8,1.6c-1.7,3.1-3.5,6.2-4.5,9.6C361.8,219.3,361,221.3,360.4,223.2z"/>
	<path class="st1" d="M285.2,221.6c0.7-5.8,1.9-11.5,3.6-17.1c0.8-2.6,2-5.2,3-7.7c0.2-0.4,0.3-0.8,0.5-1.2c-1.6-0.5-3.1-1-4.8-1.5
		c-0.2,0.7-0.3,1.3-0.4,1.9c-0.7,4.3-1.4,8.5-2.2,12.8c-1.1,5.9-2.2,11.9-3.5,17.8c-1,4.9-2.2,9.7-3.1,14.6
		c-1.1,5.5-2.2,11-2.5,16.6c-0.2,3.3-0.5,6.6-0.8,10c-0.1,0.7-0.2,1.4,0.2,2.3c1-1,1.8-1.8,2.6-2.6c1-1,1.4-2.2,1.5-3.6
		c0.3-3.7,0.5-7.4,1-11c0.9-6.8,2-13.6,3.1-20.4C284,228.7,284.7,225.2,285.2,221.6z"/>
	<path class="st0" d="M354.6,209.7c0.5,2,1,3.9,1.4,5.8c1.5,6.7,0.7,13.2-2.5,19.2c-2.7,5-5.4,10-9.8,13.8c0,0-0.1,0.1-0.2,0.6
		c1.1-0.3,2-0.5,2.6-0.9c2.1-1.3,3.9-2.9,5.2-5c1.7-2.7,2.6-5.6,3.6-8.6c0.9-3.1,1.8-6.1,2.9-9.1c1.7-4.9,3.6-9.7,5.4-14.6
		c-1.7-1.6-3.9-1.6-6.1-1.8C356.2,209,355.2,208.8,354.6,209.7z"/>
	<path class="st0" d="M360.2,207.7c-1.1-1.6-1.3-1.8-4.1-2.4c-0.9-0.2-2-1-3.1,0.1c0.3,0.8,0.6,1.7,0.8,2.4H360.2z"/>
</g>
</svg>
