<?xml version="1.0" encoding="utf-8"?>
<!-- Generator: Adobe Illustrator 26.3.1, SVG Export Plug-In . SVG Version: 6.00 Build 0)  -->
<svg version="1.1" id="Layer_1" xmlns="http://www.w3.org/2000/svg" xmlns:xlink="http://www.w3.org/1999/xlink" x="0px" y="0px"
	 width="300px" height="300px" viewBox="0 0 300 300" style="enable-background:new 0 0 300 300;" xml:space="preserve">
<style type="text/css">
	.st0{fill:#E1B05D;}
	.st1{fill:#F48283;}
	.st2{fill:#75A16A;}
</style>
<path class="st0" d="M57.8,87.3c0.9,0.3,1.6,0.8,2.4,1.6c-1.1,0-1.9-0.5-2.6-1.1C57.7,87.7,57.8,87.5,57.8,87.3z"/>
<g>
	<g>
		<path class="st1" d="M132.6,58.1c1.8-3.1,3.4-6.2,4.6-9.6c1-3.2,2.2-6.3,4-9.2c3.5-5.7,8.8-10.8,15.3-12.8
			c13.6-1.8,9.7,12.2,11.2,20.8c0.9,7,2.3,14.5,0.2,21.3c-3.4,7.8-2.3,20.2-13.4,21.3c-7.3,0.7-14.5,0.8-20.5-4.3
			c-8.4-7.2-6.9-18.2-2-26.8C132.3,58.6,132.4,58.4,132.6,58.1z"/>
		<path class="st1" d="M166.8,173.7c-18-0.4-19.3-21.9-17.9-35.7c1-10.2,2.8-35,18.5-27.8C180.1,119.7,190.5,173,166.8,173.7z"/>
		<path class="st1" d="M96,59.4c-0.7,7.1-1.1,14.4,1.5,21.2c1.4,3.6,3.2,7,2.1,10.9c-2.2,5.9,0.6,11.9,0.1,18
			c-0.2,1.1-0.7,2-1.9,2.5c-2.9,1.3-5.2,5.1-8.8,3c-3-1.5-7-0.4-9-3.8c-3.6-4.4-10.6-7.6-9.3-14.4c0.9-7.1,0.3-14.2,1.5-21.2
			c0.4-7.6,6.9-31.7,17.7-24.8C93.7,52.3,96.5,54.8,96,59.4z"/>
		<path class="st1" d="M211.9,135.8c-4.9-0.7-12.3,0.1-15.1-4.2c-1-5-2.3-10,0.1-14.9c7.7-13.4,14.1-28,23.6-40.1
			c5.1-4.8,6.3,1,11.3,1c4.8,0.3,1.6,6,2.3,9.1C233.1,98.6,226.9,135.7,211.9,135.8z"/>
		<path class="st1" d="M95.3,170.1c0.3-11.2,1.8-22.4-0.7-33.5c-0.9-3.2,3.2-8.4,7.4-7.1c1.7,0.5,3.3,1,5,1.2
			c1.8,0.3,2.7,1.6,3.3,3.2c4.9,12,11.3,23.5,11.1,36.8c0.5,10.5-5.3,24.7-17.7,23.5C96.6,188.4,94.8,178.8,95.3,170.1z"/>
		<path class="st1" d="M93,137.7c-1.1,15.3-1.2,31,0.8,46.2c0.6,4.9,4.6,7.5,7.2,10.8c-1.9,1.8-6.2,1.5-8.6,0.5
			c-23.9-8-16.3-33.9-11.9-52.3C80.9,136.5,93.7,124.7,93,137.7z"/>
		<path class="st1" d="M216.8,70.5c6.1,0.2,2.5,5.2,0.2,7.9c-1.9,2.3-4,4.5-5.9,6.8c-2.3,2.8-3.5,5.1-4.3,8.6
			c-1.3,6.3-6,11.9-9,17.5c-1.5,2.7-2.7,5.6-3.4,8.6c-0.3,1.5-0.4,3-0.4,4.5c0,0.9,1.1,4.2,0.8,4.8c-2.5,4.6-9.1-13.3-8.5-15.8
			c-1.1-7.4,5.3-12.1,7.2-18.6C197.7,84.4,204,70.8,216.8,70.5z"/>
		<path class="st1" d="M112.6,94.1c0.2,7.1-3.1,14.9-10,17.5c-1.3,0.3-2.2-0.7-2-1.9c1.3-5.1-1.4-10.2,0-15.2
			c2.3-5.9,0.2-10.1-2.4-15.3c-1.8-6.5,0.9-13.2-0.4-19.8c-0.4-3-1.3-9.1,3.1-9.1c2.3,0.2,3.1,3,3.4,4.9
			C106,68.4,112.8,80.7,112.6,94.1z"/>
		<path class="st1" d="M154.1,173.6c-36.2,0.4-7.9-76.7-2.5-61c-5.3,12.4-7.5,27.6-5.3,40.9c0.8,4.6,2.2,9.3,4.9,13.1
			c1.4,2,3.1,3.5,5.1,4.7C159.1,173.1,155.8,173.5,154.1,173.6z"/>
		<path class="st1" d="M175.9,57.2c-0.1,4.3-0.8,8.6-2.2,12.8c-1.2,3.4-2.3,6.8-3.9,10.1c-0.2,0.4-4.8,7.3-5.5,6.3
			c-1.2-1.7,1.4-4.3,2.1-6.1c2.8-6.5,4.8-14.2,4.6-21.3c0.1-5.1-0.9-10.1-1.2-15.2c-0.3-4.6,0.6-9.7-2.3-13.7
			c-0.7-0.9-0.2-2.2,1-2.3c5.7-1,6.4,11.4,6.8,14.8C175.6,47.4,176,52.3,175.9,57.2z"/>
		<path class="st1" d="M187.3,147.9c0.3,6.7-2.1,17.3-8.3,20.5c-0.6,0.3-0.1-2.4-0.1-2.6c0.4-0.8,1-1.5,1.5-2.3
			c3.1-5.4,3.3-12.2,2.7-18.2c-0.8-7.4-2.9-14.5-5.6-21.4c-0.1-3.2-9.7-13.8-4.4-14.2C182.2,114.3,187.4,137.8,187.3,147.9z"/>
		<path class="st1" d="M240.9,91.5c0.2,7.5-1.9,15.7-4.5,22.5c-1.4,3.6-3.1,7-5.4,10.2c-2,2.9-4.9,6.8-8.2,8.2
			c-0.4,0.2-1,0.3-1.3-0.1c-0.2-0.3-0.2-0.7,0-1c0.6-1.7,2.1-2.9,3.1-4.4c3.6-5.2,6.5-11.1,8.4-17.1c2.3-8.9,4.2-18.7,2.8-27.9
			c-0.4-1.2,0.3-2.5,1.4-2.8c4.5-0.3,3.3,7.6,3.6,10.3C240.8,90,240.9,90.8,240.9,91.5z"/>
		<path class="st1" d="M65,73.3c0.6-6.8,6.6-25.2,14-26.7c3.1-1.2,4.1,1.5,2.3,3.3c-8.4,7.7-10.3,19.4-12,30.1
			c-1.1,5.2,2.3,11.9,0.2,16.4c-0.6,0.1-1-0.3-1.1-0.8C67.8,88,65,81.1,65,73.3z"/>
		<path class="st1" d="M130.3,59.6c-0.7,0.5-1.4,0.3-1.6-1.3c-1.5-11.9,6.2-22.9,12.7-32.1c1.9-2.5,12.2-4.4,9.3,0.9
			c-3.5,3.4-8.8,5.2-10,10.5c-0.4,1.6-1.7,3.5-2.4,5c-0.8,1.8-1.7,3.6-2.4,5.4c-0.8,1.8-1.5,3.7-2.1,5.5c-0.4,1.3-1.9,3.5-2.4,4.7
			C131.2,58.8,130.7,59.3,130.3,59.6z"/>
	</g>
	<g>
		<path class="st2" d="M130.3,280.6c0.6-10.6,2.1-21.2,2.7-31.8c-1.1-4.9-5.4,4.7-6.8,6.2c-4.6,8.2-7.9,16.8-10.4,25.6H130.3z"/>
		<path class="st2" d="M113.6,267.4c0.8-15.8,6.8-31.2,4.6-47.2c-0.8-17,7-33.1,5.2-50.2c-0.4-15.3-4.4-31.4,0.9-46.3
			c0.9-1.9,1.8-8.8,4.6-5.9c1.9,8.7,7.1,17.7,5.6,26.8c-1.8,7-1.6,14.6,2.6,20.9c1.3,2,2.5,4.1,4.1,5.8c1.8,6.3,1,13.6,1.4,20.2
			c-0.3,10.2,2.1,20.9-1.9,30.6c-1.7,5.7-5.7,10.1-8.6,15.1c-2,6.8-5.4,12.7-9.9,18.1c-3.1,4.1-5.6,8.8-6.8,13.6
			c0.1,0.8-0.4,1.3-1.1,1.3C113.1,270.2,113.8,268.3,113.6,267.4z"/>
		<path class="st2" d="M150.8,280.6c3.8-13.3,6.2-27,10.7-40.1c3.5-14,13.6-26.3,13.9-41c-1.4-20.2-16,5.9-19,12.2
			c-3.9,9.2-12.6,15.5-15.1,25.4c-3.6,14.3-5.8,28.9-5.9,43.5H150.8z"/>
		<path class="st2" d="M157.9,270.1c1.1-10.9,4.2-21.7,6.5-32.3c4-7.8,11.9-11.7,18-17.5c5.7-5.4,12.3-10,19.5-13.2
			c7.4-2.5,13.2-7.9,20-11.4c2.7-1.6,23.5-9.1,20.6-2.4c-18.8,14.9-37.9,30-54.2,47.7c-6.5,8.8-16.9,14-22.1,23.9
			c-1.6,2.9-3.9,5.4-5.5,8.4c-0.6,1.3-2.7,0.5-2.8-0.8C157.9,271.7,157.9,270.9,157.9,270.1z"/>
		<path class="st2" d="M73.4,266c2.9,4.8,6.1,9.6,9,14.6h17.3c-0.3-1.1-0.5-2.2-0.6-3.3c-1.7-7.2-2.9-15.7-8.6-20.9
			c-9.5-12-27.3-17-33.5-31.3c-0.1-0.5-0.5-0.8-1-0.7c-1.4,0.5-0.3,2.3-0.3,3.4C57.6,242.1,65,254.6,73.4,266z"/>
		<path class="st2" d="M93.2,202.3c-3.1,13.4,1.1,25.9,2.1,39.2c0.3,5.5,0.4,11.1,2.2,16.4c0.2,0.6,0.4,1.2-0.3,1.6
			c-2.3-0.2-3.6-3.8-5.5-5.1c-1.4-1.9-4.8-1.6-4.9-4.1c-6.8-17.8-7.9-37.3-17.4-54.3c-3.6-7.2-7.1-14.3-10.5-21.6
			c-2.2-2.5-11.5-33.3-2.9-21.2c7,9.1,18.3,15.7,20.3,28.1C78.7,195.1,91,193.3,93.2,202.3z"/>
		<path class="st2" d="M100.7,270.4c-0.3,3.7,0,7,0.8,10.2h5.9c-0.9-5.3-2-10.7-1.9-15.9c0.7-10.6-0.4-21.2-1.1-31.8
			c-0.5-11.3-1.1-22.6-1.7-33.9c-0.2-3.2-2.7-1-4.6-1.3c-3.1-0.6-3.1,3.2-2.3,5.2C97.2,225.2,100.7,248.2,100.7,270.4z"/>
		<path class="st2" d="M176.5,198.5c1.3-7.7-5.9-12.4-10.3-5.1c-0.3,0.5-0.6,1.2-1.4,0.9c-1.5-2.5,2.4-10.7,1.9-14.5
			c-0.5-5.5,5.8-3.2,8.1-6.5c1.5-1.7,9.4-7.9,9.1-2.6c-1.2,4.3-0.3,8.9-1.8,13.1c-2.5,11.1-0.7,22.3-1.5,33.5
			c-0.6,4.1-5.3,5.4-7.7,8.3c-0.9,0.8-1.8,2.4-3.1,1.8c-1.4-2.7,1.7-6.4,2.3-9.2C175,212.2,176.3,204.7,176.5,198.5z"/>
		<path class="st2" d="M202.5,139.3c-4,20.6-8.3,41.4-18.3,60.1c-0.6,1.3-2.3,0.7-2-0.7c0.3-12.7,5.4-24.2,8.7-36.4
			c2.6-4,2.6-29.9,7.2-27.4C200.2,135.7,202.7,136.4,202.5,139.3z"/>
		<path class="st2" d="M158.6,174.4c2.5-0.1,3.9,1.5,3.2,3.6c-1.5,4.6-1.7,9.5-2.7,14.2c-1.9,6-0.2,13.4-4.9,18.2
			c-2.2,1.9-2.9,6.2-5.5,7c-0.9-0.3-0.7-1.4-0.5-2.1c2-9.1,3.4-18.2,5.2-27.3c0.5-3.9,1-7.9,1.7-11.8
			C155.2,174.3,157.1,174.7,158.6,174.4z"/>
		<path class="st2" d="M148.7,95.3c-0.3,3.5,0.7,7,0.3,10.5c-0.1,1.6-0.5,3.2-1.6,4.5c-1.2,1.5-3,2.3-3.9,4c-0.4,0.7-0.5,1.6-1,2.3
			c-0.1,0.1-0.2,0.3-0.4,0.3c-2.3,1-1.1-6.7-1.2-7.4c0.5-5.7-0.5-11.4,0.1-16.9c1-2,3.7,0.3,5.5-0.3
			C148.9,91.9,148.8,93.5,148.7,95.3z"/>
		<path class="st2" d="M88.9,125.2c0.4-2.5-2-9,2.3-8.4c0.9,0.3,1.7,0.3,2.6-0.1c1-0.5,1.8,0.1,1.9,1.3c-0.3,2.4,1.5,12.6-1.3,12.6
			C89.1,131,88.5,130.5,88.9,125.2z"/>
	</g>
</g>
</svg>
